<?xml version="1.0" standalone="no"?>
<!DOCTYPE svg PUBLIC "-//W3C//DTD SVG 1.1//EN" "http://www.w3.org/Graphics/SVG/1.1/DTD/svg11.dtd">
<svg xmlns="http://www.w3.org/2000/svg">
<defs >
<font id="Akshar" horiz-adv-x="439" ><font-face
    font-family="Akshar Light"
    units-per-em="1000"
    panose-1="0 0 0 0 0 0 0 0 0 0"
    ascent="900"
    descent="-200"
    alphabetic="0" />
<glyph unicode=" " horiz-adv-x="210" />
<glyph unicode="!" horiz-adv-x="280" d="M73 226L57 720H223L207 226H73ZM139 -16Q100 -16 75 9T50 73Q50 111 75 137T139 164Q177 164 203 138T230 73Q230 34 204 9T139 -16Z" />
<glyph unicode="&quot;" horiz-adv-x="437" d="M253 520L231 735H377L355 520H253ZM82 520L60 735H206L184 520H82Z" />
<glyph unicode="#" horiz-adv-x="647" d="M286 31L428 631H554L412 31H286ZM50 186L73 292H553L530 186H50ZM98 31L240 631H366L224 31H98ZM94 369L117 475H597L574 369H94Z" />
<glyph unicode="$" horiz-adv-x="544" d="M185 673V810H319V673H185ZM185 -91V46H319V-91H185ZM343 174Q343 207 321 230T265 273T191 316T118 369T61 442T39 547H205Q205 515 227 492T283 448T357 405T430 352T487 279T509 174H343ZM39 546Q39 601 70 643T154
711T274 736V610Q242 610 224 593T205 546H39ZM509 174Q509 119 478 77T394 9T274 -16V110Q306 110 324 127T343 174H509ZM338 531Q333 569 317 589T274 610V736Q331 736 374 715T446 654T483 557L338 531ZM184 229Q187 173 211 142T274 110V-16Q171 -16 108 42T35
203L184 229Z" />
<glyph unicode="%" horiz-adv-x="842" d="M139 -66L590 740H705L254 -66H139ZM620 -55V49Q637 49 647 65T658 107H792Q792 61 770 24T708 -34T620 -55ZM620 -55Q571 -55 533 -34T472 24T449 107H583Q583 82 593 66T620 49V-55ZM449 107Q449 153 471 189T532 247T620
268V164Q604 164 594 148T583 107H449ZM658 107Q658 132 648 148T620 164V268Q669 268 708 247T769 190T792 107H658ZM221 405V509Q238 509 248 525T259 567H393Q393 521 371 484T309 426T221 405ZM221 405Q172 405 134 426T73 484T50 567H184Q184 542 194 526T221
509V405ZM50 567Q50 613 72 649T133 707T221 728V624Q205 624 195 608T184 567H50ZM259 567Q259 592 249 608T221 624V728Q270 728 309 707T370 650T393 567H259Z" />
<glyph unicode="&amp;" horiz-adv-x="749" d="M585 -2L208 390L306 483L689 99L585 -2ZM291 -20Q182 -20 121 35T60 183L225 173Q225 139 245 127T291 115V-20ZM291 -20V115Q314 115 335 124T385 155T457 220L549 124Q494 69 454 38T376 -7T291 -20ZM60 183Q60
220 78 257T126 327T188 390T253 443T306 483L407 375Q389 359 359 336T298 286T246 229T225 173L60 183ZM549 124L457 220L578 354L677 267L549 124ZM208 390Q177 418 156 443T123 492T110 541L273 548Q275 535 278 524T289 503T306 483L208 390ZM110 541Q106
597 132 640T209 709T326 735V609Q301 609 286 591T273 548L110 541ZM389 530Q384 568 368 588T325 609V735Q382 735 425 714T497 653T534 556L389 530Z" />
<glyph unicode="&apos;" horiz-adv-x="266" d="M82 520L60 735H206L184 520H82Z" />
<glyph unicode="(" horiz-adv-x="324" d="M178 -120Q50 114 50 335T178 790H324Q212 556 212 335T324 -120H178Z" />
<glyph unicode=")" horiz-adv-x="324" d="M146 -120H0Q112 114 112 335T0 790H146Q274 556 274 335T146 -120Z" />
<glyph unicode="*" horiz-adv-x="454" d="M344 428L207 530L50 598L110 702L247 600L404 532L344 428ZM110 428L50 532L207 600L344 702L404 598L247 530L110 428ZM167 395L187 565L167 735H287L267 565L287 395H167Z" />
<glyph unicode="+" horiz-adv-x="500" d="M174 117V557H326V117H174ZM30 277V403H470V277H30Z" />
<glyph unicode="," horiz-adv-x="281" d="M50 -95Q69 -66 81 -46T101 -9T112 30T115 83L231 93Q231 51 218 13T182 -62T132 -140L50 -95ZM140 4Q101 4 76 29T51 93Q51 131 76 157T140 184Q178 184 204 158T231 93Q231 54 205 29T140 4Z" />
<glyph unicode="-" horiz-adv-x="420" d="M50 274V400H370V274H50Z" />
<glyph unicode="." horiz-adv-x="280" d="M139 -16Q100 -16 75 9T50 73Q50 111 75 137T139 164Q177 164 203 138T230 73Q230 34 204 9T139 -16Z" />
<glyph unicode="/" horiz-adv-x="390" d="M25 0L236 720H365L154 0H25Z" />
<glyph unicode="0" horiz-adv-x="570" d="M349 223V496H515V223H349ZM55 223V496H221V223H55ZM279 610V736H291V610H279ZM279 -16V110H291V-16H279ZM55 496Q55 565 84 619T165 704T280 736V610Q252 610 237 580T221 496H55ZM515 496H349Q349 550 334 580T290 610V736Q355
736 405 705T485 619T515 496ZM55 224H221Q221 170 236 140T280 110V-16Q216 -16 165 15T85 101T55 224ZM515 224Q515 156 486 102T406 16T290 -16V110Q318 110 333 140T349 224H515Z" />
<glyph unicode="1" horiz-adv-x="434" d="M119 442L30 536L198 720V529L119 442ZM198 0V720H364V0H198Z" />
<glyph unicode="2" horiz-adv-x="543" d="M84 126Q85 187 103 230T149 303T208 357T268 403T314 453T332 517Q332 517 349 517T390 517T439 517T481 517T498 517Q498 459 480 420T434 352T374 302T314 256T267 202T247 126H84ZM84 0V126H493V0H84ZM205 531L60
557Q70 614 97 654T169 715T269 736V610Q244 610 227 590T205 531ZM498 516H332Q332 560 315 585T268 610V736Q334 736 386 708T468 629T498 516Z" />
<glyph unicode="3" horiz-adv-x="543" d="M258 308V434Q286 434 301 458T317 526H483Q483 458 456 409T379 334T258 308ZM332 203V215H498V203H332ZM198 308V434H259V308H198ZM317 525Q317 565 302 587T258 609V735Q329 735 379 710T456 638T483 525H317ZM498
204Q498 141 468 92T386 13T268 -16V110Q298 110 315 135T332 204H498ZM498 214H332Q332 258 315 283T268 308V434Q334 434 386 406T468 327T498 214ZM195 530L50 556Q60 613 87 653T159 714T259 735V609Q234 609 217 589T195 530ZM205 189Q210 152 227 131T269
110V-16Q213 -16 169 5T98 66T60 163L205 189Z" />
<glyph unicode="4" horiz-adv-x="554" d="M35 251L194 720H360L201 251H35ZM35 125V251H514V125H35ZM296 0V399H449V0H296Z" />
<glyph unicode="5" horiz-adv-x="553" d="M70 305V720H215V305H70ZM327 223V296H493V223H327ZM70 594V720H470V594H70ZM327 296Q327 341 310 366T262 391L296 511Q353 511 397 483T467 407T493 296H327ZM127 306Q127 365 149 411T209 484T296 511L262 391Q240
391 228 369T215 306H127ZM493 225Q493 157 464 103T384 17T268 -15V111Q296 111 311 141T327 225H493ZM205 189Q210 152 227 131T269 110V-16Q213 -16 169 5T98 66T60 163L205 189Z" />
<glyph unicode="6" horiz-adv-x="554" d="M60 260Q60 319 76 384T122 515T191 640T277 745L394 666Q366 630 337 594T282 514T242 408T226 260H60ZM60 224V243H226V224H60ZM343 224V243H509V224H343ZM509 225Q509 157 480 103T400 17T284 -15V111Q312 111 327
141T343 225H509ZM60 225H226Q226 171 241 141T285 111V-15Q221 -15 170 16T90 102T60 225ZM509 242H343Q343 296 328 326T284 356V482Q349 482 399 451T479 365T509 242ZM60 242Q60 311 89 365T170 450T285 482V356Q257 356 242 326T226 242H60Z" />
<glyph unicode="7" horiz-adv-x="509" d="M104 0L313 594H479L270 0H104ZM30 594V720H479V594H30Z" />
<glyph unicode="8" horiz-adv-x="590" d="M364 227Q364 279 346 307T295 336V422Q406 422 468 368T530 217L364 227ZM295 -16Q184 -16 122 44T60 211L226 221Q226 186 234 161T258 123T295 110V-16ZM60 211V217L226 227V221L60 211ZM295 -16V110Q317 110 332 123T355
161T364 221L530 211Q530 104 468 44T295 -16ZM60 217Q60 314 122 368T295 422V336Q263 336 245 308T226 227L60 217ZM364 221V227L530 217V211L364 221ZM295 336Q189 336 129 385T69 523L235 513Q235 470 251 446T295 422V336ZM69 523V529L235 519V513L69 523ZM295
336V422Q324 422 339 446T355 513L521 523Q521 435 462 386T295 336ZM69 529Q69 626 129 680T295 735V609Q276 609 263 599T242 568T235 519L69 529ZM355 513V519L521 529V523L355 513ZM355 519Q355 548 348 568T328 598T295 609V735Q402 735 461 681T521 529L355
519Z" />
<glyph unicode="9" horiz-adv-x="554" d="M494 460Q494 402 478 336T432 205T364 80T277 -25L160 54Q188 90 217 126T272 206T312 312T328 460H494ZM494 496V477H328V496H494ZM211 496V477H45V496H211ZM45 495Q45 564 74 618T155 703T270 735V609Q242 609 227
579T211 495H45ZM494 495H328Q328 549 313 579T269 609V735Q334 735 384 704T464 618T494 495ZM45 478H211Q211 424 226 394T270 364V238Q206 238 155 269T75 355T45 478ZM494 478Q494 410 465 356T385 270T269 238V364Q297 364 312 394T328 478H494Z" />
<glyph unicode=":" horiz-adv-x="330" d="M189 6Q150 6 125 31T100 95Q100 133 125 159T189 186Q227 186 253 160T280 95Q280 56 254 31T189 6ZM189 321Q150 321 125 346T100 410Q100 448 125 474T189 501Q227 501 253 475T280 410Q280 371 254 346T189 321Z" />
<glyph unicode=";" horiz-adv-x="346" d="M189 321Q150 321 125 346T100 410Q100 448 125 474T189 501Q227 501 253 475T280 410Q280 371 254 346T189 321ZM115 -95Q134 -66 146 -46T166 -9T177 30T180 83L296 93Q296 51 283 13T247 -62T197 -140L115 -95ZM205
4Q166 4 141 29T116 93Q116 131 141 157T205 184Q243 184 269 158T296 93Q296 54 270 29T205 4Z" />
<glyph unicode="&lt;" horiz-adv-x="411" d="M30 242V388L381 566V420L30 242ZM381 64L30 242V388L381 210V64Z" />
<glyph unicode="=" horiz-adv-x="430" d="M30 375V501H400V375H30ZM30 175V301H400V175H30Z" />
<glyph unicode="&gt;" horiz-adv-x="411" d="M381 242L30 420V566L381 388V242ZM30 64V210L381 388V242L30 64Z" />
<glyph unicode="?" horiz-adv-x="495" d="M150 244Q150 289 163 321T196 379T235 428T268 476T282 535Q282 571 271 586T240 602Q228 602 219 594T206 567T201 520H35Q35 582 62 630T135 707T240 735Q299 735 345 709T418 638T445 535Q445 495 432 467T399 415T360
368T327 315T313 244H150ZM150 221V244H313V221H150ZM231 -16Q192 -16 167 9T142 73Q142 111 167 137T231 164Q269 164 295 138T322 73Q322 34 296 9T231 -16Z" />
<glyph unicode="@" horiz-adv-x="800" d="M53 328Q60 412 88 478T165 590T280 661T428 685L423 564Q354 564 302 536T220 455T184 328H53ZM372 -120Q261 -120 185 -78T74 45T47 237H178Q173 163 194 110T262 29T377 1L372 -120ZM47 237L53 328H184L178 237H47ZM372
-120L377 1Q408 1 434 5T484 18L508 -94Q477 -107 444 -113T372 -120ZM353 55Q313 55 284 79T239 145T229 240H345Q343 215 353 198T381 181L353 55ZM229 240L234 311H350L345 240H229ZM353 55L381 181Q398 181 410 198T425 240H484Q479 187 460 145T414 79T353
55ZM616 237H747Q743 171 717 127T653 60T574 38T497 61T442 128T425 240H541Q537 194 546 171T571 148T599 170T616 237ZM234 311Q239 364 258 406T308 472T374 496L393 370Q377 370 365 354T350 311H234ZM430 321Q432 342 421 356T393 370L374 496Q408 496 433
473T470 411T479 321H430ZM425 240L439 458L461 490H557L541 240H425ZM616 237L622 328H753L747 237H616ZM622 328Q628 402 606 455T538 536T423 564L428 685Q539 685 614 643T726 520T753 328H622Z" />
<glyph unicode="A" horiz-adv-x="580" d="M183 112V238H439V112H183ZM369 720L190 0H30L209 720H369ZM371 720L550 0H390L211 720H371Z" />
<glyph unicode="B" horiz-adv-x="555" d="M265 331V427Q297 427 315 449T334 511H500Q500 460 469 419T385 355T265 331ZM216 0V126H276V0H216ZM216 311V427H275V311H216ZM344 209V228H510V209H344ZM344 227Q344 267 326 289T275 311V407Q342 407 395 384T479
320T510 227H344ZM216 594V720H266V594H216ZM500 510H334Q334 550 316 572T265 594V720Q332 720 385 693T469 618T500 510ZM510 210Q510 150 479 103T395 28T275 0V126Q307 126 325 148T344 210H510ZM60 0V720H226V0H60Z" />
<glyph unicode="C" horiz-adv-x="553" d="M50 193V527H216V193H50ZM50 526Q50 586 81 633T165 708T285 736V610Q253 610 235 588T216 526H50ZM50 194H216Q216 154 234 132T285 110V-16Q218 -16 165 11T81 86T50 194ZM374 491Q371 547 347 578T284 610V736Q387
736 450 679T523 517L374 491ZM374 229L523 203Q513 100 450 42T284 -16V110Q323 110 347 141T374 229Z" />
<glyph unicode="D" horiz-adv-x="565" d="M344 208V511H510V208H344ZM206 0V126H275V0H206ZM206 594V720H275V594H206ZM206 594V720H275V594H206ZM510 510H344Q344 550 326 572T275 594V720Q342 720 395 693T479 618T510 510ZM510 210Q510 150 479 103T395 28T275
0V126Q307 126 325 148T344 210H510ZM60 0V720H226V0H60Z" />
<glyph unicode="E" horiz-adv-x="480" d="M186 0V126H440V0H186ZM186 297V423H380V297H186ZM60 720H226V0H60V720ZM196 720H430V594H196V720Z" />
<glyph unicode="F" horiz-adv-x="450" d="M186 297V423H380V297H186ZM60 720H226V0H60V720ZM196 720H430V594H196V720Z" />
<glyph unicode="G" horiz-adv-x="578" d="M270 279V405H519V279H270ZM353 193V402H519V193H353ZM50 193V527H216V193H50ZM50 526Q50 586 81 633T165 708T285 736V610Q253 610 235 588T216 526H50ZM50 194H216Q216 154 234 132T285 110V-16Q218 -16 165 11T81 86T50
194ZM374 491Q371 547 347 578T284 610V736Q387 736 450 679T523 517L374 491ZM519 194Q519 134 488 87T404 12T284 -16V110Q316 110 334 132T353 194H519Z" />
<glyph unicode="H" horiz-adv-x="592" d="M120 296V422H426V296H120ZM366 0V720H532V0H366ZM60 0V720H226V0H60Z" />
<glyph unicode="I" horiz-adv-x="306" d="M70 0V720H236V0H70Z" />
<glyph unicode="J" horiz-adv-x="407" d="M181 193V720H347V193H181ZM347 194Q347 95 293 40T142 -16L122 110Q141 110 154 120T174 149T181 194H347ZM78 127Q87 119 98 115T122 110L142 -16Q110 -16 81 -7T20 24L78 127Z" />
<glyph unicode="K" horiz-adv-x="487" d="M151 378L340 720H495L295 378H151ZM332 0L118 378H295L507 0H332ZM60 0V720H226V0H60Z" />
<glyph unicode="L" horiz-adv-x="450" d="M196 0V126H430V0H196ZM60 0V720H226V0H60Z" />
<glyph unicode="M" horiz-adv-x="746" d="M315 0L471 720H591L435 0H315ZM311 0L155 720H275L431 0H311ZM60 0V720H226V0H60ZM520 0V720H686V0H520Z" />
<glyph unicode="N" horiz-adv-x="637" d="M372 0L87 720H227L512 0H372ZM60 0V720H226V0H60ZM411 0V720H577V0H411Z" />
<glyph unicode="O" horiz-adv-x="578" d="M357 194V527H523V194H357ZM55 194V527H221V194H55ZM523 525H357Q357 565 339 587T288 609V735Q355 735 408 708T492 633T523 525ZM55 525Q55 585 86 632T170 707T290 735V609Q258 609 240 587T221 525H55ZM523 195Q523
135 492 88T408 13T288 -15V111Q320 111 338 133T357 195H523ZM55 195H221Q221 155 239 133T290 111V-15Q223 -15 170 12T86 87T55 195Z" />
<glyph unicode="P" horiz-adv-x="530" d="M216 594V720H266V594H216ZM216 248V374H266V248H216ZM334 457V511H500V457H334ZM500 510H334Q334 550 316 572T265 594V720Q332 720 385 693T469 618T500 510ZM500 458Q500 398 469 351T385 276T265 248V374Q297 374
315 396T334 458H500ZM60 0V720H226V0H60Z" />
<glyph unicode="Q" horiz-adv-x="578" d="M408 -171Q370 -162 342 -141T292 -91T251 -33L311 33Q341 1 376 -28T465 -68L408 -171ZM357 194V527H523V194H357ZM55 194V527H221V194H55ZM523 525H357Q357 565 339 587T288 609V735Q355 735 408 708T492 633T523 525ZM55
525Q55 585 86 632T170 707T290 735V609Q258 609 240 587T221 525H55ZM523 195Q523 135 492 88T408 13T288 -15V111Q320 111 338 133T357 195H523ZM55 195H221Q221 155 239 133T290 111V-15Q223 -15 170 12T86 87T55 195Z" />
<glyph unicode="R" horiz-adv-x="556" d="M356 0L232 331H392L516 0H356ZM216 261V387H266V261H216ZM216 594V720H266V594H216ZM334 470V511H500V470H334ZM500 510H334Q334 550 316 572T265 594V720Q332 720 385 693T469 618T500 510ZM500 471Q500 411 469 364T385
289T265 261V387Q297 387 315 409T334 471H500ZM60 0V720H226V0H60Z" />
<glyph unicode="S" horiz-adv-x="544" d="M343 174Q343 207 321 230T265 273T191 316T118 369T61 442T39 547H205Q205 515 227 492T283 448T357 405T430 352T487 279T509 174H343ZM39 546Q39 601 70 643T154 711T274 736V610Q242 610 224 593T205 546H39ZM509
174Q509 119 478 77T394 9T274 -16V110Q306 110 324 127T343 174H509ZM338 531Q333 569 317 589T274 610V736Q331 736 374 715T446 654T483 557L338 531ZM184 229Q187 173 211 142T274 110V-16Q171 -16 108 42T35 203L184 229Z" />
<glyph unicode="T" horiz-adv-x="530" d="M20 594V720H510V594H20ZM182 0V720H348V0H182Z" />
<glyph unicode="U" horiz-adv-x="588" d="M362 193V720H528V193H362ZM60 193V720H226V193H60ZM528 194Q528 134 497 87T413 12T293 -16V110Q325 110 343 132T362 194H528ZM60 194H226Q226 154 244 132T295 110V-16Q228 -16 175 11T91 86T60 194Z" />
<glyph unicode="V" horiz-adv-x="580" d="M211 0L390 720H550L371 0H211ZM209 0L30 720H190L369 0H209Z" />
<glyph unicode="W" horiz-adv-x="890" d="M516 0L380 720H510L656 0H516ZM180 0L40 720H200L340 0H180ZM234 0L380 720H510L374 0H234ZM550 0L690 720H850L710 0H550Z" />
<glyph unicode="X" horiz-adv-x="560" d="M350 0L40 720H210L520 0H350ZM30 0L205 360H355L180 0H30ZM205 360L380 720H530L355 360H205Z" />
<glyph unicode="Y" horiz-adv-x="566" d="M211 258L391 720H536L356 258H211ZM210 0V258H356V0H210ZM210 258L30 720H206L356 258H210Z" />
<glyph unicode="Z" horiz-adv-x="512" d="M40 126L293 594H472L219 126H40ZM40 0V126H472V0H40ZM40 594V720H472V594H40Z" />
<glyph unicode="[" horiz-adv-x="320" d="M50 -118V792H206V-118H50ZM100 -118V8H320V-118H100ZM100 666V792H320V666H100Z" />
<glyph unicode="\" horiz-adv-x="390" d="M365 0H236L25 720H154L365 0Z" />
<glyph unicode="]" horiz-adv-x="320" d="M270 -118H114V792H270V-118ZM220 -118H0V8H220V-118ZM220 666H0V792H220V666Z" />
<glyph unicode="^" horiz-adv-x="562" d="M208 720H354L532 369H386L208 720ZM30 369L208 720H354L176 369H30Z" />
<glyph unicode="_" horiz-adv-x="484" d="M50 0V126H434V0H50Z" />
<glyph unicode="`" horiz-adv-x="343" d="M167 557L70 705H208L273 557H167Z" />
<glyph unicode="a" horiz-adv-x="541" d="M330 0V327H496V0H330ZM215 -15L245 105Q269 105 288 117T318 153T330 209L396 219Q396 152 371 99T305 16T215 -15ZM215 -15Q164 -15 126 6T66 63T45 146L191 156Q191 134 206 120T245 105L215 -15ZM45 146Q45 193 71
229T143 287T245 309L265 209Q230 209 211 195T191 156L45 146ZM265 209L245 309H360V209H265ZM330 209V317H396V219L330 209ZM496 316H330Q330 360 313 385T266 410V536Q332 536 384 508T466 429T496 316ZM203 331L58 357Q68 414 95 454T167 515T267 536V410Q242
410 225 390T203 331Z" />
<glyph unicode="b" horiz-adv-x="565" d="M60 518V720H226V518H60ZM226 0H60V520H226V0ZM520 194H354V326H520V194ZM354 326Q354 366 339 388T295 410L345 536Q395 536 434 509T497 434T520 326H354ZM180 316Q180 379 201 429T260 507T345 536L295 410Q263 410
245 385T226 316H180ZM354 194H520Q520 134 497 87T435 12T345 -16L295 110Q323 110 338 132T354 194ZM180 204H226Q226 160 244 135T295 110L345 -16Q298 -16 261 13T202 91T180 204Z" />
<glyph unicode="c" horiz-adv-x="501" d="M45 223V297H211V223H45ZM45 296Q45 365 74 419T155 504T270 536V410Q242 410 227 380T211 296H45ZM333 331Q328 369 312 389T269 410V536Q326 536 369 515T441 454T478 357L333 331ZM45 224H211Q211 170 226 140T270
110V-16Q206 -16 155 15T75 101T45 224ZM333 189L478 163Q469 107 441 67T370 5T269 -16V110Q295 110 311 131T333 189Z" />
<glyph unicode="d" horiz-adv-x="565" d="M505 518H339V720H505V518ZM339 0V520H505V0H339ZM45 194V326H211V194H45ZM211 326H45Q45 386 68 433T130 508T220 536L270 410Q242 410 227 388T211 326ZM385 316H339Q339 360 321 385T270 410L220 536Q267 536 304 508T363
429T385 316ZM211 194Q211 154 226 132T270 110L220 -16Q170 -16 131 11T68 86T45 194H211ZM385 204Q385 141 364 92T305 13T220 -16L270 110Q302 110 320 135T339 204H385Z" />
<glyph unicode="e" horiz-adv-x="524" d="M131 219V309H489V219H131ZM260 -16V110H270V-16H260ZM35 223V297H201V223H35ZM323 309V317H489V309H323ZM489 316H323Q323 360 306 385T259 410V536Q325 536 377 508T459 429T489 316ZM334 189L479 163Q470 107 442 67T371
5T270 -16V110Q296 110 312 131T334 189ZM35 296Q35 365 64 419T145 504T260 536V410Q232 410 217 380T201 296H35ZM35 224H201Q201 170 216 140T260 110V-16Q196 -16 145 15T65 101T35 224Z" />
<glyph unicode="f" horiz-adv-x="420" d="M83 0V527H249V0H83ZM25 400V520H364V400H25ZM83 526Q83 625 137 680T288 736L308 610Q290 610 277 600T256 572T249 526H83ZM352 593Q343 601 332 605T308 610L288 736Q320 736 349 728T410 696L352 593Z" />
<glyph unicode="g" horiz-adv-x="565" d="M339 -12V520H505V-12H339ZM45 218V327H211V218H45ZM211 326H45Q45 386 68 433T130 508T220 536L270 410Q242 410 227 388T211 326ZM385 316H339Q339 360 321 385T270 410L220 536Q267 536 304 508T363 429T385 316ZM211
219Q211 179 226 157T270 135L220 9Q170 9 131 36T68 111T45 219H211ZM385 229Q385 166 364 117T305 38T220 9L270 135Q302 135 320 160T339 229H385ZM505 -1Q505 -64 475 -113T393 -192T275 -221V-95Q305 -95 322 -70T339 -1H505ZM212 -16Q217 -53 234 -74T276
-95V-221Q220 -221 176 -200T105 -139T67 -42L212 -16Z" />
<glyph unicode="h" horiz-adv-x="565" d="M60 0V520H226V0H60ZM354 0V327H520V0H354ZM354 326Q354 366 339 388T295 410L345 536Q395 536 434 509T497 434T520 326H354ZM180 316Q180 379 201 429T260 507T345 536L295 410Q263 410 245 385T226 316H180ZM316 0V736H482V0H316Z"
/>
<glyph unicode="i" horiz-adv-x="306" d="M70 0V520H236V0H70ZM152 590Q113 590 88 615T63 679Q63 717 88 743T152 770Q190 770 216 744T243 679Q243 640 217 615T152 590Z" />
<glyph unicode="j" horiz-adv-x="327" d="M257 1Q257 -98 203 -153T52 -209L32 -83Q51 -83 64 -73T84 -44T91 1H257ZM-12 -66Q-3 -74 8 -78T32 -83L52 -209Q20 -209 -9 -200T-70 -169L-12 -66ZM91 0V520H257V0H91ZM173 590Q134 590 109 615T84 679Q84 717 109
743T173 770Q211 770 237 744T264 679Q264 640 238 615T173 590Z" />
<glyph unicode="k" horiz-adv-x="545" d="M344 0L161 285L329 314L520 0H344ZM204 150L64 197L324 520H504L204 150ZM60 0V736H226V0H60Z" />
<glyph unicode="l" horiz-adv-x="306" d="M70 0V736H236V0H70Z" />
<glyph unicode="m" horiz-adv-x="819" d="M60 0V520H226V0H60ZM334 0V327H500V0H334ZM180 316Q180 379 199 429T253 507T330 536L280 410Q255 410 241 385T226 316H180ZM334 327Q334 366 320 388T280 410L330 536Q379 536 417 509T477 434T500 327H334ZM608 0V327H774V0H608ZM454
316Q454 379 473 429T527 507T604 536L554 410Q529 410 515 385T500 316H454ZM608 327Q608 366 594 388T554 410L604 536Q653 536 691 509T751 434T774 327H608Z" />
<glyph unicode="n" horiz-adv-x="565" d="M60 0V520H226V0H60ZM354 0V327H520V0H354ZM354 326Q354 366 339 388T295 410L345 536Q395 536 434 509T497 434T520 326H354ZM180 316Q180 379 201 429T260 507T345 536L295 410Q263 410 245 385T226 316H180Z" />
<glyph unicode="o" horiz-adv-x="530" d="M329 224V296H495V224H329ZM35 224V296H201V224H35ZM259 409V535H271V409H259ZM259 -15V111H271V-15H259ZM35 295Q35 364 64 418T145 503T260 535V409Q232 409 217 379T201 295H35ZM495 295H329Q329 349 314 379T270 409V535Q335
535 385 504T465 418T495 295ZM35 225H201Q201 171 216 141T260 111V-15Q196 -15 145 16T65 102T35 225ZM495 225Q495 157 466 103T386 17T270 -15V111Q298 111 313 141T329 225H495Z" />
<glyph unicode="p" horiz-adv-x="565" d="M60 2H226V-200H60V2ZM226 520V0H60V520H226ZM520 326V194H354V326H520ZM354 194H520Q520 134 497 87T435 12T345 -16L295 110Q323 110 338 132T354 194ZM180 204H226Q226 160 244 135T295 110L345 -16Q298 -16 261 13T202
91T180 204ZM354 326Q354 366 339 388T295 410L345 536Q395 536 434 509T497 434T520 326H354ZM180 316Q180 379 201 429T260 507T345 536L295 410Q263 410 245 385T226 316H180Z" />
<glyph unicode="q" horiz-adv-x="565" d="M505 2V-200H339V2H505ZM339 520H505V0H339V520ZM45 326H211V194H45V326ZM211 194Q211 154 226 132T270 110L220 -16Q170 -16 131 11T68 86T45 194H211ZM385 204Q385 141 364 92T305 13T220 -16L270 110Q302 110 320 135T339
204H385ZM211 326H45Q45 386 68 433T130 508T220 536L270 410Q242 410 227 388T211 326ZM385 316H339Q339 360 321 385T270 410L220 536Q267 536 304 508T363 429T385 316Z" />
<glyph unicode="r" horiz-adv-x="446" d="M60 0V520H226V0H60ZM180 296Q180 365 199 419T253 504T330 535L290 390Q260 390 243 365T226 296H180ZM366 350Q353 367 332 378T290 390L330 535Q356 535 377 525T421 489L366 350Z" />
<glyph unicode="s" horiz-adv-x="490" d="M299 145Q299 162 281 174T233 197T171 221T109 253T61 300T42 370Q42 370 58 370T97 370T143 370T182 370T198 370Q198 353 216 341T264 318T326 294T388 262T436 215T455 145Q455 145 439 145T400 145T354 145T315 145T299
145ZM243 -16V110Q269 110 284 119T299 145H455Q455 95 430 59T357 3T243 -16ZM42 370Q42 418 68 455T141 514T245 536V410Q225 410 212 399T198 370H42ZM180 189Q185 152 202 131T244 110V-16Q188 -16 144 5T73 66T35 163L180 189ZM308 331Q303 369 287 389T244
410V536Q301 536 344 515T416 454T453 357L308 331Z" />
<glyph unicode="t" horiz-adv-x="440" d="M93 193V720H259V193H93ZM35 400V520H385V400H35ZM93 194H259Q259 168 266 149T286 120T318 110L298 -16Q201 -16 147 39T93 194ZM362 127L420 24Q389 2 360 -7T298 -16L318 110Q331 110 342 114T362 127Z" />
<glyph unicode="u" horiz-adv-x="565" d="M505 520V0H339V520H505ZM211 520V193H45V520H211ZM211 194Q211 154 226 132T270 110L220 -16Q170 -16 131 11T68 86T45 194H211ZM385 204Q385 141 364 92T305 13T220 -16L270 110Q302 110 320 135T339 204H385Z" />
<glyph unicode="v" horiz-adv-x="543" d="M220 0L346 520H513L357 0H220ZM186 0L30 520H197L323 0H186Z" />
<glyph unicode="w" horiz-adv-x="798" d="M495 0L601 520H768L632 0H495ZM166 0L30 520H197L303 0H166ZM221 0L337 520H459L333 0H221ZM465 0L339 520H461L577 0H465Z" />
<glyph unicode="x" horiz-adv-x="536" d="M336 0L30 520H200L506 0H336ZM30 0L183 260H353L200 0H30ZM183 260L336 520H506L353 260H183Z" />
<glyph unicode="y" horiz-adv-x="543" d="M77 -180L115 -52Q157 -63 180 -57T212 -24H350Q317 -133 251 -171T77 -180ZM213 -24L346 520H513L350 -24H213ZM213 -90L30 520H197L289 144L213 -90Z" />
<glyph unicode="z" horiz-adv-x="480" d="M55 133L250 387H425L231 133H55ZM55 0V133H425V0H55ZM55 387V520H425V387H55Z" />
<glyph unicode="{" horiz-adv-x="334" d="M109 512V562H275V512H109ZM109 110V160H275V110H109ZM109 562Q109 631 138 685T219 770T334 802V676Q306 676 291 646T275 562H109ZM109 111H275Q275 57 290 27T334 -3V-129Q270 -129 219 -98T139 -12T109 111ZM275 513Q275
445 246 391T166 305T50 273V399Q78 399 93 429T109 513H275ZM275 159H109Q109 213 94 243T50 273V399Q115 399 165 368T245 282T275 159Z" />
<glyph unicode="|" horiz-adv-x="303" d="M70 -103V777H233V-103H70Z" />
<glyph unicode="}" horiz-adv-x="334" d="M225 512H59V562H225V512ZM225 110H59V160H225V110ZM225 562H59Q59 616 44 646T0 676V802Q65 802 115 771T195 685T225 562ZM225 111Q225 43 196 -11T116 -97T0 -129V-3Q28 -3 43 27T59 111H225ZM59 513H225Q225 459 240
429T284 399V273Q220 273 169 304T89 390T59 513ZM59 159Q59 228 88 282T169 367T284 399V273Q256 273 241 243T225 159H59Z" />
<glyph unicode="~" horiz-adv-x="572" d="M378 200Q351 200 331 208T294 228T262 252T231 272T194 280V394Q221 394 241 386T278 366T310 342T341 322T378 314V200ZM30 237Q32 311 75 352T194 394V280Q173 280 161 269T147 237H30ZM378 200V314Q399 314 411 325T425
357H542Q541 283 498 242T378 200Z" />
<glyph unicode="&#xa0;" horiz-adv-x="210" />
<glyph unicode="&#xa1;" horiz-adv-x="280" d="M139 716Q177 716 203 691T230 627Q230 590 204 563T139 536Q100 536 75 563T50 627Q50 666 75 691T139 716ZM73 474H207L223 -20H57L73 474Z" />
<glyph unicode="&#xa2;" horiz-adv-x="457" d="M172 5V142H306V5H172ZM172 550V687H306V550H172ZM45 313V379H194V313H45ZM45 378Q45 440 71 489T143 566T247 594V481Q222 481 208 454T194 378H45ZM304 410Q299 444 284 462T246 481V594Q297 594 336 575T400 520T434
433L304 410ZM45 314H194Q194 265 208 238T247 211V98Q189 98 143 126T71 203T45 314ZM304 282L434 259Q426 208 401 172T336 117T246 98V211Q269 211 284 229T304 282Z" />
<glyph unicode="&#xa3;" horiz-adv-x="593" d="M158 469Q158 594 230 664T433 735L449 612Q410 613 382 596T339 547T324 469H158ZM84 0V126H553V0H84ZM158 218V469H324V218H158ZM60 310V430H480V310H60ZM513 592Q502 602 486 607T449 612L433 735Q462 735 497
728T552 706L513 592ZM324 220Q324 157 294 108T212 29T94 0V126Q124 126 141 151T158 220H324Z" />
<glyph unicode="&#xa4;" horiz-adv-x="609" d="M454 400L367 487L472 591L559 504L454 400ZM137 83L50 170L155 274L242 187L137 83ZM155 400L50 504L137 591L242 487L155 400ZM472 83L367 187L454 274L559 170L472 83ZM305 158V274Q324 274 335 292T347 338H496Q496
287 471 246T403 182T305 158ZM305 158Q251 158 208 181T141 246T116 338H264Q264 311 276 293T305 274V158ZM116 338Q116 389 140 429T208 493T305 517V401Q288 401 276 384T264 338H116ZM347 338Q347 366 336 383T305 401V517Q360 517 403 494T471 430T496 338H347Z"
/>
<glyph unicode="&#xa5;" horiz-adv-x="626" d="M79 289V389H507V289H79ZM79 145V245H507V145H79ZM241 258L421 720H566L386 258H241ZM240 0V258H386V0H240ZM240 258L60 720H236L386 258H240Z" />
<glyph unicode="&#xa6;" horiz-adv-x="303" d="M70 387V777H233V387H70ZM70 -103V287H233V-103H70Z" />
<glyph unicode="&#xa7;" horiz-adv-x="502" d="M311 330Q311 347 293 359T245 382T183 406T121 438T73 485T54 555Q54 555 70 555T109 555T155 555T194 555T210 555Q210 538 228 526T276 503T338 479T400 447T448 400T467 330Q467 330 451 330T412 330T366 330T327
330T311 330ZM255 169V295Q281 295 296 304T311 330H467Q467 280 442 244T369 188T255 169ZM54 555Q54 603 80 640T153 699T257 721V595Q237 595 224 584T210 555H54ZM192 374Q197 337 214 316T256 295V169Q200 169 156 190T85 251T47 348L192 374ZM320 516Q315
554 299 574T256 595V721Q313 721 356 700T428 639T465 542L320 516ZM191 336Q191 319 209 307T257 284T319 260T381 228T429 181T448 111Q448 111 432 111T393 111T347 111T308 111T292 111Q292 128 274 140T226 163T164 187T102 219T54 266T35 336Q35 336 51
336T90 336T136 336T175 336T191 336ZM247 497V371Q221 371 206 362T191 336H35Q35 387 60 423T133 478T247 497ZM448 111Q448 63 422 26T349 -33T245 -55V71Q265 71 278 82T292 111H448ZM310 292Q305 330 289 350T246 371V497Q303 497 346 476T418 415T455 318L310
292ZM182 150Q187 113 204 92T246 71V-55Q190 -55 146 -34T75 27T37 124L182 150ZM311 330Q311 347 293 359T245 382T183 406T121 438T73 485T54 555Q54 555 70 555T109 555T155 555T194 555T210 555Q210 538 228 526T276 503T338 479T400 447T448 400T467 330Q467
330 451 330T412 330T366 330T327 330T311 330ZM255 169V295Q281 295 296 304T311 330H467Q467 280 442 244T369 188T255 169ZM54 555Q54 603 80 640T153 699T257 721V595Q237 595 224 584T210 555H54ZM192 374Q197 337 214 316T256 295V169Q200 169 156 190T85
251T47 348L192 374ZM320 516Q315 554 299 574T256 595V721Q313 721 356 700T428 639T465 542L320 516Z" />
<glyph unicode="&#xa8;" horiz-adv-x="475" d="M136 524Q107 524 89 543T70 591Q70 619 88 639T136 659Q164 659 184 639T205 591Q205 562 185 543T136 524ZM336 524Q307 524 289 543T270 591Q270 619 288 639T336 659Q364 659 384 639T405 591Q405 562 385 543T336 524Z" />
<glyph unicode="&#xa9;" horiz-adv-x="870" d="M683 372Q683 456 654 515T569 605T434 637V749Q557 749 644 704T778 575T825 372H683ZM434 -75Q311 -75 224 -30T91 99T45 302H187Q187 218 216 159T301 68T434 37V-75ZM45 302V372H187V302H45ZM434 -75V37Q513
37 568 68T653 159T683 302H825Q825 184 778 100T644 -30T434 -75ZM45 372Q45 491 91 575T224 704T434 749V637Q357 638 302 607T217 516T187 372H45ZM683 302V372H825V302H683ZM274 309V365H398V309H274ZM274 364Q274 415 296 456T356 520T443 544V450Q422 450
410 428T398 364H274ZM490 390Q486 418 474 434T442 450V544Q505 544 546 509T599 410L490 390ZM274 310H398Q398 270 410 248T443 225V130Q394 130 356 153T296 218T274 310ZM490 284L599 264Q588 201 547 166T442 130V225Q461 225 473 240T490 284Z" />
<glyph unicode="&#xaa;" horiz-adv-x="428" d="M259 319V564H383V319H259ZM172 308L195 398Q212 398 226 407T250 433T259 476L308 483Q308 433 290 394T240 331T172 308ZM172 308Q134 308 105 323T61 366T45 429L154 436Q154 420 165 409T195 398L172 308ZM45
429Q45 463 64 491T118 535T195 551L210 476Q183 476 169 466T154 436L45 429ZM210 476L195 551H281V476H210ZM259 476V557H308V483L259 476ZM383 556H259Q259 589 246 608T211 627V721Q260 721 299 700T360 641T383 556ZM163 567L55 587Q65 650 106 685T211 721V627Q192
627 180 611T163 567Z" />
<glyph unicode="&#xab;" horiz-adv-x="806" d="M176 224V382L446 578V426L176 224ZM176 154L20 268L176 382V154ZM446 -42L176 154V312L446 110V-42ZM516 224V382L786 578V426L516 224ZM516 154L360 268L516 382V154ZM786 -42L516 154V312L786 110V-42Z" />
<glyph unicode="&#xac;" horiz-adv-x="510" d="M35 337V463H475V337H35ZM309 208V463H475V208H309Z" />
<glyph unicode="&#xad;" horiz-adv-x="420" d="M50 274V400H370V274H50Z" />
<glyph unicode="&#xae;" horiz-adv-x="603" d="M302 180Q222 180 165 212T77 303T45 447H136Q136 389 156 345T213 277T302 252V180ZM45 447V469H136V447H45ZM302 180V252Q354 252 391 276T447 345T467 447H558Q558 363 528 304T440 212T302 180ZM45 469Q46 553
76 612T164 703T302 735V663Q250 663 213 639T156 571T136 469H45ZM467 447V469H558V447H467ZM467 469Q467 527 448 570T391 638T302 663V735Q383 735 440 704T527 613T558 469H467ZM216 319V600H291V319H216ZM349 319L293 448H365L421 319H349ZM286 421V470H309V421H286ZM286
551V600H309V551H286ZM339 502V518H414V502H339ZM414 518H339Q339 533 331 542T308 551V600Q353 600 383 577T414 518ZM414 503Q414 468 384 445T308 421V470Q323 470 331 478T339 503H414Z" />
<glyph unicode="&#xaf;" horiz-adv-x="460" d="M70 626V720H390V626H70Z" />
<glyph unicode="&#xb0;" horiz-adv-x="443" d="M221 467V571Q238 571 248 587T259 629H393Q393 583 371 546T309 488T221 467ZM221 467Q172 467 134 488T73 546T50 629H184Q184 604 194 588T221 571V467ZM50 629Q50 675 72 711T133 769T221 790V686Q205 686 195
670T184 629H50ZM259 629Q259 654 249 670T221 686V790Q270 790 309 769T370 712T393 629H259Z" />
<glyph unicode="&#xb1;" horiz-adv-x="500" d="M174 207V647H326V207H174ZM30 367V493H470V367H30ZM30 20V146H470V20H30Z" />
<glyph unicode="&#xb2;" horiz-adv-x="307" d="M66 510Q66 543 77 564T105 599T138 626T166 651T177 686Q177 686 188 686T215 686T241 686T252 686Q252 654 241 635T213 602T180 576T152 549T139 510H66ZM66 453V510H250V453H66ZM120 692L55 704Q61 742 86 763T149
784V728Q138 728 131 719T120 692ZM252 685H177Q177 705 170 716T149 728V784Q193 784 222 756T252 685Z" />
<glyph unicode="&#xb3;" horiz-adv-x="311" d="M148 592V648Q161 648 168 659T175 690H249Q249 643 223 618T148 592ZM181 544V550H256V544H181ZM121 592V648H149V592H121ZM175 689Q175 707 168 717T148 727V784Q196 784 222 759T249 689H175ZM256 545Q256 502
227 474T153 446V503Q166 503 173 514T181 545H256ZM256 549H181Q181 569 174 580T153 592V648Q197 648 226 620T256 549ZM120 692L55 703Q61 741 85 762T149 784V727Q137 727 130 718T120 692ZM124 538Q127 521 134 512T153 503V446Q115 446 90 467T59 526L124
538Z" />
<glyph unicode="&#xb4;" horiz-adv-x="343" d="M176 557H70L135 705H273L176 557Z" />
<glyph unicode="&#xb5;" horiz-adv-x="565" d="M369 0L339 97V520H505V0H369ZM211 174Q211 134 226 112T270 90L220 -36Q170 -36 131 -9T68 66T45 174H211ZM385 184Q385 121 364 72T305 -7T220 -36L270 90Q302 90 320 115T339 184H385ZM45 -200V520H211V-200H45Z" />
<glyph unicode="&#xb6;" horiz-adv-x="674" d="M258 275Q195 275 145 305T65 389T35 508Q35 572 64 622T144 701T258 730V275ZM258 -200V730H404V-200H258ZM468 -200V730H614V-200H468ZM258 604V730H524V604H258Z" />
<glyph unicode="&#xb7;" horiz-adv-x="280" d="M139 257Q100 257 75 282T50 346Q50 384 75 410T139 437Q177 437 203 411T230 346Q230 307 204 282T139 257Z" />
<glyph unicode="&#xb8;" horiz-adv-x="403" d="M189 -185Q148 -185 121 -175T70 -153L99 -80Q131 -92 152 -93T181 -83T184 -51H332Q341 -120 299 -152T189 -185ZM184 -51Q178 -28 171 -12T155 20H306Q315 7 321 -9T332 -51H184Z" />
<glyph unicode="&#xb9;" horiz-adv-x="223" d="M93 453V777H168V453H93ZM58 652L18 694L93 777V691L58 652Z" />
<glyph unicode="&#xba;" horiz-adv-x="435" d="M266 501V555H390V501H266ZM45 501V555H170V501H45ZM213 640V734H222V640H213ZM213 322V416H222V322H213ZM45 554Q45 606 67 646T127 710T214 734V640Q193 640 182 618T170 554H45ZM390 554H266Q266 595 254 617T222
640V734Q270 734 308 711T368 647T390 554ZM45 502H170Q170 461 181 439T214 416V322Q166 322 128 345T67 409T45 502ZM390 502Q390 450 368 410T308 346T222 322V416Q242 416 254 438T266 502H390Z" />
<glyph unicode="&#xbb;" horiz-adv-x="806" d="M630 224L360 426V578L630 382V224ZM630 154V382L786 268L630 154ZM360 -42V110L630 312V154L360 -42ZM290 224L20 426V578L290 382V224ZM290 154V382L446 268L290 154ZM20 -42V110L290 312V154L20 -42Z" />
<glyph unicode="&#xbc;" horiz-adv-x="934" d="M129 297V772H238V297H129ZM77 589L18 651L129 772V646L77 589ZM563 166L668 475H778L673 166H563ZM563 83V166H879V83H563ZM735 0V263H836V0H735ZM243 -15L554 791H649L338 -15H243Z" />
<glyph unicode="&#xbd;" horiz-adv-x="948" d="M129 297V772H238V297H129ZM77 589L18 651L129 772V646L77 589ZM619 83Q620 132 636 163T677 215T726 254T766 291T783 341Q783 341 799 341T838 341T876 341T893 341Q893 295 877 266T836 218T786 181T745 141T727
83H619ZM619 0V83H889V0H619ZM699 350L604 368Q613 424 649 455T742 486V403Q725 403 714 389T699 350ZM893 341H783Q783 370 772 386T741 403V486Q784 486 818 467T873 415T893 341ZM243 -15L554 791H649L338 -15H243Z" />
<glyph unicode="&#xbe;" horiz-adv-x="1047" d="M192 500V583Q211 583 221 599T231 644H341Q341 576 302 538T192 500ZM241 431V439H351V431H241ZM153 500V583H193V500H153ZM231 644Q231 670 221 684T192 699V782Q262 782 301 746T341 644H231ZM351 432Q351 390
331 357T277 305T199 286V370Q219 370 230 386T241 432H351ZM351 438H241Q241 467 230 483T199 500V583Q242 583 276 564T331 513T351 438ZM151 647L55 664Q64 720 100 751T193 782V699Q176 699 165 686T151 647ZM157 422Q161 397 172 384T200 370V286Q144 286
108 317T62 405L157 422ZM676 166L781 475H891L786 166H676ZM676 83V166H992V83H676ZM848 0V263H949V0H848ZM356 -15L667 791H762L451 -15H356Z" />
<glyph unicode="&#xbf;" horiz-adv-x="495" d="M264 736Q303 736 328 711T353 647Q353 610 328 583T264 556Q227 556 200 583T173 647Q173 686 200 711T264 736ZM345 476Q345 431 332 399T299 341T260 292T227 244T213 185Q213 149 224 134T255 118Q268 118 276
126T289 153T294 200H460Q460 139 433 90T360 13T255 -15Q197 -15 151 11T77 83T50 185Q50 225 63 253T96 305T135 352T168 405T182 476H345ZM345 499V476H182V499H345Z" />
<glyph unicode="&#xc0;" horiz-adv-x="580" d="M183 112V238H439V112H183ZM369 720L190 0H30L209 720H369ZM371 720L550 0H390L211 720H371ZM225 757L128 905H266L331 757H225Z" />
<glyph unicode="&#xc1;" horiz-adv-x="580" d="M314 757H208L273 905H411L314 757ZM183 112V238H439V112H183ZM369 720L190 0H30L209 720H369ZM371 720L550 0H390L211 720H371Z" />
<glyph unicode="&#xc2;" horiz-adv-x="580" d="M209 925H315L250 777H112L209 925ZM370 925L467 777H329L264 925H370ZM183 112V238H439V112H183ZM369 720L190 0H30L209 720H369ZM371 720L550 0H390L211 720H371Z" />
<glyph unicode="&#xc3;" horiz-adv-x="580" d="M183 112V238H439V112H183ZM369 720L190 0H30L209 720H369ZM371 720L550 0H390L211 720H371ZM355 759Q325 759 308 769T279 793T256 816T225 827V912Q255 912 272 902T301 878T324 855T355 844V759ZM101 785Q101
845 134 878T225 912V827Q213 827 206 816T199 785H101ZM355 759V844Q367 844 374 855T381 886H479Q479 826 447 793T355 759Z" />
<glyph unicode="&#xc4;" horiz-adv-x="580" d="M183 112V238H439V112H183ZM369 720L190 0H30L209 720H369ZM371 720L550 0H390L211 720H371ZM189 764Q160 764 142 783T123 831Q123 859 141 879T189 899Q217 899 237 879T258 831Q258 802 238 783T189 764ZM389
764Q360 764 342 783T323 831Q323 859 341 879T389 899Q417 899 437 879T458 831Q458 802 438 783T389 764Z" />
<glyph unicode="&#xc5;" horiz-adv-x="580" d="M183 112V238H439V112H183ZM369 720L190 0H30L209 720H369ZM371 720L550 0H390L211 720H371ZM326 884Q326 901 316 913T290 925V993Q343 993 378 962T414 884H326ZM290 775Q237 775 202 806T166 884H254Q254 867
264 855T290 843V775ZM290 775V843Q306 843 316 855T326 884H414Q414 838 379 807T290 775ZM166 884Q166 931 201 962T290 993V925Q274 925 264 913T254 884H166Z" />
<glyph unicode="&#xc6;" horiz-adv-x="786" d="M208 594L242 720H497L463 594H208ZM128 135L142 241H497L483 135H128ZM30 0L210 720H370L190 0H30ZM492 297V423H686V297H492ZM366 720H532V0H366V720ZM502 720H736V594H502V720ZM492 0V126H746V0H492Z" />
<glyph unicode="&#xc7;" horiz-adv-x="553" d="M50 193V527H216V193H50ZM50 526Q50 586 81 633T165 708T285 736V610Q253 610 235 588T216 526H50ZM50 194H216Q216 154 234 132T285 110V-16Q218 -16 165 11T81 86T50 194ZM374 491Q371 547 347 578T284 610V736Q387
736 450 679T523 517L374 491ZM374 229L523 203Q513 100 450 42T284 -16V110Q323 110 347 141T374 229ZM304 -185Q263 -185 236 -175T185 -153L214 -80Q246 -92 267 -93T296 -83T299 -51H447Q456 -120 414 -152T304 -185ZM299 -51Q293 -28 286 -12T270 20H421Q430
7 436 -9T447 -51H299Z" />
<glyph unicode="&#xc8;" horiz-adv-x="480" d="M186 0V126H440V0H186ZM186 297V423H380V297H186ZM60 720H226V0H60V720ZM196 720H430V594H196V720ZM175 757L78 905H216L281 757H175Z" />
<glyph unicode="&#xc9;" horiz-adv-x="480" d="M264 757H158L223 905H361L264 757ZM186 0V126H440V0H186ZM186 297V423H380V297H186ZM60 720H226V0H60V720ZM196 720H430V594H196V720Z" />
<glyph unicode="&#xca;" horiz-adv-x="480" d="M159 925H265L200 777H62L159 925ZM320 925L417 777H279L214 925H320ZM186 0V126H440V0H186ZM186 297V423H380V297H186ZM60 720H226V0H60V720ZM196 720H430V594H196V720Z" />
<glyph unicode="&#xcb;" horiz-adv-x="480" d="M186 0V126H440V0H186ZM186 297V423H380V297H186ZM60 720H226V0H60V720ZM196 720H430V594H196V720ZM139 764Q110 764 92 783T73 831Q73 859 91 879T139 899Q167 899 187 879T208 831Q208 802 188 783T139 764ZM339
764Q310 764 292 783T273 831Q273 859 291 879T339 899Q367 899 387 879T408 831Q408 802 388 783T339 764Z" />
<glyph unicode="&#xcc;" horiz-adv-x="306" d="M70 0V720H236V0H70ZM88 757L-9 905H129L194 757H88Z" />
<glyph unicode="&#xcd;" horiz-adv-x="306" d="M177 757H71L136 905H274L177 757ZM70 0V720H236V0H70Z" />
<glyph unicode="&#xce;" horiz-adv-x="306" d="M72 925H178L113 777H-25L72 925ZM233 925L330 777H192L127 925H233ZM70 0V720H236V0H70Z" />
<glyph unicode="&#xcf;" horiz-adv-x="306" d="M70 0V720H236V0H70ZM52 764Q23 764 5 783T-14 831Q-14 859 4 879T52 899Q80 899 100 879T121 831Q121 802 101 783T52 764ZM252 764Q223 764 205 783T186 831Q186 859 204 879T252 899Q280 899 300 879T321 831Q321
802 301 783T252 764Z" />
<glyph unicode="&#xd0;" horiz-adv-x="565" d="M344 208V511H510V208H344ZM206 0V126H275V0H206ZM206 594V720H275V594H206ZM206 594V720H275V594H206ZM510 510H344Q344 550 326 572T275 594V720Q342 720 395 693T479 618T510 510ZM510 210Q510 150 479 103T395
28T275 0V126Q307 126 325 148T344 210H510ZM60 0V720H226V0H60ZM234 313V408H524V313H234Z" />
<glyph unicode="&#xd1;" horiz-adv-x="637" d="M372 0L87 720H227L512 0H372ZM60 0V720H226V0H60ZM411 0V720H577V0H411ZM364 759Q334 759 317 769T288 793T265 816T234 827V912Q264 912 281 902T310 878T333 855T364 844V759ZM110 785Q110 845 143 878T234 912V827Q222
827 215 816T208 785H110ZM364 759V844Q376 844 383 855T390 886H488Q488 826 456 793T364 759Z" />
<glyph unicode="&#xd2;" horiz-adv-x="578" d="M357 194V527H523V194H357ZM55 194V527H221V194H55ZM523 525H357Q357 565 339 587T288 609V735Q355 735 408 708T492 633T523 525ZM55 525Q55 585 86 632T170 707T290 735V609Q258 609 240 587T221 525H55ZM523 195Q523
135 492 88T408 13T288 -15V111Q320 111 338 133T357 195H523ZM55 195H221Q221 155 239 133T290 111V-15Q223 -15 170 12T86 87T55 195ZM224 757L127 905H265L330 757H224Z" />
<glyph unicode="&#xd3;" horiz-adv-x="578" d="M313 757H207L272 905H410L313 757ZM357 194V527H523V194H357ZM55 194V527H221V194H55ZM523 525H357Q357 565 339 587T288 609V735Q355 735 408 708T492 633T523 525ZM55 525Q55 585 86 632T170 707T290 735V609Q258
609 240 587T221 525H55ZM523 195Q523 135 492 88T408 13T288 -15V111Q320 111 338 133T357 195H523ZM55 195H221Q221 155 239 133T290 111V-15Q223 -15 170 12T86 87T55 195Z" />
<glyph unicode="&#xd4;" horiz-adv-x="578" d="M208 925H314L249 777H111L208 925ZM369 925L466 777H328L263 925H369ZM357 194V527H523V194H357ZM55 194V527H221V194H55ZM523 525H357Q357 565 339 587T288 609V735Q355 735 408 708T492 633T523 525ZM55 525Q55
585 86 632T170 707T290 735V609Q258 609 240 587T221 525H55ZM523 195Q523 135 492 88T408 13T288 -15V111Q320 111 338 133T357 195H523ZM55 195H221Q221 155 239 133T290 111V-15Q223 -15 170 12T86 87T55 195Z" />
<glyph unicode="&#xd5;" horiz-adv-x="578" d="M357 194V527H523V194H357ZM55 194V527H221V194H55ZM523 525H357Q357 565 339 587T288 609V735Q355 735 408 708T492 633T523 525ZM55 525Q55 585 86 632T170 707T290 735V609Q258 609 240 587T221 525H55ZM523 195Q523
135 492 88T408 13T288 -15V111Q320 111 338 133T357 195H523ZM55 195H221Q221 155 239 133T290 111V-15Q223 -15 170 12T86 87T55 195ZM354 759Q324 759 307 769T278 793T255 816T224 827V912Q254 912 271 902T300 878T323 855T354 844V759ZM100 785Q100 845 133
878T224 912V827Q212 827 205 816T198 785H100ZM354 759V844Q366 844 373 855T380 886H478Q478 826 446 793T354 759Z" />
<glyph unicode="&#xd6;" horiz-adv-x="578" d="M357 194V527H523V194H357ZM55 194V527H221V194H55ZM523 525H357Q357 565 339 587T288 609V735Q355 735 408 708T492 633T523 525ZM55 525Q55 585 86 632T170 707T290 735V609Q258 609 240 587T221 525H55ZM523 195Q523
135 492 88T408 13T288 -15V111Q320 111 338 133T357 195H523ZM55 195H221Q221 155 239 133T290 111V-15Q223 -15 170 12T86 87T55 195ZM188 764Q159 764 141 783T122 831Q122 859 140 879T188 899Q216 899 236 879T257 831Q257 802 237 783T188 764ZM388 764Q359
764 341 783T322 831Q322 859 340 879T388 899Q416 899 436 879T457 831Q457 802 437 783T388 764Z" />
<glyph unicode="&#xd7;" horiz-adv-x="464" d="M327 135L30 432L137 539L434 242L327 135ZM119 139L30 228L341 539L430 450L119 139Z" />
<glyph unicode="&#xd8;" horiz-adv-x="578" d="M357 194V527H523V194H357ZM55 194V527H221V194H55ZM523 525H357Q357 565 339 587T288 609V735Q355 735 408 708T492 633T523 525ZM55 525Q55 585 86 632T170 707T290 735V609Q258 609 240 587T221 525H55ZM523 195Q523
135 492 88T408 13T288 -15V111Q320 111 338 133T357 195H523ZM55 195H221Q221 155 239 133T290 111V-15Q223 -15 170 12T86 87T55 195ZM125 -43L395 763H452L182 -43H125Z" />
<glyph unicode="&#xd9;" horiz-adv-x="588" d="M362 193V720H528V193H362ZM60 193V720H226V193H60ZM528 194Q528 134 497 87T413 12T293 -16V110Q325 110 343 132T362 194H528ZM60 194H226Q226 154 244 132T295 110V-16Q228 -16 175 11T91 86T60 194ZM229 757L132
905H270L335 757H229Z" />
<glyph unicode="&#xda;" horiz-adv-x="588" d="M318 757H212L277 905H415L318 757ZM362 193V720H528V193H362ZM60 193V720H226V193H60ZM528 194Q528 134 497 87T413 12T293 -16V110Q325 110 343 132T362 194H528ZM60 194H226Q226 154 244 132T295 110V-16Q228
-16 175 11T91 86T60 194Z" />
<glyph unicode="&#xdb;" horiz-adv-x="588" d="M213 925H319L254 777H116L213 925ZM374 925L471 777H333L268 925H374ZM362 193V720H528V193H362ZM60 193V720H226V193H60ZM528 194Q528 134 497 87T413 12T293 -16V110Q325 110 343 132T362 194H528ZM60 194H226Q226
154 244 132T295 110V-16Q228 -16 175 11T91 86T60 194Z" />
<glyph unicode="&#xdc;" horiz-adv-x="588" d="M362 193V720H528V193H362ZM60 193V720H226V193H60ZM528 194Q528 134 497 87T413 12T293 -16V110Q325 110 343 132T362 194H528ZM60 194H226Q226 154 244 132T295 110V-16Q228 -16 175 11T91 86T60 194ZM193 764Q164
764 146 783T127 831Q127 859 145 879T193 899Q221 899 241 879T262 831Q262 802 242 783T193 764ZM393 764Q364 764 346 783T327 831Q327 859 345 879T393 899Q421 899 441 879T462 831Q462 802 442 783T393 764Z" />
<glyph unicode="&#xdd;" horiz-adv-x="566" d="M307 777H201L266 925H404L307 777ZM211 258L391 720H536L356 258H211ZM210 0V258H356V0H210ZM210 258L30 720H206L356 258H210Z" />
<glyph unicode="&#xde;" horiz-adv-x="520" d="M206 465V591H255V465H206ZM206 129V255H255V129H206ZM324 339V381H490V339H324ZM490 381H324Q324 421 306 443T255 465V591Q322 591 375 564T459 489T490 381ZM490 339Q490 279 459 232T375 157T255 129V255Q287
255 305 277T324 339H490ZM60 0V720H226V0H60Z" />
<glyph unicode="&#xdf;" horiz-adv-x="564" d="M60 0V506H216V0H60ZM243 -15L263 108H297V-15H243ZM253 291V414H285V291H253ZM363 169V230H519V169H363ZM353 475V507H509V475H353ZM60 506Q60 559 89 601T170 667T285 691V568Q256 568 236 550T216 506H60ZM509
506H353Q353 532 333 550T284 568V691Q349 691 399 667T479 601T509 506ZM509 476Q509 423 480 381T400 315T284 291V414Q313 414 333 432T353 476H509ZM519 229H363Q363 255 343 273T294 291V414Q359 414 409 390T489 324T519 229ZM519 170Q519 117 490 75T410
9T294 -15V108Q323 108 343 126T363 170H519Z" />
<glyph unicode="&#xe0;" horiz-adv-x="541" d="M330 0V327H496V0H330ZM215 -15L245 105Q269 105 288 117T318 153T330 209L396 219Q396 152 371 99T305 16T215 -15ZM215 -15Q164 -15 126 6T66 63T45 146L191 156Q191 134 206 120T245 105L215 -15ZM45 146Q45 193
71 229T143 287T245 309L265 209Q230 209 211 195T191 156L45 146ZM265 209L245 309H360V209H265ZM330 209V317H396V219L330 209ZM496 316H330Q330 360 313 385T266 410V536Q332 536 384 508T466 429T496 316ZM203 331L58 357Q68 414 95 454T167 515T267 536V410Q242
410 225 390T203 331ZM206 557L109 705H247L312 557H206Z" />
<glyph unicode="&#xe1;" horiz-adv-x="541" d="M295 557H189L254 705H392L295 557ZM330 0V327H496V0H330ZM215 -15L245 105Q269 105 288 117T318 153T330 209L396 219Q396 152 371 99T305 16T215 -15ZM215 -15Q164 -15 126 6T66 63T45 146L191 156Q191 134 206
120T245 105L215 -15ZM45 146Q45 193 71 229T143 287T245 309L265 209Q230 209 211 195T191 156L45 146ZM265 209L245 309H360V209H265ZM330 209V317H396V219L330 209ZM496 316H330Q330 360 313 385T266 410V536Q332 536 384 508T466 429T496 316ZM203 331L58 357Q68
414 95 454T167 515T267 536V410Q242 410 225 390T203 331Z" />
<glyph unicode="&#xe2;" horiz-adv-x="541" d="M190 725H296L231 577H93L190 725ZM351 725L448 577H310L245 725H351ZM330 0V327H496V0H330ZM215 -15L245 105Q269 105 288 117T318 153T330 209L396 219Q396 152 371 99T305 16T215 -15ZM215 -15Q164 -15 126 6T66
63T45 146L191 156Q191 134 206 120T245 105L215 -15ZM45 146Q45 193 71 229T143 287T245 309L265 209Q230 209 211 195T191 156L45 146ZM265 209L245 309H360V209H265ZM330 209V317H396V219L330 209ZM496 316H330Q330 360 313 385T266 410V536Q332 536 384 508T466
429T496 316ZM203 331L58 357Q68 414 95 454T167 515T267 536V410Q242 410 225 390T203 331Z" />
<glyph unicode="&#xe3;" horiz-adv-x="541" d="M330 0V327H496V0H330ZM215 -15L245 105Q269 105 288 117T318 153T330 209L396 219Q396 152 371 99T305 16T215 -15ZM215 -15Q164 -15 126 6T66 63T45 146L191 156Q191 134 206 120T245 105L215 -15ZM45 146Q45 193
71 229T143 287T245 309L265 209Q230 209 211 195T191 156L45 146ZM265 209L245 309H360V209H265ZM330 209V317H396V219L330 209ZM496 316H330Q330 360 313 385T266 410V536Q332 536 384 508T466 429T496 316ZM203 331L58 357Q68 414 95 454T167 515T267 536V410Q242
410 225 390T203 331ZM336 559Q306 559 289 569T260 593T237 616T206 627V712Q236 712 253 702T282 678T305 655T336 644V559ZM82 585Q82 645 115 678T206 712V627Q194 627 187 616T180 585H82ZM336 559V644Q348 644 355 655T362 686H460Q460 626 428 593T336 559Z"
/>
<glyph unicode="&#xe4;" horiz-adv-x="541" d="M330 0V327H496V0H330ZM215 -15L245 105Q269 105 288 117T318 153T330 209L396 219Q396 152 371 99T305 16T215 -15ZM215 -15Q164 -15 126 6T66 63T45 146L191 156Q191 134 206 120T245 105L215 -15ZM45 146Q45 193
71 229T143 287T245 309L265 209Q230 209 211 195T191 156L45 146ZM265 209L245 309H360V209H265ZM330 209V317H396V219L330 209ZM496 316H330Q330 360 313 385T266 410V536Q332 536 384 508T466 429T496 316ZM203 331L58 357Q68 414 95 454T167 515T267 536V410Q242
410 225 390T203 331ZM170 564Q141 564 123 583T104 631Q104 659 122 679T170 699Q198 699 218 679T239 631Q239 602 219 583T170 564ZM370 564Q341 564 323 583T304 631Q304 659 322 679T370 699Q398 699 418 679T439 631Q439 602 419 583T370 564Z" />
<glyph unicode="&#xe5;" horiz-adv-x="541" d="M330 0V327H496V0H330ZM215 -15L245 105Q269 105 288 117T318 153T330 209L396 219Q396 152 371 99T305 16T215 -15ZM215 -15Q164 -15 126 6T66 63T45 146L191 156Q191 134 206 120T245 105L215 -15ZM45 146Q45 193
71 229T143 287T245 309L265 209Q230 209 211 195T191 156L45 146ZM265 209L245 309H360V209H265ZM330 209V317H396V219L330 209ZM496 316H330Q330 360 313 385T266 410V536Q332 536 384 508T466 429T496 316ZM203 331L58 357Q68 414 95 454T167 515T267 536V410Q242
410 225 390T203 331ZM307 684Q307 701 297 713T271 725V793Q324 793 359 762T395 684H307ZM271 575Q218 575 183 606T147 684H235Q235 667 245 655T271 643V575ZM271 575V643Q287 643 297 655T307 684H395Q395 638 360 607T271 575ZM147 684Q147 731 182 762T271
793V725Q255 725 245 713T235 684H147Z" />
<glyph unicode="&#xe6;" horiz-adv-x="836" d="M225 -15L255 105Q282 105 301 115T330 144T340 189L456 199Q456 138 425 90T341 13T225 -15ZM215 -15L245 105Q269 105 288 117T318 153T330 209L396 219Q396 152 371 99T305 16T215 -15ZM215 -15Q164 -15 126 6T66
63T45 146L191 156Q191 134 206 120T245 105L215 -15ZM45 146Q45 193 71 229T143 287T245 309L265 209Q230 209 211 195T191 156L45 146ZM265 209L245 309H360V209H265ZM330 209V317H396V219L330 209ZM496 316H330Q330 360 313 385T266 410V536Q332 536 384 508T466
429T496 316ZM203 331L58 357Q68 414 95 454T167 515T267 536V410Q242 410 225 390T203 331ZM443 219V309H801V219H443ZM572 -16V110H582V-16H572ZM347 223V297H513V223H347ZM635 309V317H801V309H635ZM801 316H635Q635 360 618 385T571 410V536Q637 536 689 508T771
429T801 316ZM646 189L791 163Q782 107 754 67T683 5T582 -16V110Q608 110 624 131T646 189ZM347 296Q347 365 376 419T457 504T572 536V410Q544 410 529 380T513 296H347ZM347 224H513Q513 170 528 140T572 110V-16Q508 -16 457 15T377 101T347 224Z" />
<glyph unicode="&#xe7;" horiz-adv-x="501" d="M45 223V297H211V223H45ZM45 296Q45 365 74 419T155 504T270 536V410Q242 410 227 380T211 296H45ZM333 331Q328 369 312 389T269 410V536Q326 536 369 515T441 454T478 357L333 331ZM45 224H211Q211 170 226 140T270
110V-16Q206 -16 155 15T75 101T45 224ZM333 189L478 163Q469 107 441 67T370 5T269 -16V110Q295 110 311 131T333 189ZM295 -185Q254 -185 227 -175T176 -153L205 -80Q237 -92 258 -93T287 -83T290 -51H438Q447 -120 405 -152T295 -185ZM290 -51Q284 -28 277 -12T261
20H412Q421 7 427 -9T438 -51H290Z" />
<glyph unicode="&#xe8;" horiz-adv-x="524" d="M131 219V309H489V219H131ZM260 -16V110H270V-16H260ZM35 223V297H201V223H35ZM323 309V317H489V309H323ZM489 316H323Q323 360 306 385T259 410V536Q325 536 377 508T459 429T489 316ZM334 189L479 163Q470 107
442 67T371 5T270 -16V110Q296 110 312 131T334 189ZM35 296Q35 365 64 419T145 504T260 536V410Q232 410 217 380T201 296H35ZM35 224H201Q201 170 216 140T260 110V-16Q196 -16 145 15T65 101T35 224ZM190 557L93 705H231L296 557H190Z" />
<glyph unicode="&#xe9;" horiz-adv-x="524" d="M279 557H173L238 705H376L279 557ZM131 219V309H489V219H131ZM260 -16V110H270V-16H260ZM35 223V297H201V223H35ZM323 309V317H489V309H323ZM489 316H323Q323 360 306 385T259 410V536Q325 536 377 508T459 429T489
316ZM334 189L479 163Q470 107 442 67T371 5T270 -16V110Q296 110 312 131T334 189ZM35 296Q35 365 64 419T145 504T260 536V410Q232 410 217 380T201 296H35ZM35 224H201Q201 170 216 140T260 110V-16Q196 -16 145 15T65 101T35 224Z" />
<glyph unicode="&#xea;" horiz-adv-x="524" d="M174 725H280L215 577H77L174 725ZM335 725L432 577H294L229 725H335ZM131 219V309H489V219H131ZM260 -16V110H270V-16H260ZM35 223V297H201V223H35ZM323 309V317H489V309H323ZM489 316H323Q323 360 306 385T259
410V536Q325 536 377 508T459 429T489 316ZM334 189L479 163Q470 107 442 67T371 5T270 -16V110Q296 110 312 131T334 189ZM35 296Q35 365 64 419T145 504T260 536V410Q232 410 217 380T201 296H35ZM35 224H201Q201 170 216 140T260 110V-16Q196 -16 145 15T65
101T35 224Z" />
<glyph unicode="&#xeb;" horiz-adv-x="524" d="M131 219V309H489V219H131ZM260 -16V110H270V-16H260ZM35 223V297H201V223H35ZM323 309V317H489V309H323ZM489 316H323Q323 360 306 385T259 410V536Q325 536 377 508T459 429T489 316ZM334 189L479 163Q470 107
442 67T371 5T270 -16V110Q296 110 312 131T334 189ZM35 296Q35 365 64 419T145 504T260 536V410Q232 410 217 380T201 296H35ZM35 224H201Q201 170 216 140T260 110V-16Q196 -16 145 15T65 101T35 224ZM154 564Q125 564 107 583T88 631Q88 659 106 679T154 699Q182
699 202 679T223 631Q223 602 203 583T154 564ZM354 564Q325 564 307 583T288 631Q288 659 306 679T354 699Q382 699 402 679T423 631Q423 602 403 583T354 564Z" />
<glyph unicode="&#xec;" horiz-adv-x="306" d="M70 0V520H236V0H70ZM344 557L247 705H385L450 557H344Z" />
<glyph unicode="&#xed;" horiz-adv-x="306" d="M177 557H71L136 705H274L177 557ZM70 0V520H236V0H70Z" />
<glyph unicode="&#xee;" horiz-adv-x="306" d="M72 725H178L113 577H-25L72 725ZM233 725L330 577H192L127 725H233ZM70 0V520H236V0H70Z" />
<glyph unicode="&#xef;" horiz-adv-x="306" d="M70 0V520H236V0H70ZM308 564Q279 564 261 583T242 631Q242 659 260 679T308 699Q336 699 356 679T377 631Q377 602 357 583T308 564ZM508 564Q479 564 461 583T442 631Q442 659 460 679T508 699Q536 699 556 679T577
631Q577 602 557 583T508 564Z" />
<glyph unicode="&#xf0;" horiz-adv-x="540" d="M360 299Q360 364 351 429T316 561T241 697L338 758Q392 686 427 607T478 449T495 299H360ZM255 548L211 619L431 745L475 674L255 548ZM329 224V296H495V224H329ZM35 224V296H201V224H35ZM259 409V535H271V409H259ZM259
-15V111H271V-15H259ZM35 295Q35 364 64 418T145 503T260 535V409Q232 409 217 379T201 295H35ZM495 295H329Q329 349 314 379T270 409V535Q335 535 385 504T465 418T495 295ZM35 225H201Q201 171 216 141T260 111V-15Q196 -15 145 16T65 102T35 225ZM495 225Q495
157 466 103T386 17T270 -15V111Q298 111 313 141T329 225H495Z" />
<glyph unicode="&#xf1;" horiz-adv-x="565" d="M60 0V520H226V0H60ZM354 0V327H520V0H354ZM354 326Q354 366 339 388T295 410L345 536Q395 536 434 509T497 434T520 326H354ZM180 316Q180 379 201 429T260 507T345 536L295 410Q263 410 245 385T226 316H180ZM368
559Q338 559 321 569T292 593T269 616T238 627V712Q268 712 285 702T314 678T337 655T368 644V559ZM114 585Q114 645 147 678T238 712V627Q226 627 219 616T212 585H114ZM368 559V644Q380 644 387 655T394 686H492Q492 626 460 593T368 559Z" />
<glyph unicode="&#xf2;" horiz-adv-x="530" d="M329 224V296H495V224H329ZM35 224V296H201V224H35ZM259 409V535H271V409H259ZM259 -15V111H271V-15H259ZM35 295Q35 364 64 418T145 503T260 535V409Q232 409 217 379T201 295H35ZM495 295H329Q329 349 314 379T270
409V535Q335 535 385 504T465 418T495 295ZM35 225H201Q201 171 216 141T260 111V-15Q196 -15 145 16T65 102T35 225ZM495 225Q495 157 466 103T386 17T270 -15V111Q298 111 313 141T329 225H495ZM200 557L103 705H241L306 557H200Z" />
<glyph unicode="&#xf3;" horiz-adv-x="530" d="M289 557H183L248 705H386L289 557ZM329 224V296H495V224H329ZM35 224V296H201V224H35ZM259 409V535H271V409H259ZM259 -15V111H271V-15H259ZM35 295Q35 364 64 418T145 503T260 535V409Q232 409 217 379T201 295H35ZM495
295H329Q329 349 314 379T270 409V535Q335 535 385 504T465 418T495 295ZM35 225H201Q201 171 216 141T260 111V-15Q196 -15 145 16T65 102T35 225ZM495 225Q495 157 466 103T386 17T270 -15V111Q298 111 313 141T329 225H495Z" />
<glyph unicode="&#xf4;" horiz-adv-x="530" d="M184 725H290L225 577H87L184 725ZM345 725L442 577H304L239 725H345ZM329 224V296H495V224H329ZM35 224V296H201V224H35ZM259 409V535H271V409H259ZM259 -15V111H271V-15H259ZM35 295Q35 364 64 418T145 503T260
535V409Q232 409 217 379T201 295H35ZM495 295H329Q329 349 314 379T270 409V535Q335 535 385 504T465 418T495 295ZM35 225H201Q201 171 216 141T260 111V-15Q196 -15 145 16T65 102T35 225ZM495 225Q495 157 466 103T386 17T270 -15V111Q298 111 313 141T329
225H495Z" />
<glyph unicode="&#xf5;" horiz-adv-x="530" d="M329 224V296H495V224H329ZM35 224V296H201V224H35ZM259 409V535H271V409H259ZM259 -15V111H271V-15H259ZM35 295Q35 364 64 418T145 503T260 535V409Q232 409 217 379T201 295H35ZM495 295H329Q329 349 314 379T270
409V535Q335 535 385 504T465 418T495 295ZM35 225H201Q201 171 216 141T260 111V-15Q196 -15 145 16T65 102T35 225ZM495 225Q495 157 466 103T386 17T270 -15V111Q298 111 313 141T329 225H495ZM330 559Q300 559 283 569T254 593T231 616T200 627V712Q230 712
247 702T276 678T299 655T330 644V559ZM76 585Q76 645 109 678T200 712V627Q188 627 181 616T174 585H76ZM330 559V644Q342 644 349 655T356 686H454Q454 626 422 593T330 559Z" />
<glyph unicode="&#xf6;" horiz-adv-x="530" d="M329 224V296H495V224H329ZM35 224V296H201V224H35ZM259 409V535H271V409H259ZM259 -15V111H271V-15H259ZM35 295Q35 364 64 418T145 503T260 535V409Q232 409 217 379T201 295H35ZM495 295H329Q329 349 314 379T270
409V535Q335 535 385 504T465 418T495 295ZM35 225H201Q201 171 216 141T260 111V-15Q196 -15 145 16T65 102T35 225ZM495 225Q495 157 466 103T386 17T270 -15V111Q298 111 313 141T329 225H495ZM164 564Q135 564 117 583T98 631Q98 659 116 679T164 699Q192 699
212 679T233 631Q233 602 213 583T164 564ZM364 564Q335 564 317 583T298 631Q298 659 316 679T364 699Q392 699 412 679T433 631Q433 602 413 583T364 564Z" />
<glyph unicode="&#xf7;" horiz-adv-x="500" d="M30 277V403H470V277H30ZM249 467Q210 467 185 492T160 556Q160 594 185 620T249 647Q287 647 313 621T340 556Q340 517 314 492T249 467ZM249 27Q210 27 185 52T160 116Q160 154 185 180T249 207Q287 207 313 181T340
116Q340 77 314 52T249 27Z" />
<glyph unicode="&#xf8;" horiz-adv-x="530" d="M120 -44L353 564H410L177 -44H120ZM329 224V296H495V224H329ZM35 224V296H201V224H35ZM259 409V535H271V409H259ZM259 -15V111H271V-15H259ZM35 295Q35 364 64 418T145 503T260 535V409Q232 409 217 379T201 295H35ZM495
295H329Q329 349 314 379T270 409V535Q335 535 385 504T465 418T495 295ZM35 225H201Q201 171 216 141T260 111V-15Q196 -15 145 16T65 102T35 225ZM495 225Q495 157 466 103T386 17T270 -15V111Q298 111 313 141T329 225H495Z" />
<glyph unicode="&#xf9;" horiz-adv-x="565" d="M505 520V0H339V520H505ZM211 520V193H45V520H211ZM211 194Q211 154 226 132T270 110L220 -16Q170 -16 131 11T68 86T45 194H211ZM385 204Q385 141 364 92T305 13T220 -16L270 110Q302 110 320 135T339 204H385ZM217
557L120 705H258L323 557H217Z" />
<glyph unicode="&#xfa;" horiz-adv-x="565" d="M505 520V0H339V520H505ZM211 520V193H45V520H211ZM211 194Q211 154 226 132T270 110L220 -16Q170 -16 131 11T68 86T45 194H211ZM385 204Q385 141 364 92T305 13T220 -16L270 110Q302 110 320 135T339 204H385ZM306
557H200L265 705H403L306 557Z" />
<glyph unicode="&#xfb;" horiz-adv-x="565" d="M505 520V0H339V520H505ZM211 520V193H45V520H211ZM211 194Q211 154 226 132T270 110L220 -16Q170 -16 131 11T68 86T45 194H211ZM385 204Q385 141 364 92T305 13T220 -16L270 110Q302 110 320 135T339 204H385ZM201
725H307L242 577H104L201 725ZM362 725L459 577H321L256 725H362Z" />
<glyph unicode="&#xfc;" horiz-adv-x="565" d="M505 520V0H339V520H505ZM211 520V193H45V520H211ZM211 194Q211 154 226 132T270 110L220 -16Q170 -16 131 11T68 86T45 194H211ZM385 204Q385 141 364 92T305 13T220 -16L270 110Q302 110 320 135T339 204H385ZM181
564Q152 564 134 583T115 631Q115 659 133 679T181 699Q209 699 229 679T250 631Q250 602 230 583T181 564ZM381 564Q352 564 334 583T315 631Q315 659 333 679T381 699Q409 699 429 679T450 631Q450 602 430 583T381 564Z" />
<glyph unicode="&#xfd;" horiz-adv-x="543" d="M296 557H190L255 705H393L296 557ZM77 -180L115 -52Q157 -63 180 -57T212 -24H350Q317 -133 251 -171T77 -180ZM213 -24L346 520H513L350 -24H213ZM213 -90L30 520H197L289 144L213 -90Z" />
<glyph unicode="&#xfe;" horiz-adv-x="565" d="M60 518V720H226V518H60ZM60 2H226V-200H60V2ZM226 520V0H60V520H226ZM520 326V194H354V326H520ZM354 194H520Q520 134 497 87T435 12T345 -16L295 110Q323 110 338 132T354 194ZM180 204H226Q226 160 244 135T295
110L345 -16Q298 -16 261 13T202 91T180 204ZM354 326Q354 366 339 388T295 410L345 536Q395 536 434 509T497 434T520 326H354ZM180 316Q180 379 201 429T260 507T345 536L295 410Q263 410 245 385T226 316H180Z" />
<glyph unicode="&#xff;" horiz-adv-x="543" d="M77 -180L115 -52Q157 -63 180 -57T212 -24H350Q317 -133 251 -171T77 -180ZM213 -24L346 520H513L350 -24H213ZM213 -90L30 520H197L289 144L213 -90ZM171 564Q142 564 124 583T105 631Q105 659 123 679T171 699Q199
699 219 679T240 631Q240 602 220 583T171 564ZM371 564Q342 564 324 583T305 631Q305 659 323 679T371 699Q399 699 419 679T440 631Q440 602 420 583T371 564Z" />
<glyph unicode="&#x2013;" horiz-adv-x="484" d="M50 274V400H434V274H50Z" />
<glyph unicode="&#x2014;" horiz-adv-x="676" d="M50 274V400H626V274H50Z" />
<glyph unicode="&#x2018;" horiz-adv-x="301" d="M151 612Q190 612 215 587T240 523Q240 486 215 459T151 432Q114 432 87 459T60 523Q60 562 87 587T151 612ZM241 711Q222 682 210 662T190 625T179 586T176 533L60 523Q60 565 73 603T109 678T159 756L241 711Z" />
<glyph unicode="&#x2019;" horiz-adv-x="301" d="M60 458Q79 487 91 507T111 544T122 583T125 636L241 646Q241 604 228 566T192 491T142 413L60 458ZM150 557Q111 557 86 582T61 646Q61 684 86 710T150 737Q188 737 214 711T241 646Q241 607 215 582T150 557Z" />
<glyph unicode="&#x201a;" horiz-adv-x="281" d="M50 -95Q69 -66 81 -46T101 -9T112 30T115 83L231 93Q231 51 218 13T182 -62T132 -140L50 -95ZM140 4Q101 4 76 29T51 93Q51 131 76 157T140 184Q178 184 204 158T231 93Q231 54 205 29T140 4Z" />
<glyph unicode="&#x201c;" horiz-adv-x="521" d="M151 612Q190 612 215 587T240 523Q240 486 215 459T151 432Q114 432 87 459T60 523Q60 562 87 587T151 612ZM241 711Q222 682 210 662T190 625T179 586T176 533L60 523Q60 565 73 603T109 678T159 756L241 711ZM371
612Q410 612 435 587T460 523Q460 486 435 459T371 432Q334 432 307 459T280 523Q280 562 307 587T371 612ZM461 711Q442 682 430 662T410 625T399 586T396 533L280 523Q280 565 293 603T329 678T379 756L461 711Z" />
<glyph unicode="&#x201d;" horiz-adv-x="521" d="M280 457Q299 486 311 506T331 543T342 582T345 635L461 645Q461 603 448 565T412 490T362 412L280 457ZM370 556Q331 556 306 581T281 645Q281 683 306 709T370 736Q408 736 434 710T461 645Q461 606 435 581T370
556ZM60 457Q79 486 91 506T111 543T122 582T125 635L241 645Q241 603 228 565T192 490T142 412L60 457ZM150 556Q111 556 86 581T61 645Q61 683 86 709T150 736Q188 736 214 710T241 645Q241 606 215 581T150 556Z" />
<glyph unicode="&#x201e;" horiz-adv-x="500" d="M269 -95Q288 -66 300 -46T320 -9T331 30T334 83L450 93Q450 51 437 13T401 -62T351 -140L269 -95ZM359 4Q320 4 295 29T270 93Q270 131 295 157T359 184Q397 184 423 158T450 93Q450 54 424 29T359 4ZM50 -95Q69
-66 81 -46T101 -9T112 30T115 83L231 93Q231 51 218 13T182 -62T132 -140L50 -95ZM140 4Q101 4 76 29T51 93Q51 131 76 157T140 184Q178 184 204 158T231 93Q231 54 205 29T140 4Z" />
<glyph unicode="&#x2022;" horiz-adv-x="370" d="M184 202Q125 202 88 239T50 336Q50 373 67 404T114 453T184 472Q221 472 252 454T301 404T320 336Q320 297 302 267T252 219T184 202Z" />
<glyph unicode="&#x2039;" horiz-adv-x="466" d="M176 224V382L446 578V426L176 224ZM176 154L20 268L176 382V154ZM446 -42L176 154V312L446 110V-42Z" />
<glyph unicode="&#x203a;" horiz-adv-x="466" d="M290 224L20 426V578L290 382V224ZM290 154V382L446 268L290 154ZM20 -42V110L290 312V154L20 -42Z" />
</font>
</defs>
</svg>
