<?xml version="1.0" standalone="no"?>
<!DOCTYPE svg PUBLIC "-//W3C//DTD SVG 1.1//EN" "http://www.w3.org/Graphics/SVG/1.1/DTD/svg11.dtd">
<svg xmlns="http://www.w3.org/2000/svg">
<defs>
<font id="Akshar" horiz-adv-x="439"><font-face font-family="Akshar Light Medium" units-per-em="1000" panose-1="0 0 0 0 0 0 0 0 0 0" ascent="900" descent="-200" alphabetic="0"></font-face>
<glyph unicode=" " horiz-adv-x="195"></glyph>
<glyph unicode="!" horiz-adv-x="240" d="M73 216L62 710H178L167 216H73ZM119 -8Q89 -8 70 11T50 61Q50 91 69 111T119 132Q149 132 169 112T190 61Q190 31 170 12T119 -8Z"></glyph>
<glyph unicode="&quot;" horiz-adv-x="357" d="M208 510L191 725H297L280 510H208ZM77 510L60 725H166L149 510H77Z"></glyph>
<glyph unicode="#" horiz-adv-x="622" d="M286 31L428 631H524L382 31H286ZM50 196L68 282H528L510 196H50ZM98 31L240 631H336L194 31H98ZM94 379L112 465H572L554 379H94Z"></glyph>
<glyph unicode="$" horiz-adv-x="496" d="M191 668V805H284V668H191ZM191 -96V41H284V-96H191ZM344 164Q344 199 323 225T269 276T197 324T126 379T71 451T49 547H165Q165 513 186 486T241 435T313 387T384 332T439 261T460 164H344ZM49 546Q49 600 76 640T150
703T259 726V631Q215 631 190 609T165 546H49ZM460 165Q460 110 433 70T359 8T250 -15V79Q294 79 319 102T344 165H460ZM344 547Q339 589 316 610T259 631V726Q310 726 350 706T415 651T448 567L344 547ZM140 208Q145 148 174 114T250 79V-15Q159 -15 103 39T35
189L140 208Z"></glyph>
<glyph unicode="%" horiz-adv-x="733" d="M107 -34L538 722H628L197 -34H107ZM531 -33V46Q557 46 573 65T589 114H683Q683 72 663 39T609 -14T531 -33ZM531 -33Q488 -33 454 -14T400 38T380 114H474Q474 84 490 65T531 46V-33ZM380 114Q380 156 400 189T454 241T531
260V181Q507 181 491 162T474 114H380ZM589 114Q589 143 573 162T531 181V260Q575 260 609 241T663 189T683 114H589ZM201 427V506Q227 506 243 525T259 574H353Q353 533 333 500T279 447T201 427ZM201 427Q158 427 124 446T70 499T50 574H144Q144 545 160 526T201
506V427ZM50 574Q50 616 70 649T124 701T201 720V641Q177 641 161 622T144 574H50ZM259 574Q259 603 243 622T201 641V720Q245 720 279 701T333 649T353 574H259Z"></glyph>
<glyph unicode="&amp;" horiz-adv-x="691" d="M557 -1L205 386L276 456L631 70L557 -1ZM264 -17Q168 -17 114 33T60 168L175 163Q175 121 200 101T264 80V-17ZM264 -17V80Q284 80 304 88T349 114T405 164L470 91Q430 51 397 27T332 -7T264 -17ZM60 168Q60 204
76 239T117 306T172 367T229 417T276 456L348 377Q332 361 304 337T246 285T196 225T175 163L60 168ZM470 91L405 164L538 309L608 245L470 91ZM205 386Q179 413 157 440T120 496T105 556L218 560Q219 541 227 523T249 488T276 456L205 386ZM105 556Q103 605 126
643T191 703T286 725V631Q256 631 237 611T218 560L105 556ZM370 546Q365 589 342 610T285 631V725Q336 725 376 706T441 651T474 566L370 546Z"></glyph>
<glyph unicode="&apos;" horiz-adv-x="226" d="M77 510L60 725H166L149 510H77Z"></glyph>
<glyph unicode="(" horiz-adv-x="282" d="M176 -120Q50 109 50 335T176 790H282Q172 561 172 335T282 -120H176Z"></glyph>
<glyph unicode=")" horiz-adv-x="282" d="M106 -120H0Q110 109 110 335T0 790H106Q232 561 232 335T106 -120Z"></glyph>
<glyph unicode="*" horiz-adv-x="413" d="M318 454L189 540L50 609L95 687L224 601L363 532L318 454ZM95 454L50 532L189 601L318 687L363 609L224 540L95 454ZM162 415L172 570L162 725H252L242 570L252 415H162Z"></glyph>
<glyph unicode="+" horiz-adv-x="475" d="M183 121V536H292V121H183ZM30 282V378H445V282H30Z"></glyph>
<glyph unicode="," horiz-adv-x="242" d="M50 -83Q66 -59 76 -42T93 -10T103 24T106 68L192 78Q192 42 182 11T153 -52T112 -117L50 -83ZM122 9Q92 9 73 28T53 78Q53 108 72 128T122 149Q151 149 171 129T192 78Q192 48 172 29T122 9Z"></glyph>
<glyph unicode="-" horiz-adv-x="395" d="M50 281V377H345V281H50Z"></glyph>
<glyph unicode="." horiz-adv-x="240" d="M119 -8Q89 -8 70 11T50 61Q50 91 69 111T119 132Q149 132 169 112T190 61Q190 31 170 12T119 -8Z"></glyph>
<glyph unicode="/" horiz-adv-x="355" d="M25 0L231 710H330L124 0H25Z"></glyph>
<glyph unicode="0" horiz-adv-x="511" d="M340 194V516H456V194H340ZM55 194V516H171V194H55ZM252 631V726H260V631H252ZM252 -15V79H260V-15H252ZM55 516Q55 576 81 623T152 698T253 726V631Q215 631 193 601T171 516H55ZM456 516H340Q340 571 319 601T258 631V726Q315
726 359 699T430 624T456 516ZM55 195H171Q171 140 193 110T253 79V-15Q197 -15 152 12T81 87T55 195ZM456 195Q456 135 430 88T360 13T258 -15V79Q297 79 318 109T340 195H456Z"></glyph>
<glyph unicode="1" horiz-adv-x="364" d="M96 479L30 549L178 710V569L96 479ZM178 0V710H294V0H178Z"></glyph>
<glyph unicode="2" horiz-adv-x="494" d="M77 96Q78 161 96 207T144 288T205 349T267 404T314 463T333 539Q333 539 344 539T373 539T408 539T437 539T449 539Q449 479 431 437T383 363T321 306T259 251T210 186T190 96H77ZM77 0V96H446V0H77ZM165 552L60 572Q68
620 93 655T159 711T249 731V636Q217 636 194 615T165 552ZM449 538H333Q333 582 310 609T248 636V731Q306 731 351 706T422 637T449 538Z"></glyph>
<glyph unicode="3" horiz-adv-x="489" d="M238 324V418Q273 418 294 448T316 528H432Q432 467 408 421T341 350T238 324ZM328 176V226H444V176H328ZM178 324V418H239V324H178ZM316 527Q316 573 295 602T238 631V725Q297 725 340 701T408 632T432 527H316ZM444
177Q444 122 418 79T346 10T243 -16V79Q281 79 304 106T328 177H444ZM444 226H328Q328 270 305 297T243 324V418Q301 418 346 393T417 325T444 226ZM155 546L50 566Q58 615 83 650T149 705T239 725V631Q207 631 184 610T155 546ZM160 163Q165 122 188 101T244 79V-16Q195
-16 155 4T89 60T55 143L160 163Z"></glyph>
<glyph unicode="4" horiz-adv-x="509" d="M35 236L209 710H325L151 236H35ZM35 140V236H469V140H35ZM289 0V399H397V0H289Z"></glyph>
<glyph unicode="5" horiz-adv-x="506" d="M70 300V710H176V300H70ZM330 194V296H446V194H330ZM70 614V710H427V614H70ZM330 295Q330 341 307 368T246 396L265 486Q317 486 358 461T422 393T446 295H330ZM108 301Q108 354 128 395T185 461T265 486L246 396Q215
396 196 370T176 301H108ZM446 195Q446 135 420 88T350 13T248 -15V79Q287 79 308 109T330 195H446ZM165 163Q170 122 193 101T249 79V-16Q200 -16 160 4T94 60T60 143L165 163Z"></glyph>
<glyph unicode="6" horiz-adv-x="501" d="M60 255Q60 329 76 397T121 527T186 640T262 730L347 671Q315 635 285 598T231 514T191 405T176 255H60ZM60 195V247H176V195H60ZM340 195V247H456V195H340ZM456 195Q456 135 430 88T360 13T258 -15V80Q297 80 318 110T340
195H456ZM60 195H176Q176 141 198 111T258 80V-15Q202 -15 157 12T86 87T60 195ZM456 246H340Q340 301 319 331T258 362V456Q315 456 359 429T430 354T456 246ZM60 246Q60 307 86 354T157 428T258 456V362Q220 362 198 332T176 246H60Z"></glyph>
<glyph unicode="7" horiz-adv-x="459" d="M99 0L313 614H429L215 0H99ZM30 614V710H429V614H30Z"></glyph>
<glyph unicode="8" horiz-adv-x="526" d="M350 225Q350 279 327 308T263 338V412Q359 412 412 362T466 220L350 225ZM263 -15Q168 -15 114 38T60 188L176 193Q176 157 186 132T216 93T263 79V-15ZM60 188V220L176 225V193L60 188ZM263 -15V79Q291 79 310 92T339
131T350 193L466 188Q466 92 413 39T263 -15ZM60 220Q60 311 114 361T263 412V338Q223 338 200 309T176 225L60 220ZM350 193V225L466 220V188L350 193ZM263 338Q174 338 122 386T69 516L185 511Q185 464 205 438T263 412V338ZM69 516V537L185 532V511L69 516ZM263
338V412Q301 412 321 438T341 511L457 516Q457 434 405 386T263 338ZM69 537Q69 624 121 674T263 725V631Q238 631 221 620T194 586T185 532L69 537ZM341 511V532L457 537V516L341 511ZM341 532Q341 564 332 586T306 619T263 631V725Q353 725 405 675T457 537L341
532Z"></glyph>
<glyph unicode="9" horiz-adv-x="501" d="M441 455Q441 382 425 314T380 184T315 71T239 -20L154 39Q186 75 216 112T270 196T310 305T325 455H441ZM441 516V464H325V516H441ZM161 516V464H45V516H161ZM45 515Q45 576 71 623T142 697T243 725V631Q205 631 183
601T161 515H45ZM441 515H325Q325 570 304 600T243 631V725Q300 725 344 698T415 623T441 515ZM45 464H161Q161 410 183 380T243 349V254Q187 254 142 281T71 357T45 464ZM441 464Q441 405 415 357T345 282T243 254V349Q282 349 303 379T325 464H441Z"></glyph>
<glyph unicode=":" horiz-adv-x="290" d="M169 24Q139 24 120 43T100 93Q100 123 119 143T169 164Q199 164 219 144T240 93Q240 63 220 44T169 24ZM170 343Q140 343 121 362T101 412Q101 442 120 462T170 483Q200 483 220 463T241 412Q241 382 221 363T170 343Z"></glyph>
<glyph unicode=";" horiz-adv-x="305" d="M169 343Q139 343 120 362T100 412Q100 442 119 462T169 483Q199 483 219 463T240 412Q240 382 220 363T169 343ZM113 -83Q129 -59 139 -42T156 -10T166 24T169 68L255 78Q255 42 245 11T216 -52T175 -117L113 -83ZM185
9Q155 9 136 28T116 78Q116 108 135 128T185 149Q214 149 234 129T255 78Q255 48 235 29T185 9Z"></glyph>
<glyph unicode="&lt;" horiz-adv-x="411" d="M30 262V368L381 546V440L30 262ZM381 84L30 262V368L381 190V84Z"></glyph>
<glyph unicode="=" horiz-adv-x="409" d="M30 386V482H379V386H30ZM30 206V302H379V206H30Z"></glyph>
<glyph unicode="&gt;" horiz-adv-x="411" d="M381 262L30 440V546L381 368V262ZM30 84V190L381 368V262L30 84Z"></glyph>
<glyph unicode="?" horiz-adv-x="455" d="M150 214Q150 268 164 306T200 373T242 427T277 479T292 540Q292 585 273 606T215 627Q195 627 181 618T159 591T151 543H35Q35 596 58 637T122 702T215 725Q271 725 313 702T380 636T405 540Q405 499 391 469T355 414T313
362T278 300T263 214H150ZM150 191V214H263V191H150ZM206 -8Q176 -8 157 11T137 61Q137 91 156 111T206 132Q236 132 256 112T277 61Q277 31 257 12T206 -8Z"></glyph>
<glyph unicode="@" horiz-adv-x="759" d="M53 328Q59 407 86 470T160 578T269 646T408 670L403 579Q329 579 274 550T187 464T149 328H53ZM352 -105Q250 -105 179 -63T73 55T47 237H143Q137 159 160 103T234 16T357 -14L352 -105ZM47 237L53 328H149L143 237H47ZM352
-105L357 -14Q391 -14 423 -8T480 11L507 -69Q474 -86 434 -95T352 -105ZM338 65Q296 65 266 87T220 149T209 240H300Q297 203 313 182T361 161L338 65ZM209 240L214 311H305L300 240H209ZM338 65L361 161Q388 161 405 182T425 240H474Q469 189 450 150T403 88T338
65ZM611 237H707Q703 177 680 137T624 77T554 57T487 78T439 139T425 240H516Q512 191 524 166T555 141T590 165T611 237ZM214 311Q218 363 238 402T291 464T364 486L378 390Q347 390 328 370T305 311H214ZM430 316Q433 351 419 370T378 390L364 486Q400 486 426
465T465 405T474 316H430ZM425 240L439 450L451 480H532L516 240H425ZM611 237L617 328H713L707 237H611ZM617 328Q623 407 600 463T526 549T403 579L408 670Q510 670 581 629T686 510T713 328H617Z"></glyph>
<glyph unicode="A" horiz-adv-x="524" d="M149 131V226H404V131H149ZM318 710L143 0H30L205 710H318ZM320 710L494 0H381L207 710H320Z"></glyph>
<glyph unicode="B" horiz-adv-x="495" d="M230 331V412Q274 412 299 439T324 516H440Q440 464 413 422T338 356T230 331ZM156 0V95H241V0H156ZM156 321V412H240V321H156ZM334 194V217H450V194H334ZM334 216Q334 266 309 293T240 321V402Q300 402 347 378T422 311T450
216H334ZM156 616V710H231V616H156ZM440 515H324Q324 563 299 589T230 616V710Q292 710 339 685T413 616T440 515ZM450 195Q450 138 423 94T349 25T240 0V95Q284 95 309 121T334 195H450ZM60 0V710H176V0H60Z"></glyph>
<glyph unicode="C" horiz-adv-x="504" d="M50 179V532H166V179H50ZM50 531Q50 588 77 632T151 701T260 726V632Q216 632 191 606T166 531H50ZM50 179H166Q166 132 191 106T260 79V-16Q199 -16 152 9T77 78T50 179ZM369 503Q364 563 335 597T259 632V726Q350 726
407 673T474 522L369 503ZM369 208L474 188Q464 92 407 38T259 -16V79Q306 79 335 113T369 208Z"></glyph>
<glyph unicode="D" horiz-adv-x="505" d="M334 194V516H450V194H334ZM151 0V95H240V0H151ZM151 616V710H240V616H151ZM151 616V710H240V616H151ZM450 515H334Q334 563 309 589T240 616V710Q302 710 349 685T423 616T450 515ZM450 195Q450 138 423 94T349 25T240
0V95Q284 95 309 121T334 195H450ZM60 0V710H176V0H60Z"></glyph>
<glyph unicode="E" horiz-adv-x="445" d="M136 0V95H405V0H136ZM146 306V402H345V306H146ZM60 710H176V0H60V710ZM146 710H395V616H146V710Z"></glyph>
<glyph unicode="F" horiz-adv-x="415" d="M146 306V402H345V306H146ZM60 710H176V0H60V710ZM146 710H395V616H146V710Z"></glyph>
<glyph unicode="G" horiz-adv-x="529" d="M250 291V385H469V291H250ZM353 178V382H469V178H353ZM50 179V532H166V179H50ZM50 531Q50 588 77 632T151 701T260 726V632Q216 632 191 606T166 531H50ZM50 179H166Q166 132 191 106T260 79V-16Q199 -16 152 9T77 78T50
179ZM369 503Q364 563 335 597T259 632V726Q350 726 407 673T474 522L369 503ZM469 179Q469 122 442 78T368 9T259 -16V79Q303 79 328 105T353 179H469Z"></glyph>
<glyph unicode="H" horiz-adv-x="542" d="M100 307V402H406V307H100ZM366 0V710H482V0H366ZM60 0V710H176V0H60Z"></glyph>
<glyph unicode="I" horiz-adv-x="256" d="M70 0V710H186V0H70Z"></glyph>
<glyph unicode="J" horiz-adv-x="350" d="M174 166V710H290V166H174ZM290 167Q290 81 246 33T122 -16L109 79Q130 79 144 89T166 119T174 167H290ZM64 96Q74 88 85 84T109 79L122 -16Q95 -16 70 -8T20 18L64 96Z"></glyph>
<glyph unicode="K" horiz-adv-x="420" d="M114 378L315 710H427L221 378H114ZM317 0L97 378H221L440 0H317ZM60 0V710H176V0H60Z"></glyph>
<glyph unicode="L" horiz-adv-x="415" d="M146 0V95H395V0H146ZM60 0V710H176V0H60Z"></glyph>
<glyph unicode="M" horiz-adv-x="660" d="M285 0L442 710H535L378 0H285ZM282 0L125 710H218L375 0H282ZM60 0V710H176V0H60ZM484 0V710H600V0H484Z"></glyph>
<glyph unicode="N" horiz-adv-x="569" d="M364 0L81 710H187L469 0H364ZM60 0V710H176V0H60ZM393 0V710H509V0H393Z"></glyph>
<glyph unicode="O" horiz-adv-x="529" d="M358 179V532H474V179H358ZM55 179V532H171V179H55ZM474 530H358Q358 578 333 604T264 631V725Q326 725 373 700T447 631T474 530ZM55 530Q55 587 82 631T156 700T265 725V631Q221 631 196 605T171 530H55ZM474 180Q474
123 447 79T373 10T264 -15V80Q308 80 333 106T358 180H474ZM55 180H171Q171 133 196 107T265 80V-15Q204 -15 157 10T82 79T55 180Z"></glyph>
<glyph unicode="P" horiz-adv-x="475" d="M151 616V710H236V616H151ZM151 264V358H236V264H151ZM329 458V516H445V458H329ZM445 515H329Q329 563 304 589T235 616V710Q297 710 344 685T418 616T445 515ZM445 459Q445 402 418 358T344 289T235 264V358Q279 358
304 384T329 459H445ZM60 0V710H176V0H60Z"></glyph>
<glyph unicode="Q" horiz-adv-x="529" d="M373 -152Q343 -146 316 -128T268 -83T230 -30L271 17Q301 -15 335 -40T415 -74L373 -152ZM358 179V532H474V179H358ZM55 179V532H171V179H55ZM474 530H358Q358 578 333 604T264 631V725Q326 725 373 700T447 631T474
530ZM55 530Q55 587 82 631T156 700T265 725V631Q221 631 196 605T171 530H55ZM474 180Q474 123 447 79T373 10T264 -15V80Q308 80 333 106T358 180H474ZM55 180H171Q171 133 196 107T265 80V-15Q204 -15 157 10T82 79T55 180Z"></glyph>
<glyph unicode="R" horiz-adv-x="493" d="M338 0L212 340H327L453 0H338ZM151 286V381H236V286H151ZM151 616V710H236V616H151ZM329 480V516H445V480H329ZM445 515H329Q329 563 304 589T235 616V710Q297 710 344 685T418 616T445 515ZM445 481Q445 424 418 380T344
311T235 286V381Q279 381 304 407T329 481H445ZM60 0V710H176V0H60Z"></glyph>
<glyph unicode="S" horiz-adv-x="496" d="M344 164Q344 199 323 225T269 276T197 324T126 379T71 451T49 547H165Q165 513 186 486T241 435T313 387T384 332T439 261T460 164H344ZM49 546Q49 600 76 640T150 703T259 726V631Q215 631 190 609T165 546H49ZM460
165Q460 110 433 70T359 8T250 -15V79Q294 79 319 102T344 165H460ZM344 547Q339 589 316 610T259 631V726Q310 726 350 706T415 651T448 567L344 547ZM140 208Q145 148 174 114T250 79V-15Q159 -15 103 39T35 189L140 208Z"></glyph>
<glyph unicode="T" horiz-adv-x="480" d="M20 616V710H460V616H20ZM182 0V710H298V0H182Z"></glyph>
<glyph unicode="U" horiz-adv-x="538" d="M362 179V710H478V179H362ZM60 179V710H176V179H60ZM478 180Q478 123 451 79T377 10T268 -15V79Q312 79 337 105T362 180H478ZM60 180H176Q176 132 201 106T270 79V-15Q209 -15 162 10T87 79T60 180Z"></glyph>
<glyph unicode="V" horiz-adv-x="524" d="M207 0L381 710H494L320 0H207ZM205 0L30 710H143L318 0H205Z"></glyph>
<glyph unicode="W" horiz-adv-x="804" d="M491 0L355 710H453L594 0H491ZM174 0L40 710H153L287 0H174ZM210 0L351 710H449L313 0H210ZM517 0L651 710H764L630 0H517Z"></glyph>
<glyph unicode="X" horiz-adv-x="496" d="M343 0L35 710H153L461 0H343ZM30 0L194 355H302L138 0H30ZM194 355L358 710H466L302 355H194Z"></glyph>
<glyph unicode="Y" horiz-adv-x="496" d="M196 248L361 710H466L301 248H196ZM195 0V248H301V0H195ZM195 248L30 710H151L301 248H195Z"></glyph>
<glyph unicode="Z" horiz-adv-x="482" d="M40 95L318 616H442L164 95H40ZM40 0V95H442V0H40ZM40 616V710H442V616H40Z"></glyph>
<glyph unicode="[" horiz-adv-x="295" d="M50 -119V791H161V-119H50ZM75 -119V-23H295V-119H75ZM75 695V791H295V695H75Z"></glyph>
<glyph unicode="\" horiz-adv-x="355" d="M330 0H231L25 710H124L330 0Z"></glyph>
<glyph unicode="]" horiz-adv-x="295" d="M245 -119H134V791H245V-119ZM220 -119H0V-23H220V-119ZM220 695H0V791H220V695Z"></glyph>
<glyph unicode="^" horiz-adv-x="522" d="M208 710H314L492 359H386L208 710ZM30 359L208 710H314L136 359H30Z"></glyph>
<glyph unicode="_" horiz-adv-x="454" d="M50 -15V81H404V-15H50Z"></glyph>
<glyph unicode="`" horiz-adv-x="313" d="M157 557L70 695H178L243 557H157Z"></glyph>
<glyph unicode="a" horiz-adv-x="491" d="M330 0V339H446V0H330ZM210 -15L225 75Q257 75 280 91T317 139T330 212L382 217Q382 150 359 98T298 15T210 -15ZM210 -15Q163 -15 126 6T67 63T45 146L151 151Q151 118 173 97T225 75L210 -15ZM45 146Q45 192 69 228T136
285T230 307L240 227Q201 227 176 206T151 151L45 146ZM240 227L230 307H372V227H240ZM330 212V334H382V217L330 212ZM446 333H330Q330 377 307 404T246 431V526Q303 526 348 501T420 432T446 333ZM162 347L57 367Q65 415 90 450T156 506T246 526V431Q214 431 191
410T162 347Z"></glyph>
<glyph unicode="b" horiz-adv-x="507" d="M60 509V710H176V509H60ZM176 0H60V510H176V0ZM462 172H346V338H462V172ZM346 338Q346 380 323 405T264 430L296 526Q343 526 380 502T440 435T462 338H346ZM134 333Q134 388 155 432T213 501T296 526L264 430Q225 430
201 404T176 333H134ZM346 172H462Q462 119 440 77T381 10T296 -15L264 81Q300 81 323 106T346 172ZM134 177H176Q176 134 200 108T264 81L296 -15Q250 -15 214 10T156 78T134 177Z"></glyph>
<glyph unicode="c" horiz-adv-x="454" d="M45 193V317H161V193H45ZM45 316Q45 377 71 424T142 498T243 526V432Q205 432 183 402T161 316H45ZM327 347Q322 390 299 411T242 432V526Q293 526 333 507T398 452T431 367L327 347ZM45 194H161Q161 140 183 110T243
79V-16Q187 -16 142 11T71 86T45 194ZM327 163L431 143Q424 96 399 60T333 4T242 -16V79Q275 79 298 100T327 163Z"></glyph>
<glyph unicode="d" horiz-adv-x="507" d="M447 509H331V710H447V509ZM331 0V510H447V0H331ZM45 172V338H161V172H45ZM161 338H45Q45 392 67 434T126 501T211 526L243 430Q207 430 184 405T161 338ZM373 333H331Q331 377 307 403T243 430L211 526Q257 526 294 501T352
432T373 333ZM161 172Q161 131 184 106T243 81L211 -15Q164 -15 127 9T67 76T45 172H161ZM373 177Q373 122 352 79T294 10T211 -15L243 81Q282 81 306 107T331 177H373Z"></glyph>
<glyph unicode="e" horiz-adv-x="468" d="M86 223V297H433V223H86ZM233 -16V79H240V-16H233ZM35 194V316H151V194H35ZM317 297V334H433V297H317ZM433 333H317Q317 377 294 404T233 431V526Q290 526 335 501T407 432T433 333ZM324 163L428 143Q421 96 396 60T330
4T239 -16V79Q272 79 295 100T324 163ZM35 316Q35 376 61 423T132 498T233 526V431Q195 431 173 401T151 316H35ZM35 194H151Q151 140 173 110T233 79V-16Q177 -16 132 11T61 86T35 194Z"></glyph>
<glyph unicode="f" horiz-adv-x="363" d="M83 0V544H199V0H83ZM25 420V510H320V420H25ZM83 543Q83 629 127 677T251 726L264 631Q244 631 230 621T207 591T199 543H83ZM309 614Q299 622 288 626T264 631L251 726Q278 726 303 718T353 692L309 614Z"></glyph>
<glyph unicode="g" horiz-adv-x="507" d="M331 -16V510H447V-16H331ZM45 189V339H161V189H45ZM161 338H45Q45 392 67 434T126 501T211 526L243 430Q207 430 184 405T161 338ZM373 333H331Q331 377 307 403T243 430L211 526Q257 526 294 501T352 432T373 333ZM161
189Q161 148 184 123T243 98L211 2Q164 2 127 26T67 93T45 189H161ZM373 194Q373 139 352 96T294 27T211 2L243 98Q282 98 306 124T331 194H373ZM447 -10Q447 -65 421 -108T349 -177T246 -203V-108Q284 -108 307 -81T331 -10H447ZM162 -24Q167 -65 190 -86T247
-108V-203Q197 -203 157 -183T91 -127T58 -44L162 -24Z"></glyph>
<glyph unicode="h" horiz-adv-x="507" d="M60 0V510H176V0H60ZM346 0V339H462V0H346ZM346 338Q346 380 323 405T264 430L296 526Q343 526 380 502T440 435T462 338H346ZM134 333Q134 388 155 432T213 501T296 526L264 430Q225 430 201 404T176 333H134ZM316 0V726H432V0H316Z"></glyph>
<glyph unicode="i" horiz-adv-x="256" d="M70 0V510H186V0H70ZM128 578Q98 578 79 597T59 647Q59 677 78 697T128 718Q158 718 178 698T199 647Q199 617 179 598T128 578Z"></glyph>
<glyph unicode="j" horiz-adv-x="275" d="M205 1Q205 -85 161 -133T37 -181L24 -87Q45 -87 59 -77T81 -46T89 1H205ZM-21 -70Q-11 -77 0 -82T24 -87L37 -181Q10 -181 -15 -173T-65 -147L-21 -70ZM89 0V510H205V0H89ZM156 579Q126 579 107 598T87 648Q87 678 106
698T156 719Q186 719 206 699T227 648Q227 618 207 599T156 579Z"></glyph>
<glyph unicode="k" horiz-adv-x="471" d="M324 0L144 281L258 310L446 0H324ZM160 170L67 217L299 510H433L160 170ZM60 0V726H176V0H60Z"></glyph>
<glyph unicode="l" horiz-adv-x="256" d="M70 0V726H186V0H70Z"></glyph>
<glyph unicode="m" horiz-adv-x="751" d="M60 0V510H176V0H60ZM325 0V339H441V0H325ZM134 333Q134 388 153 432T206 501T283 526L251 430Q218 430 197 404T176 333H134ZM325 339Q325 380 305 405T251 430L283 526Q328 526 364 502T420 435T441 339H325ZM590 0V339H706V0H590ZM399
333Q399 388 418 432T471 501T548 526L516 430Q483 430 462 404T441 333H399ZM590 339Q590 380 570 405T516 430L548 526Q593 526 629 502T685 435T706 339H590Z"></glyph>
<glyph unicode="n" horiz-adv-x="507" d="M60 0V510H176V0H60ZM346 0V339H462V0H346ZM346 338Q346 380 323 405T264 430L296 526Q343 526 380 502T440 435T462 338H346ZM134 333Q134 388 155 432T213 501T296 526L264 430Q225 430 201 404T176 333H134Z"></glyph>
<glyph unicode="o" horiz-adv-x="471" d="M320 194V316H436V194H320ZM35 194V316H151V194H35ZM232 431V525H240V431H232ZM232 -15V80H240V-15H232ZM35 315Q35 376 61 423T132 497T233 525V431Q195 431 173 401T151 315H35ZM436 315H320Q320 370 299 400T238 431V525Q295
525 339 498T410 423T436 315ZM35 195H151Q151 141 173 111T233 80V-15Q177 -15 132 12T61 87T35 195ZM436 195Q436 135 410 88T340 13T238 -15V80Q277 80 298 110T320 195H436Z"></glyph>
<glyph unicode="p" horiz-adv-x="507" d="M60 2H176V-200H60V2ZM176 510V0H60V510H176ZM462 338V172H346V338H462ZM346 172H462Q462 119 440 77T381 10T296 -15L264 81Q300 81 323 106T346 172ZM134 177H176Q176 134 200 108T264 81L296 -15Q250 -15 214 10T156
78T134 177ZM346 338Q346 380 323 405T264 430L296 526Q343 526 380 502T440 435T462 338H346ZM134 333Q134 388 155 432T213 501T296 526L264 430Q225 430 201 404T176 333H134Z"></glyph>
<glyph unicode="q" horiz-adv-x="507" d="M447 2V-200H331V2H447ZM331 510H447V0H331V510ZM45 338H161V172H45V338ZM161 172Q161 131 184 106T243 81L211 -15Q164 -15 127 9T67 76T45 172H161ZM373 177Q373 122 352 79T294 10T211 -15L243 81Q282 81 306 107T331
177H373ZM161 338H45Q45 392 67 434T126 501T211 526L243 430Q207 430 184 405T161 338ZM373 333H331Q331 377 307 403T243 430L211 526Q257 526 294 501T352 432T373 333Z"></glyph>
<glyph unicode="r" horiz-adv-x="388" d="M60 0V510H176V0H60ZM134 321Q134 379 152 424T204 496T278 523L251 417Q217 417 197 391T176 321H134ZM319 386Q304 400 286 408T251 417L278 523Q302 523 322 514T363 485L319 386Z"></glyph>
<glyph unicode="s" horiz-adv-x="446" d="M299 135Q299 157 281 172T234 200T173 226T113 259T66 306T47 375Q47 375 58 375T86 375T119 375T147 375T158 375Q158 353 176 338T223 311T284 285T345 252T392 205T410 135Q410 135 399 135T372 135T339 135T311 135T299
135ZM224 -15V79Q257 79 278 95T299 135H410Q410 90 387 56T322 4T224 -15ZM47 375Q47 419 70 453T132 506T222 526V432Q195 432 177 416T158 375H47ZM140 164Q145 122 168 101T224 79V-15Q175 -15 135 4T69 60T35 144L140 164ZM306 347Q301 390 278 411T221 432V526Q272
526 312 507T377 452T410 367L306 347Z"></glyph>
<glyph unicode="t" horiz-adv-x="383" d="M93 166V711L209 710V166H93ZM35 420V510H335V420H35ZM93 167H209Q209 140 217 120T239 90T274 79L261 -15Q182 -15 138 33T93 167ZM319 96L363 19Q339 1 314 -7T261 -15L274 79Q287 79 298 84T319 96Z"></glyph>
<glyph unicode="u" horiz-adv-x="507" d="M447 510V0H331V510H447ZM161 510V172H45V510H161ZM161 172Q161 131 184 106T243 81L211 -15Q164 -15 127 9T67 76T45 172H161ZM373 177Q373 122 352 79T294 10T211 -15L243 81Q282 81 306 107T331 177H373Z"></glyph>
<glyph unicode="v" horiz-adv-x="501" d="M209 0L355 510H471L310 0H209ZM191 0L30 510H147L293 0H191Z"></glyph>
<glyph unicode="w" horiz-adv-x="732" d="M465 0L586 510H702L567 0H465ZM166 0L30 510H147L267 0H166ZM193 0L319 510H413L282 0H193ZM450 0L320 510H414L539 0H450Z"></glyph>
<glyph unicode="x" horiz-adv-x="477" d="M326 0L30 510H151L447 0H326ZM30 0L178 255H299L151 0H30ZM178 255L326 510H447L299 255H178Z"></glyph>
<glyph unicode="y" horiz-adv-x="502" d="M68 -183L94 -90Q134 -101 159 -89T197 -37H299Q268 -135 211 -170T68 -183ZM197 -37L355 510H472L299 -37H197ZM208 -54L30 510H147L264 108L208 -54Z"></glyph>
<glyph unicode="z" horiz-adv-x="450" d="M55 98L270 412H395L181 98H55ZM55 0V98H395V0H55ZM55 412V510H395V412H55Z"></glyph>
<glyph unicode="{" horiz-adv-x="330" d="M132 491V588H248V491H132ZM132 70V167H248V70H132ZM132 588Q132 649 158 696T229 770T330 798V704Q292 704 270 674T248 588H132ZM132 71H248Q248 16 270 -14T330 -45V-139Q274 -139 229 -112T158 -37T132 71ZM248 492Q248
432 222 385T152 310T50 282V376Q89 376 110 406T132 492H248ZM248 167H132Q132 222 111 252T50 282V377Q107 377 151 350T222 275T248 167Z"></glyph>
<glyph unicode="|" horiz-adv-x="253" d="M70 -96V784H183V-96H70Z"></glyph>
<glyph unicode="}" horiz-adv-x="330" d="M198 491H82V588H198V491ZM198 70H82V167H198V70ZM198 588H82Q82 643 61 673T0 704V798Q57 798 101 771T172 696T198 588ZM198 71Q198 11 172 -36T102 -111T0 -139V-45Q39 -45 60 -15T82 71H198ZM82 492H198Q198 437 220
407T280 376V282Q224 282 179 309T108 384T82 492ZM82 167Q82 227 108 274T179 349T280 377V282Q242 282 220 252T198 167H82Z"></glyph>
<glyph unicode="~" horiz-adv-x="512" d="M348 215Q321 215 301 223T264 243T232 267T201 287T164 295V379Q191 379 211 371T248 351T280 327T311 307T348 299V215ZM30 252Q32 311 67 345T164 379V295Q143 295 131 284T117 252H30ZM348 215V299Q370 299 382 310T395
342H482Q481 284 445 250T348 215Z"></glyph>
<glyph unicode="&#xa0;" horiz-adv-x="195"></glyph>
<glyph unicode="&#xa1;" horiz-adv-x="240" d="M119 708Q149 708 169 689T190 639Q190 610 170 590T119 569Q89 569 70 589T50 639Q50 669 69 688T119 708ZM73 484H167L178 -10H62L73 484Z"></glyph>
<glyph unicode="&#xa2;" horiz-adv-x="415" d="M172 5V142H266V5H172ZM172 540V677H265V540H172ZM45 286V397H149V286H45ZM45 396Q45 451 68 493T131 560T223 585V501Q188 501 169 474T149 396H45ZM298 425Q293 463 272 482T222 501V585Q267 585 303 568T362 518T392
442L298 425ZM45 287H149Q149 238 168 211T223 183V98Q172 98 132 122T68 190T45 287ZM298 259L392 241Q386 198 363 166T303 116T222 98V183Q251 183 272 202T298 259Z"></glyph>
<glyph unicode="&#xa3;" horiz-adv-x="547" d="M162 484Q162 594 224 656T397 718L398 625Q360 626 334 609T293 561T278 484H162ZM72 0V95H507V0H72ZM162 192V484H278V192H162ZM69 315V405H434V315H69ZM467 603Q451 615 435 620T398 625L397 718Q427 718 456
710T506 687L467 603ZM278 193Q278 138 252 95T180 26T77 0V95Q115 95 138 122T162 193H278Z"></glyph>
<glyph unicode="&#xa4;" horiz-adv-x="552" d="M397 399L332 465L437 570L502 504L397 399ZM116 118L50 184L155 288L221 222L116 118ZM155 399L50 504L116 570L221 465L155 399ZM437 118L332 222L397 288L502 184L437 118ZM277 181V269Q305 269 323 290T341 344H446Q446
298 424 261T364 203T277 181ZM277 181Q229 181 192 202T132 261T110 344H214Q214 312 232 291T277 269V181ZM110 344Q110 391 132 427T191 485T277 507V419Q250 419 232 398T214 344H110ZM341 344Q341 377 323 398T277 419V507Q326 507 364 486T424 428T446 344H341Z"></glyph>
<glyph unicode="&#xa5;" horiz-adv-x="560" d="M70 279V359H464V279H70ZM70 150V230H464V150H70ZM229 248L394 710H500L335 248H229ZM229 0V248H335V0H229ZM229 248L64 710H185L335 248H229Z"></glyph>
<glyph unicode="&#xa6;" horiz-adv-x="253" d="M70 387V777H183V387H70ZM70 -103V287H183V-103H70Z"></glyph>
<glyph unicode="&#xa7;" horiz-adv-x="454" d="M307 323Q307 345 289 360T242 387T181 414T120 446T73 493T55 563Q55 563 66 563T93 563T126 563T154 563T166 563Q166 541 184 526T231 499T292 472T352 439T399 393T418 323Q418 323 407 323T379 323T346 323T318
323T307 323ZM231 172V267Q265 267 286 282T307 323H418Q418 278 395 244T330 191T231 172ZM55 563Q55 606 77 640T140 694T229 714V619Q202 619 184 603T166 563H55ZM147 351Q152 310 175 289T232 267V172Q182 172 142 192T76 248T43 331L147 351ZM313 535Q308
577 285 598T229 619V714Q279 714 319 694T385 639T418 555L313 535ZM147 329Q147 307 165 292T212 264T273 238T334 205T381 158T399 89Q399 89 388 89T361 89T328 89T300 89T288 89Q288 111 270 126T223 153T162 179T102 212T55 259T36 329Q36 329 47 329T75
329T108 329T136 329T147 329ZM223 479V385Q190 385 169 370T147 329H36Q36 374 59 408T125 460T223 479ZM399 89Q399 45 377 11T315 -42T225 -62V32Q252 32 270 48T288 89H399ZM307 300Q302 343 279 364T222 385V479Q273 479 313 460T378 405T411 320L307 300ZM141
117Q146 75 169 54T225 32V-62Q176 -62 136 -43T70 13T36 97L141 117ZM307 323Q307 345 289 360T242 387T181 414T120 446T73 493T55 563Q55 563 66 563T93 563T126 563T154 563T166 563Q166 541 184 526T231 499T292 472T352 439T399 393T418 323Q418 323 407
323T379 323T346 323T318 323T307 323ZM231 172V267Q265 267 286 282T307 323H418Q418 278 395 244T330 191T231 172ZM55 563Q55 606 77 640T140 694T229 714V619Q202 619 184 603T166 563H55ZM147 351Q152 310 175 289T232 267V172Q182 172 142 192T76 248T43
331L147 351ZM313 535Q308 577 285 598T229 619V714Q279 714 319 694T385 639T418 555L313 535Z"></glyph>
<glyph unicode="&#xa8;" horiz-adv-x="422" d="M128 535Q103 535 87 551T70 593Q70 618 86 635T128 652Q152 652 169 635T187 593Q187 568 170 552T128 535ZM293 535Q268 535 252 551T235 593Q235 618 251 635T293 652Q317 652 334 635T352 593Q352 568 335 552T293 535Z"></glyph>
<glyph unicode="&#xa9;" horiz-adv-x="790" d="M648 379Q648 463 618 523T530 616T394 649V731Q502 731 580 688T702 566T745 379H648ZM394 -43Q286 -43 208 0T88 122T45 309H142Q142 225 173 165T260 72T394 39V-43ZM45 309V379H142V309H45ZM394 -43V39Q473 39
530 71T617 164T648 309H745Q745 201 702 122T581 0T394 -43ZM45 379Q45 487 87 566T208 688T394 731V649Q317 649 261 617T173 524T142 379H45ZM648 309V379H745V309H648ZM249 295V393H338V295H249ZM249 392Q249 439 269 476T324 534T403 555V483Q373 483 356
459T338 392H249ZM469 416Q465 449 447 466T402 483V555Q460 555 500 521T549 432L469 416ZM249 296H338Q338 253 355 230T403 206V133Q359 133 325 154T270 212T249 296ZM469 272L549 256Q541 201 501 167T402 133V206Q428 206 446 222T469 272Z"></glyph>
<glyph unicode="&#xaa;" horiz-adv-x="391" d="M259 319V573H346V319H259ZM169 308L180 376Q203 376 221 388T249 423T259 478L298 482Q298 431 281 392T235 331T169 308ZM169 308Q134 308 106 323T61 366T45 429L124 432Q124 408 141 392T180 376L169 308ZM45
429Q45 463 63 490T112 533T184 549L191 489Q161 489 143 474T124 432L45 429ZM191 489L184 549H290V489H191ZM259 478V570H298V482L259 478ZM346 569H259Q259 602 242 622T196 643V713Q239 713 273 695T326 643T346 569ZM132 579L54 594Q62 648 101 680T196 713V643Q171
643 154 627T132 579Z"></glyph>
<glyph unicode="&#xab;" horiz-adv-x="645" d="M125 214V337L360 523V406L125 214ZM125 179L20 258L125 337V179ZM360 -7L125 179V302L360 110V-7ZM390 214V337L625 523V406L390 214ZM390 179L285 258L390 337V179ZM625 -7L390 179V302L625 110V-7Z"></glyph>
<glyph unicode="&#xac;" horiz-adv-x="485" d="M35 342V438H450V342H35ZM334 213V438H450V213H334Z"></glyph>
<glyph unicode="&#xad;" horiz-adv-x="395" d="M50 281V377H345V281H50Z"></glyph>
<glyph unicode="&#xae;" horiz-adv-x="533" d="M267 229Q199 229 150 257T73 337T45 461H106Q106 407 125 366T181 303T267 281V229ZM45 461V493H106V461H45ZM267 229V281Q317 281 353 303T408 366T427 461H488Q488 389 461 337T385 257T267 229ZM45 493Q46 564
73 616T149 696T267 724V672Q218 672 182 650T126 587T106 493H45ZM427 461V493H488V461H427ZM427 493Q427 547 408 587T353 649T267 672V724Q336 724 385 696T461 616T488 493H427ZM195 338V615H245V338H195ZM312 338L259 470H309L362 338H312ZM235 449V486H270V449H235ZM235
578V615H270V578H235ZM308 525V539H358V525H308ZM358 539H308Q308 557 298 567T269 578V615Q308 615 333 594T358 539ZM358 525Q358 492 333 471T269 449V486Q288 486 298 496T308 525H358Z"></glyph>
<glyph unicode="&#xaf;" horiz-adv-x="435" d="M70 637V710H365V637H70Z"></glyph>
<glyph unicode="&#xb0;" horiz-adv-x="403" d="M201 482V561Q227 561 243 580T259 629H353Q353 588 333 555T279 502T201 482ZM201 482Q158 482 124 501T70 554T50 629H144Q144 600 160 581T201 561V482ZM50 629Q50 671 70 704T124 756T201 775V696Q177 696 161
677T144 629H50ZM259 629Q259 658 243 677T201 696V775Q245 775 279 756T333 704T353 629H259Z"></glyph>
<glyph unicode="&#xb1;" horiz-adv-x="475" d="M183 201V616H292V201H183ZM30 362V458H445V362H30ZM30 40V136H445V40H30Z"></glyph>
<glyph unicode="&#xb2;" horiz-adv-x="285" d="M63 497Q63 532 75 555T104 594T138 625T166 655T178 696Q178 696 186 696T204 696T222 696T230 696Q230 663 219 642T190 606T155 576T126 543T114 497H63ZM63 453V497H229V453H63ZM102 701L55 711Q60 743 83 762T140
782V740Q126 740 116 730T102 701ZM230 695H178Q178 715 168 727T140 740V782Q179 782 204 758T230 695Z"></glyph>
<glyph unicode="&#xb3;" horiz-adv-x="287" d="M139 599V641Q155 641 164 654T174 691H226Q226 649 203 624T139 599ZM179 532V555H232V532H179ZM112 599V641H140V599H112ZM174 690Q174 711 165 724T139 737V780Q179 780 202 756T226 690H174ZM232 533Q232 495
206 471T142 446V489Q158 489 168 501T179 533H232ZM232 555H179Q179 574 169 586T142 599V641Q180 641 206 617T232 555ZM102 699L55 708Q60 740 83 760T140 780V737Q125 737 115 728T102 699ZM104 527Q107 508 117 499T142 489V446Q108 446 85 465T57 517L104
527Z"></glyph>
<glyph unicode="&#xb4;" horiz-adv-x="313" d="M156 557H70L135 695H243L156 557Z"></glyph>
<glyph unicode="&#xb5;" horiz-adv-x="507" d="M346 0L331 77V510H447V0H346ZM161 162Q161 121 184 96T243 71L211 -25Q164 -25 127 -1T67 66T45 162H161ZM373 167Q373 112 352 69T294 0T211 -25L243 71Q282 71 306 97T331 167H373ZM45 -200V510H161V-200H45Z"></glyph>
<glyph unicode="&#xb6;" horiz-adv-x="594" d="M233 315Q178 315 133 342T62 415T35 518Q35 574 61 618T133 689T233 715V315ZM233 -200V715H339V-200H233ZM428 -200V715H534V-200H428ZM233 619V715H489V619H233Z"></glyph>
<glyph unicode="&#xb7;" horiz-adv-x="240" d="M119 279Q89 279 70 298T50 348Q50 378 69 398T119 419Q149 419 169 399T190 348Q190 318 170 299T119 279Z"></glyph>
<glyph unicode="&#xb8;" horiz-adv-x="354" d="M173 -175Q143 -175 118 -168T70 -149L94 -90Q122 -100 143 -102T175 -95T179 -61H283Q290 -118 259 -146T173 -175ZM179 -61Q173 -38 166 -22T150 10H255Q264 -3 271 -19T283 -61H179Z"></glyph>
<glyph unicode="&#xb9;" horiz-adv-x="192" d="M84 453V773H137V453H84ZM48 669L18 700L84 773V709L48 669Z"></glyph>
<glyph unicode="&#xba;" horiz-adv-x="391" d="M259 477V568H346V477H259ZM45 477V568H133V477H45ZM193 654V725H199V654H193ZM193 320V391H199V320H193ZM45 567Q45 613 64 648T118 704T194 725V654Q165 654 149 632T133 567H45ZM346 567H259Q259 609 243 631T198
654V725Q240 725 273 705T326 649T346 567ZM45 478H133Q133 436 149 414T194 391V320Q152 320 118 340T65 396T45 478ZM346 478Q346 432 327 397T274 341T198 320V391Q227 391 243 413T259 478H346Z"></glyph>
<glyph unicode="&#xbb;" horiz-adv-x="645" d="M520 214L285 406V523L520 337V214ZM520 179V337L625 258L520 179ZM285 -7V110L520 302V179L285 -7ZM255 214L20 406V523L255 337V214ZM255 179V337L360 258L255 179ZM20 -7V110L255 302V179L20 -7Z"></glyph>
<glyph unicode="&#xbc;" horiz-adv-x="834" d="M116 297V766H192V297H116ZM62 614L18 659L116 766V673L62 614ZM492 156L607 469H684L569 156H492ZM492 93V156H779V93H492ZM659 0V263H731V0H659ZM197 -15L508 791H578L267 -15H197Z"></glyph>
<glyph unicode="&#xbd;" horiz-adv-x="844" d="M116 297V766H192V297H116ZM62 614L18 659L116 766V673L62 614ZM544 64Q545 115 562 149T604 207T654 252T696 297T713 356Q713 356 724 356T751 356T777 356T789 356Q789 308 772 277T730 223T680 180T637 132T619
64H544ZM544 0V64H787V0H544ZM602 364L533 378Q540 425 574 454T658 483V420Q636 420 621 406T602 364ZM789 356H713Q713 384 698 402T657 420V483Q695 483 725 466T772 421T789 356ZM197 -15L508 791H578L267 -15H197Z"></glyph>
<glyph unicode="&#xbe;" horiz-adv-x="957" d="M179 511V573Q202 573 216 593T230 645H307Q307 584 272 548T179 511ZM238 413V446H315V413H238ZM140 511V573H180V511H140ZM230 645Q230 676 216 694T179 713V776Q237 776 272 740T307 645H230ZM315 414Q315 377
298 349T250 303T183 286V349Q208 349 223 367T238 414H315ZM315 446H238Q238 475 223 493T183 511V573Q220 573 250 557T297 511T315 446ZM124 658L55 671Q62 718 96 747T180 776V713Q158 713 143 700T124 658ZM127 405Q131 377 146 363T184 349V286Q134 286 100
315T59 392L127 405ZM615 156L730 469H807L692 156H615ZM615 93V156H902V93H615ZM782 0V263H854V0H782ZM320 -15L631 791H701L390 -15H320Z"></glyph>
<glyph unicode="&#xbf;" horiz-adv-x="455" d="M249 718Q279 718 298 699T318 649Q318 620 299 600T249 579Q220 579 200 599T179 649Q179 679 199 698T249 718ZM305 496Q305 442 291 404T255 337T213 283T178 232T163 170Q163 126 183 105T240 83Q261 83 275
92T297 120T304 168H420Q420 115 397 74T334 9T240 -15Q185 -15 142 9T75 74T50 170Q50 212 64 241T100 296T142 349T177 411T192 496H305ZM305 519V496H192V519H305Z"></glyph>
<glyph unicode="&#xc0;" horiz-adv-x="524" d="M149 131V226H404V131H149ZM318 710L143 0H30L205 710H318ZM320 710L494 0H381L207 710H320ZM205 757L118 895H226L291 757H205Z"></glyph>
<glyph unicode="&#xc1;" horiz-adv-x="524" d="M279 757H193L258 895H366L279 757ZM149 131V226H404V131H149ZM318 710L143 0H30L205 710H318ZM320 710L494 0H381L207 710H320Z"></glyph>
<glyph unicode="&#xc2;" horiz-adv-x="524" d="M202 905H288L223 767H115L202 905ZM317 905L404 767H296L231 905H317ZM149 131V226H404V131H149ZM318 710L143 0H30L205 710H318ZM320 710L494 0H381L207 710H320Z"></glyph>
<glyph unicode="&#xc3;" horiz-adv-x="524" d="M149 131V226H404V131H149ZM318 710L143 0H30L205 710H318ZM320 710L494 0H381L207 710H320ZM318 779Q294 779 279 787T253 805T231 824T203 832V897Q228 897 243 889T268 871T290 852T318 844V779ZM104 795Q104
843 130 870T203 897V832Q191 832 184 823T177 795H104ZM318 779V844Q330 844 337 854T344 881H417Q417 833 391 806T318 779Z"></glyph>
<glyph unicode="&#xc4;" horiz-adv-x="524" d="M149 131V226H404V131H149ZM318 710L143 0H30L205 710H318ZM320 710L494 0H381L207 710H320ZM177 765Q152 765 136 781T119 823Q119 848 135 865T177 882Q201 882 218 865T236 823Q236 798 219 782T177 765ZM342
765Q317 765 301 781T284 823Q284 848 300 865T342 882Q366 882 383 865T401 823Q401 798 384 782T342 765Z"></glyph>
<glyph unicode="&#xc5;" horiz-adv-x="524" d="M149 131V226H404V131H149ZM318 710L143 0H30L205 710H318ZM320 710L494 0H381L207 710H320ZM291 859Q291 873 283 883T260 893V951Q303 951 331 925T359 859H291ZM260 768Q218 768 190 794T161 859H229Q229 845
238 836T260 826V768ZM260 768V826Q274 826 282 835T291 859H359Q359 821 331 795T260 768ZM161 859Q161 899 189 925T260 951V893Q247 893 238 883T229 859H161Z"></glyph>
<glyph unicode="&#xc6;" horiz-adv-x="738" d="M235 616L252 710H446L429 616H235ZM116 143L123 227H428L421 143H116ZM30 0L215 710H328L143 0H30ZM439 306V402H638V306H439ZM353 710H469V0H353V710ZM439 710H688V616H439V710ZM429 0V95H698V0H429Z"></glyph>
<glyph unicode="&#xc7;" horiz-adv-x="504" d="M50 179V532H166V179H50ZM50 531Q50 588 77 632T151 701T260 726V632Q216 632 191 606T166 531H50ZM50 179H166Q166 132 191 106T260 79V-16Q199 -16 152 9T77 78T50 179ZM369 503Q364 563 335 597T259 632V726Q350
726 407 673T474 522L369 503ZM369 208L474 188Q464 92 407 38T259 -16V79Q306 79 335 113T369 208ZM288 -175Q258 -175 233 -168T185 -149L209 -90Q237 -100 258 -102T290 -95T294 -61H398Q405 -118 374 -146T288 -175ZM294 -61Q288 -38 281 -22T265 10H370Q379
-3 386 -19T398 -61H294Z"></glyph>
<glyph unicode="&#xc8;" horiz-adv-x="445" d="M136 0V95H405V0H136ZM146 306V402H345V306H146ZM60 710H176V0H60V710ZM146 710H395V616H146V710ZM168 757L81 895H189L254 757H168Z"></glyph>
<glyph unicode="&#xc9;" horiz-adv-x="445" d="M242 757H156L221 895H329L242 757ZM136 0V95H405V0H136ZM146 306V402H345V306H146ZM60 710H176V0H60V710ZM146 710H395V616H146V710Z"></glyph>
<glyph unicode="&#xca;" horiz-adv-x="445" d="M165 905H251L186 767H78L165 905ZM280 905L367 767H259L194 905H280ZM136 0V95H405V0H136ZM146 306V402H345V306H146ZM60 710H176V0H60V710ZM146 710H395V616H146V710Z"></glyph>
<glyph unicode="&#xcb;" horiz-adv-x="445" d="M136 0V95H405V0H136ZM146 306V402H345V306H146ZM60 710H176V0H60V710ZM146 710H395V616H146V710ZM140 765Q115 765 99 781T82 823Q82 848 98 865T140 882Q164 882 181 865T199 823Q199 798 182 782T140 765ZM305
765Q280 765 264 781T247 823Q247 848 263 865T305 882Q329 882 346 865T364 823Q364 798 347 782T305 765Z"></glyph>
<glyph unicode="&#xcc;" horiz-adv-x="256" d="M70 0V710H186V0H70ZM73 757L-14 895H94L159 757H73Z"></glyph>
<glyph unicode="&#xcd;" horiz-adv-x="256" d="M147 757H61L126 895H234L147 757ZM70 0V710H186V0H70Z"></glyph>
<glyph unicode="&#xce;" horiz-adv-x="256" d="M70 905H156L91 767H-17L70 905ZM185 905L272 767H164L99 905H185ZM70 0V710H186V0H70Z"></glyph>
<glyph unicode="&#xcf;" horiz-adv-x="256" d="M70 0V710H186V0H70ZM45 765Q20 765 4 781T-13 823Q-13 848 3 865T45 882Q69 882 86 865T104 823Q104 798 87 782T45 765ZM210 765Q185 765 169 781T152 823Q152 848 168 865T210 882Q234 882 251 865T269 823Q269
798 252 782T210 765Z"></glyph>
<glyph unicode="&#xd0;" horiz-adv-x="505" d="M334 194V516H450V194H334ZM151 0V95H240V0H151ZM151 616V710H240V616H151ZM151 616V710H240V616H151ZM450 515H334Q334 563 309 589T240 616V710Q302 710 349 685T423 616T450 515ZM450 195Q450 138 423 94T349
25T240 0V95Q284 95 309 121T334 195H450ZM60 0V710H176V0H60ZM228 318V394H493V318H228Z"></glyph>
<glyph unicode="&#xd1;" horiz-adv-x="569" d="M364 0L81 710H187L469 0H364ZM60 0V710H176V0H60ZM393 0V710H509V0H393ZM322 779Q298 779 283 787T257 805T235 824T207 832V897Q232 897 247 889T272 871T294 852T322 844V779ZM108 795Q108 843 134 870T207 897V832Q195
832 188 823T181 795H108ZM322 779V844Q334 844 341 854T348 881H421Q421 833 395 806T322 779Z"></glyph>
<glyph unicode="&#xd2;" horiz-adv-x="529" d="M358 179V532H474V179H358ZM55 179V532H171V179H55ZM474 530H358Q358 578 333 604T264 631V725Q326 725 373 700T447 631T474 530ZM55 530Q55 587 82 631T156 700T265 725V631Q221 631 196 605T171 530H55ZM474 180Q474
123 447 79T373 10T264 -15V80Q308 80 333 106T358 180H474ZM55 180H171Q171 133 196 107T265 80V-15Q204 -15 157 10T82 79T55 180ZM210 757L123 895H231L296 757H210Z"></glyph>
<glyph unicode="&#xd3;" horiz-adv-x="529" d="M284 757H198L263 895H371L284 757ZM358 179V532H474V179H358ZM55 179V532H171V179H55ZM474 530H358Q358 578 333 604T264 631V725Q326 725 373 700T447 631T474 530ZM55 530Q55 587 82 631T156 700T265 725V631Q221
631 196 605T171 530H55ZM474 180Q474 123 447 79T373 10T264 -15V80Q308 80 333 106T358 180H474ZM55 180H171Q171 133 196 107T265 80V-15Q204 -15 157 10T82 79T55 180Z"></glyph>
<glyph unicode="&#xd4;" horiz-adv-x="529" d="M207 905H293L228 767H120L207 905ZM322 905L409 767H301L236 905H322ZM358 179V532H474V179H358ZM55 179V532H171V179H55ZM474 530H358Q358 578 333 604T264 631V725Q326 725 373 700T447 631T474 530ZM55 530Q55
587 82 631T156 700T265 725V631Q221 631 196 605T171 530H55ZM474 180Q474 123 447 79T373 10T264 -15V80Q308 80 333 106T358 180H474ZM55 180H171Q171 133 196 107T265 80V-15Q204 -15 157 10T82 79T55 180Z"></glyph>
<glyph unicode="&#xd5;" horiz-adv-x="529" d="M358 179V532H474V179H358ZM55 179V532H171V179H55ZM474 530H358Q358 578 333 604T264 631V725Q326 725 373 700T447 631T474 530ZM55 530Q55 587 82 631T156 700T265 725V631Q221 631 196 605T171 530H55ZM474 180Q474
123 447 79T373 10T264 -15V80Q308 80 333 106T358 180H474ZM55 180H171Q171 133 196 107T265 80V-15Q204 -15 157 10T82 79T55 180ZM322 779Q298 779 283 787T257 805T235 824T207 832V897Q232 897 247 889T272 871T294 852T322 844V779ZM108 795Q108 843 134
870T207 897V832Q195 832 188 823T181 795H108ZM322 779V844Q334 844 341 854T348 881H421Q421 833 395 806T322 779Z"></glyph>
<glyph unicode="&#xd6;" horiz-adv-x="529" d="M358 179V532H474V179H358ZM55 179V532H171V179H55ZM474 530H358Q358 578 333 604T264 631V725Q326 725 373 700T447 631T474 530ZM55 530Q55 587 82 631T156 700T265 725V631Q221 631 196 605T171 530H55ZM474 180Q474
123 447 79T373 10T264 -15V80Q308 80 333 106T358 180H474ZM55 180H171Q171 133 196 107T265 80V-15Q204 -15 157 10T82 79T55 180ZM182 765Q157 765 141 781T124 823Q124 848 140 865T182 882Q206 882 223 865T241 823Q241 798 224 782T182 765ZM347 765Q322
765 306 781T289 823Q289 848 305 865T347 882Q371 882 388 865T406 823Q406 798 389 782T347 765Z"></glyph>
<glyph unicode="&#xd7;" horiz-adv-x="424" d="M317 147L31 434L107 510L394 224L317 147ZM98 149L30 217L324 510L392 442L98 149Z"></glyph>
<glyph unicode="&#xd8;" horiz-adv-x="529" d="M358 179V532H474V179H358ZM55 179V532H171V179H55ZM474 530H358Q358 578 333 604T264 631V725Q326 725 373 700T447 631T474 530ZM55 530Q55 587 82 631T156 700T265 725V631Q221 631 196 605T171 530H55ZM474 180Q474
123 447 79T373 10T264 -15V80Q308 80 333 106T358 180H474ZM55 180H171Q171 133 196 107T265 80V-15Q204 -15 157 10T82 79T55 180ZM101 -48L371 758H428L158 -48H101Z"></glyph>
<glyph unicode="&#xd9;" horiz-adv-x="538" d="M362 179V710H478V179H362ZM60 179V710H176V179H60ZM478 180Q478 123 451 79T377 10T268 -15V79Q312 79 337 105T362 180H478ZM60 180H176Q176 132 201 106T270 79V-15Q209 -15 162 10T87 79T60 180ZM214 757L127
895H235L300 757H214Z"></glyph>
<glyph unicode="&#xda;" horiz-adv-x="538" d="M288 757H202L267 895H375L288 757ZM362 179V710H478V179H362ZM60 179V710H176V179H60ZM478 180Q478 123 451 79T377 10T268 -15V79Q312 79 337 105T362 180H478ZM60 180H176Q176 132 201 106T270 79V-15Q209 -15
162 10T87 79T60 180Z"></glyph>
<glyph unicode="&#xdb;" horiz-adv-x="538" d="M211 905H297L232 767H124L211 905ZM326 905L413 767H305L240 905H326ZM362 179V710H478V179H362ZM60 179V710H176V179H60ZM478 180Q478 123 451 79T377 10T268 -15V79Q312 79 337 105T362 180H478ZM60 180H176Q176
132 201 106T270 79V-15Q209 -15 162 10T87 79T60 180Z"></glyph>
<glyph unicode="&#xdc;" horiz-adv-x="538" d="M362 179V710H478V179H362ZM60 179V710H176V179H60ZM478 180Q478 123 451 79T377 10T268 -15V79Q312 79 337 105T362 180H478ZM60 180H176Q176 132 201 106T270 79V-15Q209 -15 162 10T87 79T60 180ZM186 765Q161
765 145 781T128 823Q128 848 144 865T186 882Q210 882 227 865T245 823Q245 798 228 782T186 765ZM351 765Q326 765 310 781T293 823Q293 848 309 865T351 882Q375 882 392 865T410 823Q410 798 393 782T351 765Z"></glyph>
<glyph unicode="&#xdd;" horiz-adv-x="496" d="M267 767H181L246 905H354L267 767ZM196 248L361 710H466L301 248H196ZM195 0V248H301V0H195ZM195 248L30 710H151L301 248H195Z"></glyph>
<glyph unicode="&#xde;" horiz-adv-x="470" d="M146 481V576H230V481H146ZM146 134V229H230V134H146ZM324 329V381H440V329H324ZM440 381H324Q324 429 299 455T230 481V576Q292 576 339 551T413 482T440 381ZM440 329Q440 272 413 228T339 159T230 134V229Q274
229 299 255T324 329H440ZM60 0V710H176V0H60Z"></glyph>
<glyph unicode="&#xdf;" horiz-adv-x="521" d="M60 0V513H170V0H60ZM217 -7L232 84H279V-7H217ZM222 307V398H273V307H222ZM366 174V217H476V174H366ZM346 488V514H456V488H346ZM60 513Q60 568 85 609T155 673T258 696V604Q218 604 194 579T170 513H60ZM456 513H346Q346
554 322 579T258 604V696Q317 696 361 673T431 609T456 513ZM456 489Q456 435 431 394T362 330T258 307V398Q298 398 322 423T346 489H456ZM476 216H366Q366 257 342 282T278 307V398Q337 398 381 376T451 312T476 216ZM476 175Q476 121 451 80T382 16T278 -7V84Q318
84 342 109T366 175H476Z"></glyph>
<glyph unicode="&#xe0;" horiz-adv-x="491" d="M330 0V339H446V0H330ZM210 -15L225 75Q257 75 280 91T317 139T330 212L382 217Q382 150 359 98T298 15T210 -15ZM210 -15Q163 -15 126 6T67 63T45 146L151 151Q151 118 173 97T225 75L210 -15ZM45 146Q45 192 69
228T136 285T230 307L240 227Q201 227 176 206T151 151L45 146ZM240 227L230 307H372V227H240ZM330 212V334H382V217L330 212ZM446 333H330Q330 377 307 404T246 431V526Q303 526 348 501T420 432T446 333ZM162 347L57 367Q65 415 90 450T156 506T246 526V431Q214
431 191 410T162 347ZM188 562L101 700H209L274 562H188Z"></glyph>
<glyph unicode="&#xe1;" horiz-adv-x="491" d="M262 562H176L241 700H349L262 562ZM330 0V339H446V0H330ZM210 -15L225 75Q257 75 280 91T317 139T330 212L382 217Q382 150 359 98T298 15T210 -15ZM210 -15Q163 -15 126 6T67 63T45 146L151 151Q151 118 173 97T225
75L210 -15ZM45 146Q45 192 69 228T136 285T230 307L240 227Q201 227 176 206T151 151L45 146ZM240 227L230 307H372V227H240ZM330 212V334H382V217L330 212ZM446 333H330Q330 377 307 404T246 431V526Q303 526 348 501T420 432T446 333ZM162 347L57 367Q65 415
90 450T156 506T246 526V431Q214 431 191 410T162 347Z"></glyph>
<glyph unicode="&#xe2;" horiz-adv-x="491" d="M185 710H271L206 572H98L185 710ZM300 710L387 572H279L214 710H300ZM330 0V339H446V0H330ZM210 -15L225 75Q257 75 280 91T317 139T330 212L382 217Q382 150 359 98T298 15T210 -15ZM210 -15Q163 -15 126 6T67
63T45 146L151 151Q151 118 173 97T225 75L210 -15ZM45 146Q45 192 69 228T136 285T230 307L240 227Q201 227 176 206T151 151L45 146ZM240 227L230 307H372V227H240ZM330 212V334H382V217L330 212ZM446 333H330Q330 377 307 404T246 431V526Q303 526 348 501T420
432T446 333ZM162 347L57 367Q65 415 90 450T156 506T246 526V431Q214 431 191 410T162 347Z"></glyph>
<glyph unicode="&#xe3;" horiz-adv-x="491" d="M330 0V339H446V0H330ZM210 -15L225 75Q257 75 280 91T317 139T330 212L382 217Q382 150 359 98T298 15T210 -15ZM210 -15Q163 -15 126 6T67 63T45 146L151 151Q151 118 173 97T225 75L210 -15ZM45 146Q45 192 69
228T136 285T230 307L240 227Q201 227 176 206T151 151L45 146ZM240 227L230 307H372V227H240ZM330 212V334H382V217L330 212ZM446 333H330Q330 377 307 404T246 431V526Q303 526 348 501T420 432T446 333ZM162 347L57 367Q65 415 90 450T156 506T246 526V431Q214
431 191 410T162 347ZM301 584Q277 584 262 592T236 610T214 629T186 637V702Q211 702 226 694T251 676T273 657T301 649V584ZM87 600Q87 648 113 675T186 702V637Q174 637 167 628T160 600H87ZM301 584V649Q313 649 320 659T327 686H400Q400 638 374 611T301 584Z"></glyph>
<glyph unicode="&#xe4;" horiz-adv-x="491" d="M330 0V339H446V0H330ZM210 -15L225 75Q257 75 280 91T317 139T330 212L382 217Q382 150 359 98T298 15T210 -15ZM210 -15Q163 -15 126 6T67 63T45 146L151 151Q151 118 173 97T225 75L210 -15ZM45 146Q45 192 69
228T136 285T230 307L240 227Q201 227 176 206T151 151L45 146ZM240 227L230 307H372V227H240ZM330 212V334H382V217L330 212ZM446 333H330Q330 377 307 404T246 431V526Q303 526 348 501T420 432T446 333ZM162 347L57 367Q65 415 90 450T156 506T246 526V431Q214
431 191 410T162 347ZM160 570Q135 570 119 586T102 628Q102 653 118 670T160 687Q184 687 201 670T219 628Q219 603 202 587T160 570ZM325 570Q300 570 284 586T267 628Q267 653 283 670T325 687Q349 687 366 670T384 628Q384 603 367 587T325 570Z"></glyph>
<glyph unicode="&#xe5;" horiz-adv-x="491" d="M330 0V339H446V0H330ZM210 -15L225 75Q257 75 280 91T317 139T330 212L382 217Q382 150 359 98T298 15T210 -15ZM210 -15Q163 -15 126 6T67 63T45 146L151 151Q151 118 173 97T225 75L210 -15ZM45 146Q45 192 69
228T136 285T230 307L240 227Q201 227 176 206T151 151L45 146ZM240 227L230 307H372V227H240ZM330 212V334H382V217L330 212ZM446 333H330Q330 377 307 404T246 431V526Q303 526 348 501T420 432T446 333ZM162 347L57 367Q65 415 90 450T156 506T246 526V431Q214
431 191 410T162 347ZM274 664Q274 678 266 688T243 698V756Q286 756 314 730T342 664H274ZM243 573Q201 573 173 599T144 664H212Q212 650 221 641T243 631V573ZM243 573V631Q257 631 265 640T274 664H342Q342 626 314 600T243 573ZM144 664Q144 704 172 730T243
756V698Q230 698 221 688T212 664H144Z"></glyph>
<glyph unicode="&#xe6;" horiz-adv-x="787" d="M225 -15L240 75Q275 75 297 87T329 124T340 187L427 192Q427 133 400 87T328 13T225 -15ZM210 -15L225 75Q257 75 280 91T317 139T330 212L382 217Q382 150 359 98T298 15T210 -15ZM210 -15Q163 -15 126 6T67 63T45
146L151 151Q151 118 173 97T225 75L210 -15ZM45 146Q45 192 69 228T136 285T230 307L240 227Q201 227 176 206T151 151L45 146ZM240 227L230 307H372V227H240ZM330 212V334H382V217L330 212ZM446 333H330Q330 377 307 404T246 431V526Q303 526 348 501T420 432T446
333ZM162 347L57 367Q65 415 90 450T156 506T246 526V431Q214 431 191 410T162 347ZM405 223V297H752V223H405ZM552 -16V79H559V-16H552ZM354 194V316H470V194H354ZM636 297V334H752V297H636ZM752 333H636Q636 377 613 404T552 431V526Q609 526 654 501T726 432T752
333ZM643 163L747 143Q740 96 715 60T649 4T558 -16V79Q591 79 614 100T643 163ZM354 316Q354 376 380 423T451 498T552 526V431Q514 431 492 401T470 316H354ZM354 194H470Q470 140 492 110T552 79V-16Q496 -16 451 11T380 86T354 194Z"></glyph>
<glyph unicode="&#xe7;" horiz-adv-x="454" d="M45 193V317H161V193H45ZM45 316Q45 377 71 424T142 498T243 526V432Q205 432 183 402T161 316H45ZM327 347Q322 390 299 411T242 432V526Q293 526 333 507T398 452T431 367L327 347ZM45 194H161Q161 140 183 110T243
79V-16Q187 -16 142 11T71 86T45 194ZM327 163L431 143Q424 96 399 60T333 4T242 -16V79Q275 79 298 100T327 163ZM274 -175Q244 -175 219 -168T171 -149L195 -90Q223 -100 244 -102T276 -95T280 -61H384Q391 -118 360 -146T274 -175ZM280 -61Q274 -38 267 -22T251
10H356Q365 -3 372 -19T384 -61H280Z"></glyph>
<glyph unicode="&#xe8;" horiz-adv-x="468" d="M86 223V297H433V223H86ZM233 -16V79H240V-16H233ZM35 194V316H151V194H35ZM317 297V334H433V297H317ZM433 333H317Q317 377 294 404T233 431V526Q290 526 335 501T407 432T433 333ZM324 163L428 143Q421 96 396
60T330 4T239 -16V79Q272 79 295 100T324 163ZM35 316Q35 376 61 423T132 498T233 526V431Q195 431 173 401T151 316H35ZM35 194H151Q151 140 173 110T233 79V-16Q177 -16 132 11T61 86T35 194ZM176 557L89 695H197L262 557H176Z"></glyph>
<glyph unicode="&#xe9;" horiz-adv-x="468" d="M250 557H164L229 695H337L250 557ZM86 223V297H433V223H86ZM233 -16V79H240V-16H233ZM35 194V316H151V194H35ZM317 297V334H433V297H317ZM433 333H317Q317 377 294 404T233 431V526Q290 526 335 501T407 432T433
333ZM324 163L428 143Q421 96 396 60T330 4T239 -16V79Q272 79 295 100T324 163ZM35 316Q35 376 61 423T132 498T233 526V431Q195 431 173 401T151 316H35ZM35 194H151Q151 140 173 110T233 79V-16Q177 -16 132 11T61 86T35 194Z"></glyph>
<glyph unicode="&#xea;" horiz-adv-x="468" d="M173 705H259L194 567H86L173 705ZM288 705L375 567H267L202 705H288ZM86 223V297H433V223H86ZM233 -16V79H240V-16H233ZM35 194V316H151V194H35ZM317 297V334H433V297H317ZM433 333H317Q317 377 294 404T233 431V526Q290
526 335 501T407 432T433 333ZM324 163L428 143Q421 96 396 60T330 4T239 -16V79Q272 79 295 100T324 163ZM35 316Q35 376 61 423T132 498T233 526V431Q195 431 173 401T151 316H35ZM35 194H151Q151 140 173 110T233 79V-16Q177 -16 132 11T61 86T35 194Z"></glyph>
<glyph unicode="&#xeb;" horiz-adv-x="468" d="M86 223V297H433V223H86ZM233 -16V79H240V-16H233ZM35 194V316H151V194H35ZM317 297V334H433V297H317ZM433 333H317Q317 377 294 404T233 431V526Q290 526 335 501T407 432T433 333ZM324 163L428 143Q421 96 396
60T330 4T239 -16V79Q272 79 295 100T324 163ZM35 316Q35 376 61 423T132 498T233 526V431Q195 431 173 401T151 316H35ZM35 194H151Q151 140 173 110T233 79V-16Q177 -16 132 11T61 86T35 194ZM148 565Q123 565 107 581T90 623Q90 648 106 665T148 682Q172 682
189 665T207 623Q207 598 190 582T148 565ZM313 565Q288 565 272 581T255 623Q255 648 271 665T313 682Q337 682 354 665T372 623Q372 598 355 582T313 565Z"></glyph>
<glyph unicode="&#xec;" horiz-adv-x="256" d="M70 0V510H186V0H70ZM330 557L243 695H351L416 557H330Z"></glyph>
<glyph unicode="&#xed;" horiz-adv-x="256" d="M148 557H62L127 695H235L148 557ZM70 0V510H186V0H70Z"></glyph>
<glyph unicode="&#xee;" horiz-adv-x="256" d="M71 705H157L92 567H-16L71 705ZM186 705L273 567H165L100 705H186ZM70 0V510H186V0H70Z"></glyph>
<glyph unicode="&#xef;" horiz-adv-x="256" d="M70 0V510H186V0H70ZM302 565Q277 565 261 581T244 623Q244 648 260 665T302 682Q326 682 343 665T361 623Q361 598 344 582T302 565ZM467 565Q442 565 426 581T409 623Q409 648 425 665T467 682Q491 682 508 665T526
623Q526 598 509 582T467 565Z"></glyph>
<glyph unicode="&#xf0;" horiz-adv-x="481" d="M336 320Q336 385 324 449T283 579T205 714L279 758Q333 686 368 613T419 465T436 320H336ZM208 571L171 630L372 745L409 686L208 571ZM320 194V316H436V194H320ZM35 194V316H151V194H35ZM232 431V525H240V431H232ZM232
-15V80H240V-15H232ZM35 315Q35 376 61 423T132 497T233 525V431Q195 431 173 401T151 315H35ZM436 315H320Q320 370 299 400T238 431V525Q295 525 339 498T410 423T436 315ZM35 195H151Q151 141 173 111T233 80V-15Q177 -15 132 12T61 87T35 195ZM436 195Q436
135 410 88T340 13T238 -15V80Q277 80 298 110T320 195H436Z"></glyph>
<glyph unicode="&#xf1;" horiz-adv-x="507" d="M60 0V510H176V0H60ZM346 0V339H462V0H346ZM346 338Q346 380 323 405T264 430L296 526Q343 526 380 502T440 435T462 338H346ZM134 333Q134 388 155 432T213 501T296 526L264 430Q225 430 201 404T176 333H134ZM328
579Q304 579 289 587T263 605T241 624T213 632V697Q238 697 253 689T278 671T300 652T328 644V579ZM114 595Q114 643 140 670T213 697V632Q201 632 194 623T187 595H114ZM328 579V644Q340 644 347 654T354 681H427Q427 633 401 606T328 579Z"></glyph>
<glyph unicode="&#xf2;" horiz-adv-x="471" d="M320 194V316H436V194H320ZM35 194V316H151V194H35ZM232 431V525H240V431H232ZM232 -15V80H240V-15H232ZM35 315Q35 376 61 423T132 497T233 525V431Q195 431 173 401T151 315H35ZM436 315H320Q320 370 299 400T238
431V525Q295 525 339 498T410 423T436 315ZM35 195H151Q151 141 173 111T233 80V-15Q177 -15 132 12T61 87T35 195ZM436 195Q436 135 410 88T340 13T238 -15V80Q277 80 298 110T320 195H436ZM181 557L94 695H202L267 557H181Z"></glyph>
<glyph unicode="&#xf3;" horiz-adv-x="471" d="M255 557H169L234 695H342L255 557ZM320 194V316H436V194H320ZM35 194V316H151V194H35ZM232 431V525H240V431H232ZM232 -15V80H240V-15H232ZM35 315Q35 376 61 423T132 497T233 525V431Q195 431 173 401T151 315H35ZM436
315H320Q320 370 299 400T238 431V525Q295 525 339 498T410 423T436 315ZM35 195H151Q151 141 173 111T233 80V-15Q177 -15 132 12T61 87T35 195ZM436 195Q436 135 410 88T340 13T238 -15V80Q277 80 298 110T320 195H436Z"></glyph>
<glyph unicode="&#xf4;" horiz-adv-x="471" d="M178 705H264L199 567H91L178 705ZM293 705L380 567H272L207 705H293ZM320 194V316H436V194H320ZM35 194V316H151V194H35ZM232 431V525H240V431H232ZM232 -15V80H240V-15H232ZM35 315Q35 376 61 423T132 497T233
525V431Q195 431 173 401T151 315H35ZM436 315H320Q320 370 299 400T238 431V525Q295 525 339 498T410 423T436 315ZM35 195H151Q151 141 173 111T233 80V-15Q177 -15 132 12T61 87T35 195ZM436 195Q436 135 410 88T340 13T238 -15V80Q277 80 298 110T320 195H436Z"></glyph>
<glyph unicode="&#xf5;" horiz-adv-x="471" d="M320 194V316H436V194H320ZM35 194V316H151V194H35ZM232 431V525H240V431H232ZM232 -15V80H240V-15H232ZM35 315Q35 376 61 423T132 497T233 525V431Q195 431 173 401T151 315H35ZM436 315H320Q320 370 299 400T238
431V525Q295 525 339 498T410 423T436 315ZM35 195H151Q151 141 173 111T233 80V-15Q177 -15 132 12T61 87T35 195ZM436 195Q436 135 410 88T340 13T238 -15V80Q277 80 298 110T320 195H436ZM293 579Q269 579 254 587T228 605T206 624T178 632V697Q203 697 218
689T243 671T265 652T293 644V579ZM79 595Q79 643 105 670T178 697V632Q166 632 159 623T152 595H79ZM293 579V644Q305 644 312 654T319 681H392Q392 633 366 606T293 579Z"></glyph>
<glyph unicode="&#xf6;" horiz-adv-x="471" d="M320 194V316H436V194H320ZM35 194V316H151V194H35ZM232 431V525H240V431H232ZM232 -15V80H240V-15H232ZM35 315Q35 376 61 423T132 497T233 525V431Q195 431 173 401T151 315H35ZM436 315H320Q320 370 299 400T238
431V525Q295 525 339 498T410 423T436 315ZM35 195H151Q151 141 173 111T233 80V-15Q177 -15 132 12T61 87T35 195ZM436 195Q436 135 410 88T340 13T238 -15V80Q277 80 298 110T320 195H436ZM153 565Q128 565 112 581T95 623Q95 648 111 665T153 682Q177 682 194
665T212 623Q212 598 195 582T153 565ZM318 565Q293 565 277 581T260 623Q260 648 276 665T318 682Q342 682 359 665T377 623Q377 598 360 582T318 565Z"></glyph>
<glyph unicode="&#xf7;" horiz-adv-x="475" d="M30 297V393H445V297H30ZM237 459Q207 459 188 478T168 528Q168 558 187 578T237 599Q267 599 287 579T308 528Q308 498 288 479T237 459ZM237 89Q207 89 188 108T168 158Q168 188 187 208T237 229Q267 229 287 209T308
158Q308 128 288 109T237 89Z"></glyph>
<glyph unicode="&#xf8;" horiz-adv-x="471" d="M90 -49L323 559H380L147 -49H90ZM320 194V316H436V194H320ZM35 194V316H151V194H35ZM232 431V525H240V431H232ZM232 -15V80H240V-15H232ZM35 315Q35 376 61 423T132 497T233 525V431Q195 431 173 401T151 315H35ZM436
315H320Q320 370 299 400T238 431V525Q295 525 339 498T410 423T436 315ZM35 195H151Q151 141 173 111T233 80V-15Q177 -15 132 12T61 87T35 195ZM436 195Q436 135 410 88T340 13T238 -15V80Q277 80 298 110T320 195H436Z"></glyph>
<glyph unicode="&#xf9;" horiz-adv-x="507" d="M447 510V0H331V510H447ZM161 510V172H45V510H161ZM161 172Q161 131 184 106T243 81L211 -15Q164 -15 127 9T67 76T45 172H161ZM373 177Q373 122 352 79T294 10T211 -15L243 81Q282 81 306 107T331 177H373ZM193
557L106 695H214L279 557H193Z"></glyph>
<glyph unicode="&#xfa;" horiz-adv-x="507" d="M447 510V0H331V510H447ZM161 510V172H45V510H161ZM161 172Q161 131 184 106T243 81L211 -15Q164 -15 127 9T67 76T45 172H161ZM373 177Q373 122 352 79T294 10T211 -15L243 81Q282 81 306 107T331 177H373ZM267
557H181L246 695H354L267 557Z"></glyph>
<glyph unicode="&#xfb;" horiz-adv-x="507" d="M447 510V0H331V510H447ZM161 510V172H45V510H161ZM161 172Q161 131 184 106T243 81L211 -15Q164 -15 127 9T67 76T45 172H161ZM373 177Q373 122 352 79T294 10T211 -15L243 81Q282 81 306 107T331 177H373ZM190
705H276L211 567H103L190 705ZM305 705L392 567H284L219 705H305Z"></glyph>
<glyph unicode="&#xfc;" horiz-adv-x="507" d="M447 510V0H331V510H447ZM161 510V172H45V510H161ZM161 172Q161 131 184 106T243 81L211 -15Q164 -15 127 9T67 76T45 172H161ZM373 177Q373 122 352 79T294 10T211 -15L243 81Q282 81 306 107T331 177H373ZM164
565Q139 565 123 581T107 623Q107 648 123 665T164 682Q189 682 206 665T224 623Q224 598 207 582T164 565ZM329 565Q304 565 288 581T272 623Q272 648 288 665T329 682Q354 682 371 665T389 623Q389 598 372 582T329 565Z"></glyph>
<glyph unicode="&#xfd;" horiz-adv-x="502" d="M270 557H184L249 695H357L270 557ZM68 -183L94 -90Q134 -101 159 -89T197 -37H299Q268 -135 211 -170T68 -183ZM197 -37L355 510H472L299 -37H197ZM208 -54L30 510H147L264 108L208 -54Z"></glyph>
<glyph unicode="&#xfe;" horiz-adv-x="507" d="M60 509V710H176V509H60ZM60 2H176V-200H60V2ZM176 510V0H60V510H176ZM462 338V172H346V338H462ZM346 172H462Q462 119 440 77T381 10T296 -15L264 81Q300 81 323 106T346 172ZM134 177H176Q176 134 200 108T264
81L296 -15Q250 -15 214 10T156 78T134 177ZM346 338Q346 380 323 405T264 430L296 526Q343 526 380 502T440 435T462 338H346ZM134 333Q134 388 155 432T213 501T296 526L264 430Q225 430 201 404T176 333H134Z"></glyph>
<glyph unicode="&#xff;" horiz-adv-x="502" d="M68 -183L94 -90Q134 -101 159 -89T197 -37H299Q268 -135 211 -170T68 -183ZM197 -37L355 510H472L299 -37H197ZM208 -54L30 510H147L264 108L208 -54ZM168 565Q143 565 127 581T110 623Q110 648 126 665T168 682Q192
682 209 665T227 623Q227 598 210 582T168 565ZM333 565Q308 565 292 581T275 623Q275 648 291 665T333 682Q357 682 374 665T392 623Q392 598 375 582T333 565Z"></glyph>
<glyph unicode="&#x2013;" horiz-adv-x="454" d="M50 281V377H404V281H50Z"></glyph>
<glyph unicode="&#x2014;" horiz-adv-x="631" d="M50 281V377H581V281H50Z"></glyph>
<glyph unicode="&#x2018;" horiz-adv-x="262" d="M131 611Q161 611 180 592T200 542Q200 513 181 493T131 472Q102 472 81 492T60 542Q60 572 81 591T131 611ZM202 703Q187 680 176 663T159 631T149 597T146 552L60 542Q60 579 71 610T100 673T140 737L202 703Z"></glyph>
<glyph unicode="&#x2019;" horiz-adv-x="262" d="M60 491Q76 515 86 532T103 564T113 598T116 642L202 652Q202 616 192 585T163 522T122 457L60 491ZM132 583Q102 583 83 602T63 652Q63 682 82 702T132 723Q161 723 181 703T202 652Q202 622 182 603T132 583Z"></glyph>
<glyph unicode="&#x201a;" horiz-adv-x="242" d="M50 -83Q66 -59 76 -42T93 -10T103 24T106 68L192 78Q192 42 182 11T153 -52T112 -117L50 -83ZM122 9Q92 9 73 28T53 78Q53 108 72 128T122 149Q151 149 171 129T192 78Q192 48 172 29T122 9Z"></glyph>
<glyph unicode="&#x201c;" horiz-adv-x="442" d="M131 607Q161 607 180 588T200 538Q200 509 181 489T131 468Q102 468 81 488T60 538Q60 568 81 587T131 607ZM202 699Q187 676 176 659T159 627T149 593T146 548L60 538Q60 575 71 606T100 669T140 733L202 699ZM311
607Q341 607 360 588T380 538Q380 509 361 489T311 468Q282 468 261 488T240 538Q240 568 261 587T311 607ZM382 699Q367 676 356 659T339 627T329 593T326 548L240 538Q240 575 251 606T280 669T320 733L382 699Z"></glyph>
<glyph unicode="&#x201d;" horiz-adv-x="442" d="M240 492Q256 516 266 533T283 565T293 599T296 643L382 653Q382 617 372 586T343 523T302 458L240 492ZM312 584Q282 584 263 603T243 653Q243 683 262 703T312 724Q341 724 361 704T382 653Q382 623 362 604T312
584ZM60 492Q76 516 86 533T103 565T113 599T116 643L202 653Q202 617 192 586T163 523T122 458L60 492ZM132 584Q102 584 83 603T63 653Q63 683 82 703T132 724Q161 724 181 704T202 653Q202 623 182 604T132 584Z"></glyph>
<glyph unicode="&#x201e;" horiz-adv-x="421" d="M229 -83Q245 -59 255 -42T272 -10T282 24T285 68L371 78Q371 42 361 11T332 -52T291 -117L229 -83ZM301 9Q271 9 252 28T232 78Q232 108 251 128T301 149Q330 149 350 129T371 78Q371 48 351 29T301 9ZM50 -83Q66
-59 76 -42T93 -10T103 24T106 68L192 78Q192 42 182 11T153 -52T112 -117L50 -83ZM122 9Q92 9 73 28T53 78Q53 108 72 128T122 149Q151 149 171 129T192 78Q192 48 172 29T122 9Z"></glyph>
<glyph unicode="&#x2022;" horiz-adv-x="334" d="M166 226Q116 226 83 258T50 342Q50 374 65 401T106 444T166 460Q199 460 225 444T268 401T284 342Q284 308 268 282T226 241T166 226Z"></glyph>
<glyph unicode="&#x2039;" horiz-adv-x="380" d="M125 214V337L360 523V406L125 214ZM125 179L20 258L125 337V179ZM360 -7L125 179V302L360 110V-7Z"></glyph>
<glyph unicode="&#x203a;" horiz-adv-x="380" d="M255 214L20 406V523L255 337V214ZM255 179V337L360 258L255 179ZM20 -7V110L255 302V179L20 -7Z"></glyph>
</font>
</defs>
</svg>
