<?xml version="1.0" standalone="no"?>
<!DOCTYPE svg PUBLIC "-//W3C//DTD SVG 1.1//EN" "http://www.w3.org/Graphics/SVG/1.1/DTD/svg11.dtd">
<svg xmlns="http://www.w3.org/2000/svg">
<defs>
<font id="Akshar" horiz-adv-x="439"><font-face font-family="Akshar Light SemiBold" units-per-em="1000" panose-1="0 0 0 0 0 0 0 0 0 0" ascent="900" descent="-200" alphabetic="0"></font-face>
<glyph unicode=" " horiz-adv-x="203"></glyph>
<glyph unicode="!" horiz-adv-x="260" d="M73 221L59 715H200L187 221H73ZM129 -12Q95 -12 73 10T50 67Q50 101 72 124T129 148Q163 148 186 125T210 67Q210 33 187 11T129 -12Z"></glyph>
<glyph unicode="&quot;" horiz-adv-x="397" d="M231 515L211 730H337L318 515H231ZM80 515L60 730H186L167 515H80Z"></glyph>
<glyph unicode="#" horiz-adv-x="635" d="M286 31L428 631H539L397 31H286ZM50 191L71 287H541L520 191H50ZM98 31L240 631H351L209 31H98ZM94 374L115 470H585L564 374H94Z"></glyph>
<glyph unicode="$" horiz-adv-x="520" d="M188 671V808H302V671H188ZM188 -93V44H302V-93H188ZM344 169Q344 203 322 228T266 275T194 320T121 374T66 446T44 547H185Q185 514 206 489T262 441T334 396T407 342T463 270T485 169H344ZM44 546Q44 601 73 642T152
707T267 731V621Q229 621 207 601T185 546H44ZM485 169Q485 115 456 74T377 8T262 -16V95Q300 95 322 114T344 169H485ZM341 539Q336 579 316 600T267 621V731Q320 731 362 711T431 653T466 562L341 539ZM162 219Q166 160 192 128T262 95V-16Q165 -16 105 40T35
196L162 219Z"></glyph>
<glyph unicode="%" horiz-adv-x="788" d="M123 -50L564 731H666L225 -50H123ZM576 -44V47Q597 47 610 65T624 110H738Q738 67 717 32T659 -24T576 -44ZM576 -44Q530 -44 494 -24T436 31T415 110H529Q529 83 542 65T576 47V-44ZM415 110Q415 154 436 189T493 244T576
264V172Q555 172 542 155T529 110H415ZM624 110Q624 137 611 154T576 172V264Q622 264 658 244T716 189T738 110H624ZM211 416V508Q232 508 245 525T259 571H373Q373 527 352 492T294 436T211 416ZM211 416Q165 416 129 436T71 491T50 571H164Q164 543 177 526T211
508V416ZM50 571Q50 615 71 649T128 704T211 724V633Q191 633 178 616T164 571H50ZM259 571Q259 598 246 615T211 633V724Q257 724 294 704T352 650T373 571H259Z"></glyph>
<glyph unicode="&amp;" horiz-adv-x="720" d="M571 -1L206 388L291 470L660 85L571 -1ZM277 -19Q175 -19 118 34T60 176L200 168Q200 130 222 114T277 98V-19ZM277 -19V98Q299 98 320 106T367 134T431 192L509 107Q462 60 425 33T354 -7T277 -19ZM60 176Q60 212
77 248T121 317T180 378T241 430T291 470L377 376Q361 360 332 337T272 285T221 227T200 168L60 176ZM509 107L431 192L558 332L643 256L509 107ZM206 388Q178 415 156 441T122 494T108 549L246 554Q247 538 253 524T269 496T291 470L206 388ZM108 549Q105 601
129 641T200 706T306 730V620Q279 620 261 601T246 554L108 549ZM379 538Q374 578 355 599T305 620V730Q359 730 400 710T469 652T504 561L379 538Z"></glyph>
<glyph unicode="&apos;" horiz-adv-x="246" d="M80 515L60 730H186L167 515H80Z"></glyph>
<glyph unicode="(" horiz-adv-x="303" d="M177 -120Q50 112 50 335T177 790H303Q192 559 192 336T303 -120H177Z"></glyph>
<glyph unicode=")" horiz-adv-x="303" d="M126 -120H0Q111 112 111 335T0 790H126Q253 559 253 336T126 -120Z"></glyph>
<glyph unicode="*" horiz-adv-x="434" d="M331 441L198 535L50 603L103 694L236 600L384 532L331 441ZM103 441L50 532L198 600L331 694L384 603L236 535L103 441ZM164 405L179 568L164 730H269L254 568L269 405H164Z"></glyph>
<glyph unicode="+" horiz-adv-x="488" d="M179 119V547H309V119H179ZM30 280V391H458V280H30Z"></glyph>
<glyph unicode="," horiz-adv-x="262" d="M50 -89Q67 -63 79 -45T98 -10T108 27T111 76L212 86Q212 47 200 12T168 -57T122 -128L50 -89ZM131 7Q96 7 74 29T52 86Q52 119 74 142T131 166Q165 166 188 143T212 86Q212 51 189 29T131 7Z"></glyph>
<glyph unicode="-" horiz-adv-x="408" d="M50 277V388H358V277H50Z"></glyph>
<glyph unicode="." horiz-adv-x="260" d="M129 -12Q95 -12 73 10T50 67Q50 101 72 124T129 148Q163 148 186 125T210 67Q210 33 187 11T129 -12Z"></glyph>
<glyph unicode="/" horiz-adv-x="373" d="M25 0L234 715H348L139 0H25Z"></glyph>
<glyph unicode="0" horiz-adv-x="541" d="M345 209V506H486V209H345ZM55 209V506H196V209H55ZM265 621V731H275V621H265ZM265 -16V95H275V-16H265ZM55 506Q55 571 83 621T158 701T267 731V621Q233 621 215 591T196 506H55ZM486 506H345Q345 560 327 590T274 621V731Q335
731 382 702T458 622T486 506ZM55 209H196Q196 155 214 125T267 95V-16Q206 -16 159 13T83 94T55 209ZM486 209Q486 145 458 94T383 14T274 -16V95Q308 95 326 125T345 209H486Z"></glyph>
<glyph unicode="1" horiz-adv-x="399" d="M108 461L30 542L188 715V549L108 461ZM188 0V715H329V0H188Z"></glyph>
<glyph unicode="2" horiz-adv-x="518" d="M81 111Q82 174 100 219T146 295T207 353T267 404T314 458T332 528Q332 528 346 528T382 528T424 528T459 528T473 528Q473 469 455 428T408 358T347 304T286 253T239 194T219 111H81ZM81 0V111H470V0H81ZM185 541L60
564Q69 617 95 655T164 713T259 733V623Q230 623 210 603T185 541ZM473 527H332Q332 571 312 597T258 623V733Q320 733 368 707T445 633T473 527Z"></glyph>
<glyph unicode="3" horiz-adv-x="516" d="M248 316V426Q279 426 297 453T316 527H457Q457 462 432 415T360 342T248 316ZM330 189V221H471V189H330ZM188 316V426H249V316H188ZM316 526Q316 569 298 594T248 620V730Q313 730 359 705T431 635T457 526H316ZM471
190Q471 131 443 85T366 11T256 -16V94Q289 94 309 120T330 190H471ZM471 220H330Q330 264 310 290T256 316V426Q317 426 366 400T443 326T471 220ZM175 538L50 561Q59 614 85 651T154 709T249 730V620Q220 620 200 599T175 538ZM182 176Q187 137 207 116T257 94V-16Q204
-16 162 4T93 63T58 153L182 176Z"></glyph>
<glyph unicode="4" horiz-adv-x="532" d="M35 244L202 715H343L176 244H35ZM35 133V244H492V133H35ZM292 0V399H423V0H292Z"></glyph>
<glyph unicode="5" horiz-adv-x="530" d="M70 303V715H195V303H70ZM329 208V296H470V208H329ZM70 604V715H448V604H70ZM329 296Q329 341 309 367T254 393L280 498Q335 498 378 472T445 400T470 296H329ZM117 303Q117 359 138 403T197 472T281 498L254 393Q228
393 212 369T195 303H117ZM470 210Q470 146 442 95T367 15T258 -15V95Q292 95 310 125T329 210H470ZM185 176Q190 137 210 116T259 94V-16Q206 -16 164 4T96 63T60 153L185 176Z"></glyph>
<glyph unicode="6" horiz-adv-x="527" d="M60 258Q60 324 76 391T121 521T188 640T270 738L370 669Q341 633 311 596T256 514T216 407T201 258H60ZM60 209V245H201V209H60ZM341 209V245H482V209H341ZM482 210Q482 146 455 95T380 15T271 -15V95Q304 95 322 125T341
210H482ZM60 210H201Q201 156 219 126T272 95V-15Q211 -15 164 14T88 95T60 210ZM482 244H341Q341 299 323 329T271 359V469Q332 469 379 440T454 360T482 244ZM60 244Q60 309 88 359T163 439T272 469V359Q238 359 220 329T201 244H60Z"></glyph>
<glyph unicode="7" horiz-adv-x="484" d="M102 0L313 604H454L243 0H102ZM30 604V715H454V604H30Z"></glyph>
<glyph unicode="8" horiz-adv-x="558" d="M357 226Q357 279 337 308T279 337V417Q382 417 440 365T498 218L357 226ZM279 -16Q176 -16 118 41T60 200L201 207Q201 172 210 147T237 108T279 95V-16ZM60 200V218L201 226V207L60 200ZM279 -16V95Q304 95 321 108T347
146T357 207L498 200Q498 98 440 41T279 -16ZM60 218Q60 312 118 364T279 417V337Q243 337 222 308T201 226L60 218ZM357 207V226L498 218V200L357 207ZM279 337Q181 337 125 386T69 520L210 512Q210 467 228 442T279 417V337ZM69 520V533L210 526V512L69 520ZM279
337V417Q313 417 330 442T348 512L489 520Q489 435 434 386T279 337ZM69 533Q69 625 125 677T279 730V620Q257 620 242 609T218 577T210 526L69 533ZM348 512V526L489 533V520L348 512ZM348 526Q348 556 340 577T317 609T279 620V730Q378 730 433 678T489 533L348
526Z"></glyph>
<glyph unicode="9" horiz-adv-x="527" d="M467 458Q467 392 451 325T406 194T339 75T258 -22L157 47Q187 83 217 119T271 201T311 309T326 458H467ZM467 506V470H326V506H467ZM186 506V470H45V506H186ZM45 505Q45 570 73 620T148 700T257 730V620Q223 620 205
590T186 505H45ZM467 505H326Q326 560 308 590T256 620V730Q317 730 364 701T439 621T467 505ZM45 471H186Q186 417 204 387T257 356V246Q196 246 149 275T73 356T45 471ZM467 471Q467 407 440 356T365 276T256 246V356Q289 356 307 386T326 471H467Z"></glyph>
<glyph unicode=":" horiz-adv-x="310" d="M179 15Q145 15 123 37T100 94Q100 128 122 151T179 175Q213 175 236 152T260 94Q260 60 237 38T179 15ZM179 332Q145 332 123 354T100 411Q100 445 122 468T179 492Q213 492 236 469T260 411Q260 377 237 355T179 332Z"></glyph>
<glyph unicode=";" horiz-adv-x="326" d="M179 332Q145 332 123 354T100 411Q100 445 122 468T179 492Q213 492 236 469T260 411Q260 377 237 355T179 332ZM114 -89Q131 -63 143 -45T162 -10T172 27T175 76L276 86Q276 47 264 12T232 -57T186 -128L114 -89ZM195
7Q160 7 138 29T116 86Q116 119 138 142T195 166Q229 166 252 143T276 86Q276 51 253 29T195 7Z"></glyph>
<glyph unicode="&lt;" horiz-adv-x="411" d="M30 252V378L381 556V430L30 252ZM381 74L30 252V378L381 200V74Z"></glyph>
<glyph unicode="=" horiz-adv-x="420" d="M30 381V492H390V381H30ZM30 191V302H390V191H30Z"></glyph>
<glyph unicode="&gt;" horiz-adv-x="411" d="M381 252L30 430V556L381 378V252ZM30 74V200L381 378V252L30 74Z"></glyph>
<glyph unicode="?" horiz-adv-x="475" d="M150 229Q150 279 164 314T198 376T239 428T273 478T287 538Q287 578 272 596T228 615Q211 615 200 606T182 579T176 531H35Q35 589 60 634T129 704T228 730Q285 730 329 706T399 637T425 538Q425 497 411 468T377 415T337
365T302 307T288 229H150ZM150 206V229H288V206H150ZM219 -12Q184 -12 162 10T140 67Q140 101 162 124T219 148Q252 148 275 125T299 67Q299 33 276 11T219 -12Z"></glyph>
<glyph unicode="@" horiz-adv-x="780" d="M53 328Q60 410 88 474T163 584T275 654T418 678L413 572Q342 572 289 543T204 460T166 328H53ZM362 -112Q255 -112 182 -70T73 50T47 237H160Q155 161 177 106T248 23T367 -6L362 -112ZM47 237L53 328H166L160 237H47ZM362
-112L367 -6Q399 -6 428 -1T482 15L507 -81Q475 -96 438 -104T362 -112ZM345 60Q304 60 274 83T229 147T219 240H322Q320 209 333 190T371 171L345 60ZM219 240L224 311H327L322 240H219ZM345 60L371 171Q393 171 407 190T425 240H479Q474 188 455 147T408 83T345
60ZM613 237H727Q723 174 699 132T638 69T564 48T492 69T440 133T425 240H528Q524 192 535 168T563 144T594 167T613 237ZM224 311Q229 363 249 404T300 468T369 491L385 380Q362 380 346 362T327 311H224ZM430 319Q432 347 420 363T385 380L369 491Q404 491 429
469T467 408T476 319H430ZM425 240L439 454L456 485H544L528 240H425ZM613 237L619 328H733L727 237H613ZM619 328Q626 405 603 459T532 543T413 572L418 678Q524 678 597 636T706 515T733 328H619Z"></glyph>
<glyph unicode="A" horiz-adv-x="552" d="M166 122V232H422V122H166ZM343 715L167 0H30L207 715H343ZM345 715L522 0H386L209 715H345Z"></glyph>
<glyph unicode="B" horiz-adv-x="525" d="M248 331V420Q286 420 307 444T329 514H470Q470 462 441 421T362 355T248 331ZM186 0V110H258V0H186ZM186 316V420H258V316H186ZM339 202V222H480V202H339ZM339 221Q339 266 318 291T258 316V405Q321 405 371 381T451
316T480 221H339ZM186 605V715H248V605H186ZM470 513H329Q329 557 308 581T248 605V715Q312 715 362 689T441 617T470 513ZM480 203Q480 144 451 99T372 27T258 0V110Q296 110 317 134T339 203H480ZM60 0V715H201V0H60Z"></glyph>
<glyph unicode="C" horiz-adv-x="529" d="M50 186V529H191V186H50ZM50 529Q50 587 79 633T158 705T273 731V621Q235 621 213 597T191 529H50ZM50 187H191Q191 143 213 119T273 94V-16Q209 -16 159 10T79 82T50 187ZM372 497Q368 555 342 588T272 621V731Q369 731
428 676T499 520L372 497ZM372 218L499 196Q488 96 429 40T272 -16V94Q315 94 341 127T372 218Z"></glyph>
<glyph unicode="D" horiz-adv-x="535" d="M339 201V513H480V201H339ZM179 0V110H258V0H179ZM179 605V715H258V605H179ZM179 605V715H258V605H179ZM480 513H339Q339 557 318 581T258 605V715Q322 715 372 689T451 617T480 513ZM480 203Q480 144 451 99T372 27T258
0V110Q296 110 317 134T339 203H480ZM60 0V715H201V0H60Z"></glyph>
<glyph unicode="E" horiz-adv-x="463" d="M161 0V110H423V0H161ZM166 302V413H363V302H166ZM60 715H201V0H60V715ZM171 715H413V605H171V715Z"></glyph>
<glyph unicode="F" horiz-adv-x="433" d="M166 302V413H363V302H166ZM60 715H201V0H60V715ZM171 715H413V605H171V715Z"></glyph>
<glyph unicode="G" horiz-adv-x="554" d="M260 285V395H494V285H260ZM353 186V392H494V186H353ZM50 186V529H191V186H50ZM50 529Q50 587 79 633T158 705T273 731V621Q235 621 213 597T191 529H50ZM50 187H191Q191 143 213 119T273 94V-16Q209 -16 159 10T79 82T50
187ZM372 497Q368 555 342 588T272 621V731Q369 731 428 676T499 520L372 497ZM494 187Q494 128 465 83T386 11T272 -16V94Q310 94 331 118T353 187H494Z"></glyph>
<glyph unicode="H" horiz-adv-x="567" d="M110 302V412H416V302H110ZM366 0V715H507V0H366ZM60 0V715H201V0H60Z"></glyph>
<glyph unicode="I" horiz-adv-x="281" d="M70 0V715H211V0H70Z"></glyph>
<glyph unicode="J" horiz-adv-x="378" d="M177 180V715H318V180H177ZM318 180Q318 88 269 36T132 -16L116 94Q135 94 149 104T170 134T177 180H318ZM71 111Q80 104 91 99T116 94L132 -16Q102 -16 75 -8T20 21L71 111Z"></glyph>
<glyph unicode="K" horiz-adv-x="453" d="M132 378L327 715H461L258 378H132ZM325 0L108 378H258L473 0H325ZM60 0V715H201V0H60Z"></glyph>
<glyph unicode="L" horiz-adv-x="433" d="M171 0V110H413V0H171ZM60 0V715H201V0H60Z"></glyph>
<glyph unicode="M" horiz-adv-x="703" d="M300 0L456 715H563L407 0H300ZM296 0L140 715H247L403 0H296ZM60 0V715H201V0H60ZM502 0V715H643V0H502Z"></glyph>
<glyph unicode="N" horiz-adv-x="603" d="M368 0L84 715H207L491 0H368ZM60 0V715H201V0H60ZM402 0V715H543V0H402Z"></glyph>
<glyph unicode="O" horiz-adv-x="554" d="M358 187V529H499V187H358ZM55 187V529H196V187H55ZM499 528H358Q358 572 336 596T276 620V730Q340 730 390 704T470 632T499 528ZM55 528Q55 586 84 632T163 704T278 730V620Q240 620 218 596T196 528H55ZM499 188Q499
129 470 84T391 12T276 -15V95Q314 95 336 119T358 188H499ZM55 188H196Q196 144 218 120T278 95V-15Q214 -15 164 11T84 83T55 188Z"></glyph>
<glyph unicode="P" horiz-adv-x="503" d="M184 605V715H251V605H184ZM184 256V366H251V256H184ZM332 457V513H473V457H332ZM473 513H332Q332 557 310 581T250 605V715Q314 715 364 689T444 617T473 513ZM473 458Q473 400 444 354T365 282T250 256V366Q288 366
310 390T332 458H473ZM60 0V715H201V0H60Z"></glyph>
<glyph unicode="Q" horiz-adv-x="554" d="M391 -161Q356 -154 329 -134T280 -87T240 -32L291 25Q321 -7 356 -34T440 -71L391 -161ZM358 187V529H499V187H358ZM55 187V529H196V187H55ZM499 528H358Q358 572 336 596T276 620V730Q340 730 390 704T470 632T499 528ZM55
528Q55 586 84 632T163 704T278 730V620Q240 620 218 596T196 528H55ZM499 188Q499 129 470 84T391 12T276 -15V95Q314 95 336 119T358 188H499ZM55 188H196Q196 144 218 120T278 95V-15Q214 -15 164 11T84 83T55 188Z"></glyph>
<glyph unicode="R" horiz-adv-x="525" d="M347 0L222 335H359L485 0H347ZM184 274V384H251V274H184ZM184 605V715H251V605H184ZM332 475V514H473V475H332ZM473 513H332Q332 557 310 581T250 605V715Q314 715 364 689T444 617T473 513ZM473 476Q473 418 444 372T365
300T250 274V384Q288 384 310 408T332 476H473ZM60 0V715H201V0H60Z"></glyph>
<glyph unicode="S" horiz-adv-x="520" d="M344 169Q344 203 322 228T266 275T194 320T121 374T66 446T44 547H185Q185 514 206 489T262 441T334 396T407 342T463 270T485 169H344ZM44 546Q44 601 73 642T152 707T267 731V621Q229 621 207 601T185 546H44ZM485
169Q485 115 456 74T377 8T262 -16V95Q300 95 322 114T344 169H485ZM341 539Q336 579 316 600T267 621V731Q320 731 362 711T431 653T466 562L341 539ZM162 219Q166 160 192 128T262 95V-16Q165 -16 105 40T35 196L162 219Z"></glyph>
<glyph unicode="T" horiz-adv-x="505" d="M20 605V715H485V605H20ZM182 0V715H323V0H182Z"></glyph>
<glyph unicode="U" horiz-adv-x="563" d="M362 186V715H503V186H362ZM60 186V715H201V186H60ZM503 187Q503 128 474 83T395 11T281 -16V95Q319 95 340 119T362 187H503ZM60 187H201Q201 143 223 119T283 95V-16Q219 -16 169 10T89 82T60 187Z"></glyph>
<glyph unicode="V" horiz-adv-x="552" d="M209 0L386 715H522L345 0H209ZM207 0L30 715H167L343 0H207Z"></glyph>
<glyph unicode="W" horiz-adv-x="847" d="M504 0L367 715H481L625 0H504ZM177 0L40 715H177L313 0H177ZM222 0L366 715H480L343 0H222ZM534 0L670 715H807L670 0H534Z"></glyph>
<glyph unicode="X" horiz-adv-x="528" d="M347 0L38 715H182L491 0H347ZM30 0L200 358H329L159 0H30ZM200 358L369 715H498L329 358H200Z"></glyph>
<glyph unicode="Y" horiz-adv-x="531" d="M203 253L376 715H501L329 253H203ZM203 0V253H329V0H203ZM203 253L30 715H179L329 253H203Z"></glyph>
<glyph unicode="Z" horiz-adv-x="497" d="M40 110L306 605H457L192 110H40ZM40 0V110H457V0H40ZM40 605V715H457V605H40Z"></glyph>
<glyph unicode="[" horiz-adv-x="308" d="M50 -118V792H184V-118H50ZM88 -118V-7H308V-118H88ZM88 681V792H308V681H88Z"></glyph>
<glyph unicode="\" horiz-adv-x="373" d="M348 0H234L25 715H139L348 0Z"></glyph>
<glyph unicode="]" horiz-adv-x="308" d="M258 -118H124V792H258V-118ZM220 -118H0V-7H220V-118ZM220 681H0V792H220V681Z"></glyph>
<glyph unicode="^" horiz-adv-x="542" d="M208 715H334L512 364H386L208 715ZM30 364L208 715H334L156 364H30Z"></glyph>
<glyph unicode="_" horiz-adv-x="469" d="M50 -7V104H419V-7H50Z"></glyph>
<glyph unicode="`" horiz-adv-x="328" d="M162 557L70 700H193L258 557H162Z"></glyph>
<glyph unicode="a" horiz-adv-x="516" d="M330 0V333H471V0H330ZM213 -15L235 90Q263 90 284 104T317 146T330 211L389 218Q389 151 365 98T301 15T213 -15ZM213 -15Q164 -15 126 6T67 63T45 146L171 153Q171 126 190 108T235 90L213 -15ZM45 146Q45 193 70 229T139
286T238 308L253 218Q215 218 193 201T171 153L45 146ZM253 218L238 308H366V218H253ZM330 211V326H389V218L330 211ZM471 325H330Q330 369 310 395T256 421V531Q318 531 366 504T443 431T471 325ZM182 339L58 362Q66 415 92 452T161 510T257 531V421Q228 421 208
400T182 339Z"></glyph>
<glyph unicode="b" horiz-adv-x="536" d="M60 513V715H201V513H60ZM201 0H60V515H201V0ZM491 183H350V332H491V183ZM350 332Q350 373 331 396T279 420L320 531Q369 531 407 505T468 434T491 332H350ZM157 325Q157 384 178 430T237 504T320 531L279 420Q244 420
223 394T201 325H157ZM350 183H491Q491 126 469 81T408 10T320 -16L279 95Q312 95 331 118T350 183ZM157 191H201Q201 147 222 121T279 95L320 -16Q274 -16 237 11T179 85T157 191Z"></glyph>
<glyph unicode="c" horiz-adv-x="478" d="M45 208V307H186V208H45ZM45 306Q45 371 73 421T148 501T257 531V421Q223 421 205 391T186 306H45ZM330 339Q325 379 305 400T256 421V531Q309 531 351 511T420 453T455 362L330 339ZM45 209H186Q186 155 204 125T257
94V-16Q196 -16 149 13T73 94T45 209ZM330 176L455 153Q447 101 420 63T351 5T256 -16V94Q285 94 305 115T330 176Z"></glyph>
<glyph unicode="d" horiz-adv-x="536" d="M476 513H335V715H476V513ZM335 0V515H476V0H335ZM45 183V332H186V183H45ZM186 332H45Q45 389 67 434T128 505T216 531L257 420Q224 420 205 397T186 332ZM379 325H335Q335 368 314 394T257 420L216 531Q262 531 299 504T357
431T379 325ZM186 183Q186 142 205 119T257 95L216 -16Q167 -16 129 10T68 81T45 183H186ZM379 191Q379 132 358 86T299 12T216 -16L257 95Q292 95 313 121T335 191H379Z"></glyph>
<glyph unicode="e" horiz-adv-x="496" d="M109 221V303H461V221H109ZM246 -16V94H255V-16H246ZM35 208V307H176V208H35ZM320 303V325H461V303H320ZM461 325H320Q320 369 300 395T246 421V531Q308 531 356 504T433 431T461 325ZM329 176L454 153Q446 101 419 63T350
5T255 -16V94Q284 94 304 115T329 176ZM35 306Q35 371 63 421T138 501T247 531V421Q213 421 195 391T176 306H35ZM35 209H176Q176 155 194 125T247 94V-16Q186 -16 139 13T63 94T35 209Z"></glyph>
<glyph unicode="f" horiz-adv-x="391" d="M83 0V535H224V0H83ZM25 410V515H342V410H25ZM83 535Q83 627 132 679T270 731L286 621Q267 621 253 611T232 581T224 535H83ZM331 604Q321 612 310 616T286 621L270 731Q299 731 326 723T381 694L331 604Z"></glyph>
<glyph unicode="g" horiz-adv-x="536" d="M335 -14V515H476V-14H335ZM45 203V333H186V203H45ZM186 332H45Q45 389 67 434T128 505T216 531L257 420Q224 420 205 397T186 332ZM379 325H335Q335 368 314 394T257 420L216 531Q262 531 299 504T357 431T379 325ZM186
204Q186 163 205 140T257 116L216 5Q167 5 129 31T68 102T45 204H186ZM379 212Q379 153 358 107T299 33T216 5L257 116Q292 116 313 142T335 212H379ZM476 -6Q476 -65 448 -111T371 -185T261 -212V-102Q294 -102 314 -76T335 -6H476ZM187 -20Q192 -59 212 -80T261
-102V-212Q209 -212 167 -192T98 -133T62 -43L187 -20Z"></glyph>
<glyph unicode="h" horiz-adv-x="536" d="M60 0V515H201V0H60ZM350 0V333H491V0H350ZM350 332Q350 373 331 396T279 420L320 531Q369 531 407 505T468 434T491 332H350ZM157 325Q157 384 178 430T237 504T320 531L279 420Q244 420 223 394T201 325H157ZM316 0V731H457V0H316Z"></glyph>
<glyph unicode="i" horiz-adv-x="281" d="M70 0V515H211V0H70ZM140 584Q106 584 84 606T61 663Q61 697 83 720T140 744Q174 744 197 721T221 663Q221 629 198 607T140 584Z"></glyph>
<glyph unicode="j" horiz-adv-x="301" d="M231 1Q231 -91 182 -143T44 -195L28 -85Q48 -85 61 -75T82 -45T90 1H231ZM-17 -68Q-7 -76 4 -80T28 -85L44 -195Q15 -195 -12 -187T-67 -158L-17 -68ZM90 0V515H231V0H90ZM164 584Q130 584 108 606T85 663Q85 697 107
720T164 744Q198 744 221 721T245 663Q245 629 222 607T164 584Z"></glyph>
<glyph unicode="k" horiz-adv-x="508" d="M334 0L152 283L293 312L483 0H334ZM182 160L65 207L312 515H468L182 160ZM60 0V731H201V0H60Z"></glyph>
<glyph unicode="l" horiz-adv-x="281" d="M70 0V731H211V0H70Z"></glyph>
<glyph unicode="m" horiz-adv-x="785" d="M60 0V515H201V0H60ZM330 0V333H471V0H330ZM157 325Q157 384 176 430T230 504T306 531L265 420Q237 420 219 394T201 325H157ZM330 333Q330 373 313 396T265 420L306 531Q354 531 390 505T449 435T471 333H330ZM599 0V333H740V0H599ZM426
325Q426 384 445 430T499 504T576 531L535 420Q506 420 489 394T471 325H426ZM599 333Q599 373 582 396T535 420L576 531Q623 531 660 505T718 435T740 333H599Z"></glyph>
<glyph unicode="n" horiz-adv-x="536" d="M60 0V515H201V0H60ZM350 0V333H491V0H350ZM350 332Q350 373 331 396T279 420L320 531Q369 531 407 505T468 434T491 332H350ZM157 325Q157 384 178 430T237 504T320 531L279 420Q244 420 223 394T201 325H157Z"></glyph>
<glyph unicode="o" horiz-adv-x="501" d="M325 209V306H466V209H325ZM35 209V306H176V209H35ZM245 420V530H255V420H245ZM245 -15V95H255V-15H245ZM35 305Q35 370 63 420T138 500T247 530V420Q213 420 195 390T176 305H35ZM466 305H325Q325 360 307 390T254 420V530Q315
530 362 501T438 421T466 305ZM35 210H176Q176 156 194 126T247 95V-15Q186 -15 139 14T63 95T35 210ZM466 210Q466 146 438 95T363 15T254 -15V95Q288 95 306 125T325 210H466Z"></glyph>
<glyph unicode="p" horiz-adv-x="536" d="M60 2H201V-200H60V2ZM201 515V0H60V515H201ZM491 332V183H350V332H491ZM350 183H491Q491 126 469 81T408 10T320 -16L279 95Q312 95 331 118T350 183ZM157 191H201Q201 147 222 121T279 95L320 -16Q274 -16 237 11T179
85T157 191ZM350 332Q350 373 331 396T279 420L320 531Q369 531 407 505T468 434T491 332H350ZM157 325Q157 384 178 430T237 504T320 531L279 420Q244 420 223 394T201 325H157Z"></glyph>
<glyph unicode="q" horiz-adv-x="536" d="M476 2V-200H335V2H476ZM335 515H476V0H335V515ZM45 332H186V183H45V332ZM186 183Q186 142 205 119T257 95L216 -16Q167 -16 129 10T68 81T45 183H186ZM379 191Q379 132 358 86T299 12T216 -16L257 95Q292 95 313 121T335
191H379ZM186 332H45Q45 389 67 434T128 505T216 531L257 420Q224 420 205 397T186 332ZM379 325H335Q335 368 314 394T257 420L216 531Q262 531 299 504T357 431T379 325Z"></glyph>
<glyph unicode="r" horiz-adv-x="417" d="M60 0V515H201V0H60ZM157 308Q157 372 176 422T228 500T304 529L270 404Q239 404 220 378T201 308H157ZM342 368Q329 384 309 394T270 404L304 529Q329 529 349 520T392 487L342 368Z"></glyph>
<glyph unicode="s" horiz-adv-x="468" d="M299 140Q299 160 281 173T233 198T172 223T111 256T63 303T45 373Q45 373 58 373T91 373T131 373T164 373T178 373Q178 353 196 340T244 315T305 290T367 257T414 210T433 140Q433 140 419 140T386 140T346 140T313 140T299
140ZM233 -16V95Q263 95 281 107T299 140H433Q433 93 409 58T340 3T233 -16ZM45 373Q45 418 69 454T137 510T233 531V421Q210 421 194 407T178 373H45ZM160 176Q165 137 185 116T234 95V-16Q181 -16 139 4T71 63T35 153L160 176ZM307 339Q302 379 282 400T233 421V531Q286
531 328 511T397 453T432 362L307 339Z"></glyph>
<glyph unicode="t" horiz-adv-x="411" d="M93 180V715H234V180H93ZM35 410V515H360V410H35ZM93 181H234Q234 154 241 135T263 105T296 95L280 -16Q192 -16 143 36T93 181ZM341 112L391 21Q364 2 337 -7T280 -16L296 95Q309 95 320 99T341 112Z"></glyph>
<glyph unicode="u" horiz-adv-x="536" d="M476 515V0H335V515H476ZM186 515V182H45V515H186ZM186 183Q186 142 205 119T257 95L216 -16Q167 -16 129 10T68 81T45 183H186ZM379 191Q379 132 358 86T299 12T216 -16L257 95Q292 95 313 121T335 191H379Z"></glyph>
<glyph unicode="v" horiz-adv-x="522" d="M214 0L350 515H492L334 0H214ZM189 0L30 515H172L308 0H189Z"></glyph>
<glyph unicode="w" horiz-adv-x="765" d="M480 0L593 515H735L599 0H480ZM166 0L30 515H172L285 0H166ZM207 0L328 515H436L308 0H207ZM458 0L329 515H437L558 0H458Z"></glyph>
<glyph unicode="x" horiz-adv-x="507" d="M331 0L30 515H176L477 0H331ZM30 0L181 258H326L176 0H30ZM181 258L331 515H477L326 258H181Z"></glyph>
<glyph unicode="y" horiz-adv-x="522" d="M73 -182L104 -71Q145 -82 169 -73T204 -30H324Q292 -134 231 -171T73 -182ZM205 -30L351 515H492L324 -30H205ZM211 -72L30 515H172L276 126L211 -72Z"></glyph>
<glyph unicode="z" horiz-adv-x="465" d="M55 116L260 400H410L206 116H55ZM55 0V116H410V0H55ZM55 400V515H410V400H55Z"></glyph>
<glyph unicode="{" horiz-adv-x="332" d="M121 502V575H262V502H121ZM121 90V164H262V90H121ZM121 575Q121 640 148 690T224 770T332 800V690Q299 690 281 660T262 575H121ZM121 91H262Q262 37 280 7T332 -24V-134Q272 -134 224 -105T149 -24T121 91ZM262 502Q262
439 234 388T159 307T50 277V388Q84 388 102 418T121 502H262ZM262 163H121Q121 217 103 247T50 278V388Q111 388 158 359T234 279T262 163Z"></glyph>
<glyph unicode="|" horiz-adv-x="278" d="M70 -100V780H208V-100H70Z"></glyph>
<glyph unicode="}" horiz-adv-x="332" d="M212 502H71V575H212V502ZM212 90H71V164H212V90ZM212 575H71Q71 630 53 660T0 690V800Q61 800 108 771T184 691T212 575ZM212 91Q212 27 184 -24T109 -104T0 -134V-24Q34 -24 52 6T71 91H212ZM71 502H212Q212 448 230
418T282 388V277Q222 277 174 306T99 387T71 502ZM71 163Q71 228 98 278T174 358T282 388V278Q249 278 231 248T212 163H71Z"></glyph>
<glyph unicode="~" horiz-adv-x="542" d="M363 208Q336 208 316 216T279 236T247 260T216 280T179 288V387Q206 387 226 379T263 359T295 335T326 315T363 307V208ZM30 245Q32 311 71 349T179 387V288Q158 288 146 277T132 245H30ZM363 208V307Q385 307 397 318T410
350H512Q511 283 472 246T363 208Z"></glyph>
<glyph unicode="&#xa0;" horiz-adv-x="203"></glyph>
<glyph unicode="&#xa1;" horiz-adv-x="260" d="M129 712Q163 712 186 690T210 633Q210 600 187 576T129 552Q95 552 73 576T50 633Q50 668 72 690T129 712ZM73 479H187L200 -15H59L73 479Z"></glyph>
<glyph unicode="&#xa2;" horiz-adv-x="436" d="M172 5V142H286V5H172ZM172 545V682H286V545H172ZM45 300V388H172V300H45ZM45 387Q45 445 69 491T137 563T235 590V491Q205 491 189 464T172 387H45ZM301 417Q296 453 278 472T234 491V590Q282 590 319 572T381 519T413
438L301 417ZM45 301H172Q172 251 188 224T235 197V98Q180 98 137 124T70 196T45 301ZM301 270L413 250Q406 203 382 169T320 117T234 98V197Q260 197 278 215T301 270Z"></glyph>
<glyph unicode="&#xa3;" horiz-adv-x="570" d="M160 477Q160 594 227 660T415 726L423 618Q385 619 358 603T316 554T301 477H160ZM78 0V110H530V0H78ZM160 205V477H301V205H160ZM64 313V418H457V313H64ZM490 598Q477 608 460 613T423 618L415 726Q444 726 476
719T529 697L490 598ZM301 206Q301 147 273 101T196 27T86 0V110Q119 110 139 136T160 206H301Z"></glyph>
<glyph unicode="&#xa4;" horiz-adv-x="581" d="M426 400L349 476L454 580L531 504L426 400ZM126 100L50 177L155 281L231 205L126 100ZM155 400L50 504L126 580L231 476L155 400ZM454 100L349 205L426 281L531 177L454 100ZM291 170V272Q315 272 329 292T344 341H471Q471
293 448 254T384 192T291 170ZM291 170Q240 170 200 192T136 253T113 341H239Q239 312 254 292T291 272V170ZM113 341Q113 390 136 428T199 489T291 512V410Q269 410 254 391T239 341H113ZM344 341Q344 371 330 390T291 410V512Q343 512 383 490T447 429T471 341H344Z"></glyph>
<glyph unicode="&#xa5;" horiz-adv-x="593" d="M74 284V374H485V284H74ZM74 148V238H485V148H74ZM235 253L408 715H533L360 253H235ZM234 0V253H360V0H234ZM234 253L62 715H210L360 253H234Z"></glyph>
<glyph unicode="&#xa6;" horiz-adv-x="278" d="M70 387V777H208V387H70ZM70 -103V287H208V-103H70Z"></glyph>
<glyph unicode="&#xa7;" horiz-adv-x="478" d="M309 326Q309 346 291 359T243 385T182 410T120 442T73 489T54 559Q54 559 68 559T101 559T141 559T174 559T188 559Q188 539 206 526T254 501T315 476T376 443T424 396T442 326Q442 326 429 326T396 326T356 326T323
326T309 326ZM243 171V281Q273 281 291 293T309 326H442Q442 279 418 244T350 190T243 171ZM54 559Q54 605 79 640T146 696T243 717V607Q220 607 204 594T188 559H54ZM170 363Q175 323 195 302T244 281V171Q191 171 149 191T81 249T45 340L170 363ZM317 525Q312
566 292 586T242 607V717Q296 717 338 697T406 639T441 548L317 525ZM169 332Q169 313 187 300T235 274T296 249T358 217T405 170T424 100Q424 100 410 100T377 100T337 100T304 100T290 100Q290 119 272 132T224 158T163 183T102 216T54 263T36 332Q36 332 49
332T82 332T122 332T155 332T169 332ZM235 488V378Q205 378 187 366T169 332H36Q36 381 60 415T129 469T235 488ZM424 100Q424 54 399 19T332 -38T235 -59V52Q259 52 274 65T290 100H424ZM308 296Q303 336 284 357T234 378V488Q288 488 329 468T398 410T433 319L308
296ZM161 133Q166 94 186 73T236 52V-59Q183 -59 141 -39T72 20T37 110L161 133ZM309 326Q309 346 291 359T243 385T182 410T120 442T73 489T54 559Q54 559 68 559T101 559T141 559T174 559T188 559Q188 539 206 526T254 501T315 476T376 443T424 396T442 326Q442
326 429 326T396 326T356 326T323 326T309 326ZM243 171V281Q273 281 291 293T309 326H442Q442 279 418 244T350 190T243 171ZM54 559Q54 605 79 640T146 696T243 717V607Q220 607 204 594T188 559H54ZM170 363Q175 323 195 302T244 281V171Q191 171 149 191T81
249T45 340L170 363ZM317 525Q312 566 292 586T242 607V717Q296 717 338 697T406 639T441 548L317 525Z"></glyph>
<glyph unicode="&#xa8;" horiz-adv-x="449" d="M132 530Q105 530 88 547T70 592Q70 618 87 637T132 656Q158 656 177 637T196 592Q196 565 177 548T132 530ZM314 530Q287 530 270 547T253 592Q253 618 270 637T314 656Q341 656 360 637T379 592Q379 565 360 548T314 530Z"></glyph>
<glyph unicode="&#xa9;" horiz-adv-x="830" d="M666 375Q666 459 636 519T549 611T414 643V740Q530 740 612 696T740 571T785 375H666ZM414 -59Q299 -59 216 -15T89 110T45 305H165Q165 221 195 161T281 70T414 38V-59ZM45 305V375H165V305H45ZM414 -59V38Q493
38 549 70T635 162T666 305H785Q785 192 740 111T613 -15T414 -59ZM45 375Q45 489 89 570T216 696T414 740V643Q337 644 281 612T195 519T165 375H45ZM666 305V375H785V305H666ZM262 302V379H368V302H262ZM262 378Q262 427 283 466T340 527T423 550V466Q397 466
383 443T368 378H262ZM479 403Q475 434 460 450T422 466V550Q483 550 523 515T574 421L479 403ZM262 303H368Q368 262 382 239T423 215V131Q376 131 340 153T283 215T262 303ZM479 278L574 260Q564 201 524 166T422 131V215Q444 215 459 231T479 278Z"></glyph>
<glyph unicode="&#xaa;" horiz-adv-x="409" d="M259 319V569H364V319H259ZM170 308L188 387Q208 387 224 397T249 428T259 477L303 482Q303 432 285 393T237 331T170 308ZM170 308Q134 308 106 323T61 366T45 429L139 434Q139 414 153 401T188 387L170 308ZM45
429Q45 463 64 490T115 534T189 550L201 483Q172 483 156 470T139 434L45 429ZM201 483L189 550H285V483H201ZM259 477V563H303V482L259 477ZM364 563H259Q259 595 244 615T203 635V717Q249 717 285 697T343 642T364 563ZM148 573L55 591Q64 649 104 683T203 717V635Q182
635 167 619T148 573Z"></glyph>
<glyph unicode="&#xab;" horiz-adv-x="725" d="M150 219V360L403 551V416L150 219ZM150 167L20 263L150 360V167ZM403 -24L150 167V307L403 110V-24ZM453 219V360L706 551V416L453 219ZM453 167L323 263L453 360V167ZM706 -24L453 167V307L706 110V-24Z"></glyph>
<glyph unicode="&#xac;" horiz-adv-x="498" d="M35 340V451H463V340H35ZM322 211V451H463V211H322Z"></glyph>
<glyph unicode="&#xad;" horiz-adv-x="408" d="M50 277V388H358V277H50Z"></glyph>
<glyph unicode="&#xae;" horiz-adv-x="568" d="M285 204Q211 204 157 234T75 320T45 454H121Q121 398 141 356T197 290T285 266V204ZM45 454V481H121V454H45ZM285 204V266Q335 266 371 289T427 355T447 454H523Q523 376 495 321T413 235T285 204ZM45 481Q46 559
74 614T157 699T285 729V668Q234 668 198 645T141 579T121 481H45ZM447 454V481H523V454H447ZM447 481Q447 537 428 579T372 644T285 668V729Q359 729 412 700T494 615T523 481H447ZM205 328V607H268V328H205ZM331 328L276 459H337L391 328H331ZM261 435V478H289V435H261ZM261
564V607H289V564H261ZM323 513V528H386V513H323ZM386 528H323Q323 545 314 554T289 564V607Q330 607 358 585T386 528ZM386 514Q386 480 358 458T289 435V478Q305 478 314 487T323 514H386Z"></glyph>
<glyph unicode="&#xaf;" horiz-adv-x="448" d="M70 632V715H378V632H70Z"></glyph>
<glyph unicode="&#xb0;" horiz-adv-x="423" d="M211 475V566Q232 566 245 584T259 629H373Q373 585 352 550T294 495T211 475ZM211 475Q165 475 129 495T71 550T50 629H164Q164 602 177 584T211 566V475ZM50 629Q50 673 71 708T128 763T211 783V691Q191 691 178
674T164 629H50ZM259 629Q259 656 246 673T211 691V783Q257 783 294 763T352 708T373 629H259Z"></glyph>
<glyph unicode="&#xb1;" horiz-adv-x="488" d="M179 204V632H309V204H179ZM30 365V476H458V365H30ZM30 30V141H458V30H30Z"></glyph>
<glyph unicode="&#xb2;" horiz-adv-x="296" d="M65 503Q65 537 76 559T104 596T138 625T166 653T177 691Q177 691 187 691T209 691T231 691T241 691Q241 658 230 638T202 604T168 576T139 546T126 503H65ZM65 453V503H240V453H65ZM111 697L55 707Q60 742 84 762T145
783V734Q132 734 123 725T111 697ZM241 690H177Q177 710 168 722T145 734V783Q186 783 213 757T241 690Z"></glyph>
<glyph unicode="&#xb3;" horiz-adv-x="299" d="M144 596V645Q158 645 166 657T175 690H238Q238 646 213 621T144 596ZM180 538V553H244V538H180ZM117 596V645H145V596H117ZM175 690Q175 709 167 720T144 732V782Q187 782 212 757T238 690H175ZM244 539Q244 499
217 473T147 446V496Q162 496 171 507T180 539H244ZM244 552H180Q180 572 171 584T147 596V645Q189 645 216 619T244 552ZM111 696L55 705Q60 741 84 761T145 782V732Q131 732 122 723T111 696ZM114 532Q117 514 126 505T148 496V446Q112 446 88 466T58 522L114
532Z"></glyph>
<glyph unicode="&#xb4;" horiz-adv-x="328" d="M166 557H70L135 700H258L166 557Z"></glyph>
<glyph unicode="&#xb5;" horiz-adv-x="536" d="M357 0L335 87V515H476V0H357ZM186 168Q186 127 205 104T257 80L216 -31Q167 -31 129 -5T68 66T45 168H186ZM379 176Q379 117 358 71T299 -3T216 -31L257 80Q292 80 313 106T335 176H379ZM45 -200V515H186V-200H45Z"></glyph>
<glyph unicode="&#xb6;" horiz-adv-x="634" d="M246 295Q186 295 139 324T63 402T35 513Q35 573 63 620T138 695T246 723V295ZM246 -200V723H372V-200H246ZM448 -200V723H574V-200H448ZM246 612V723H507V612H246Z"></glyph>
<glyph unicode="&#xb7;" horiz-adv-x="260" d="M129 268Q95 268 73 290T50 347Q50 381 72 404T129 428Q163 428 186 405T210 347Q210 313 187 291T129 268Z"></glyph>
<glyph unicode="&#xb8;" horiz-adv-x="378" d="M181 -180Q146 -180 120 -172T70 -151L96 -85Q126 -96 147 -97T178 -89T181 -56H307Q316 -119 280 -149T181 -180ZM181 -56Q175 -33 168 -17T152 15H281Q290 2 296 -14T307 -56H181Z"></glyph>
<glyph unicode="&#xb9;" horiz-adv-x="207" d="M89 453V775H152V453H89ZM53 660L18 697L89 775V700L53 660Z"></glyph>
<glyph unicode="&#xba;" horiz-adv-x="413" d="M263 489V562H368V489H263ZM45 489V562H151V489H45ZM203 647V729H210V647H203ZM203 321V403H210V321H203ZM45 561Q45 609 66 647T123 707T204 729V647Q179 647 165 625T151 561H45ZM368 561H263Q263 602 249 624T210
647V729Q255 729 291 707T347 647T368 561ZM45 490H151Q151 449 165 426T204 403V321Q159 321 123 343T66 403T45 490ZM368 490Q368 441 348 403T291 343T210 321V403Q234 403 248 426T263 490H368Z"></glyph>
<glyph unicode="&#xbb;" horiz-adv-x="725" d="M575 219L323 416V551L575 360V219ZM575 167V360L705 263L575 167ZM323 -24V110L575 307V167L323 -24ZM273 219L20 416V551L273 360V219ZM273 167V360L403 263L273 167ZM20 -24V110L273 307V167L20 -24Z"></glyph>
<glyph unicode="&#xbc;" horiz-adv-x="884" d="M122 297V769H215V297H122ZM69 601L18 655L122 769V659L69 601ZM528 161L638 472H731L621 161H528ZM528 88V161H829V88H528ZM697 0V263H783V0H697ZM220 -15L531 791H614L303 -15H220Z"></glyph>
<glyph unicode="&#xbd;" horiz-adv-x="896" d="M122 297V769H215V297H122ZM69 601L18 655L122 769V659L69 601ZM581 73Q582 124 599 156T641 211T690 253T731 294T748 348Q748 348 762 348T794 348T827 348T841 348Q841 301 825 271T783 220T733 180T691 137T673
73H581ZM581 0V73H838V0H581ZM650 357L569 373Q577 425 612 454T700 484V412Q681 412 668 398T650 357ZM841 348H748Q748 377 735 394T699 412V484Q739 484 771 467T822 418T841 348ZM220 -15L531 791H614L303 -15H220Z"></glyph>
<glyph unicode="&#xbe;" horiz-adv-x="1002" d="M186 505V578Q207 578 219 596T231 645H324Q324 580 287 543T186 505ZM240 422V443H333V422H240ZM146 505V578H187V505H146ZM231 644Q231 673 219 689T186 706V779Q250 779 287 743T324 644H231ZM333 423Q333 384
315 353T264 304T191 286V360Q213 360 226 376T240 423H333ZM333 442H240Q240 471 227 488T191 505V578Q231 578 263 560T314 512T333 442ZM138 652L55 667Q63 719 98 749T187 779V706Q167 706 154 693T138 652ZM142 413Q146 387 159 374T192 360V286Q139 286 104
316T60 398L142 413ZM646 161L756 472H849L739 161H646ZM646 88V161H947V88H646ZM815 0V263H901V0H815ZM338 -15L649 791H732L421 -15H338Z"></glyph>
<glyph unicode="&#xbf;" horiz-adv-x="475" d="M257 727Q291 727 313 705T336 648Q336 615 314 591T257 567Q224 567 200 591T176 648Q176 683 200 705T257 727ZM325 486Q325 437 311 402T277 339T237 288T202 238T188 178Q188 138 204 120T248 101Q265 101 276
109T293 136T299 184H440Q440 127 415 82T347 11T248 -15Q191 -15 147 10T76 79T50 178Q50 218 64 247T98 301T139 350T173 408T187 486H325ZM325 509V486H187V509H325Z"></glyph>
<glyph unicode="&#xc0;" horiz-adv-x="552" d="M166 122V232H422V122H166ZM343 715L167 0H30L207 715H343ZM345 715L522 0H386L209 715H345ZM215 757L123 900H246L311 757H215Z"></glyph>
<glyph unicode="&#xc1;" horiz-adv-x="552" d="M297 757H201L266 900H389L297 757ZM166 122V232H422V122H166ZM343 715L167 0H30L207 715H343ZM345 715L522 0H386L209 715H345Z"></glyph>
<glyph unicode="&#xc2;" horiz-adv-x="552" d="M206 915H302L237 772H114L206 915ZM344 915L436 772H313L248 915H344ZM166 122V232H422V122H166ZM343 715L167 0H30L207 715H343ZM345 715L522 0H386L209 715H345Z"></glyph>
<glyph unicode="&#xc3;" horiz-adv-x="552" d="M166 122V232H422V122H166ZM343 715L167 0H30L207 715H343ZM345 715L522 0H386L209 715H345ZM336 769Q309 769 293 778T265 799T243 820T214 830V905Q241 905 257 896T284 875T307 854T336 844V769ZM102 790Q102
844 131 874T214 905V830Q202 830 195 820T188 790H102ZM336 769V844Q348 844 355 855T362 884H448Q448 830 419 800T336 769Z"></glyph>
<glyph unicode="&#xc4;" horiz-adv-x="552" d="M166 122V232H422V122H166ZM343 715L167 0H30L207 715H343ZM345 715L522 0H386L209 715H345ZM183 765Q156 765 139 782T121 827Q121 853 138 872T183 891Q209 891 228 872T247 827Q247 800 228 783T183 765ZM365
765Q338 765 321 782T304 827Q304 853 321 872T365 891Q392 891 411 872T430 827Q430 800 411 783T365 765Z"></glyph>
<glyph unicode="&#xc5;" horiz-adv-x="552" d="M166 122V232H422V122H166ZM343 715L167 0H30L207 715H343ZM345 715L522 0H386L209 715H345ZM309 872Q309 888 300 898T276 909V972Q323 972 355 944T387 872H309ZM276 772Q228 772 196 801T164 872H242Q242 857
251 846T276 835V772ZM276 772V835Q290 835 299 846T309 872H387Q387 830 355 801T276 772ZM164 872Q164 915 196 943T276 972V909Q261 909 252 899T242 872H164Z"></glyph>
<glyph unicode="&#xc6;" horiz-adv-x="762" d="M222 605L247 715H471L446 605H222ZM122 139L133 234H463L452 139H122ZM30 0L213 715H349L167 0H30ZM466 302V413H662V302H466ZM360 715H501V0H360V715ZM471 715H712V605H471V715ZM461 0V110H722V0H461Z"></glyph>
<glyph unicode="&#xc7;" horiz-adv-x="529" d="M50 186V529H191V186H50ZM50 529Q50 587 79 633T158 705T273 731V621Q235 621 213 597T191 529H50ZM50 187H191Q191 143 213 119T273 94V-16Q209 -16 159 10T79 82T50 187ZM372 497Q368 555 342 588T272 621V731Q369
731 428 676T499 520L372 497ZM372 218L499 196Q488 96 429 40T272 -16V94Q315 94 341 127T372 218ZM296 -180Q261 -180 235 -172T185 -151L211 -85Q241 -96 262 -97T293 -89T296 -56H422Q431 -119 395 -149T296 -180ZM296 -56Q290 -33 283 -17T267 15H396Q405
2 411 -14T422 -56H296Z"></glyph>
<glyph unicode="&#xc8;" horiz-adv-x="463" d="M161 0V110H423V0H161ZM166 302V413H363V302H166ZM60 715H201V0H60V715ZM171 715H413V605H171V715ZM171 757L79 900H202L267 757H171Z"></glyph>
<glyph unicode="&#xc9;" horiz-adv-x="463" d="M253 757H157L222 900H345L253 757ZM161 0V110H423V0H161ZM166 302V413H363V302H166ZM60 715H201V0H60V715ZM171 715H413V605H171V715Z"></glyph>
<glyph unicode="&#xca;" horiz-adv-x="463" d="M162 915H258L193 772H70L162 915ZM300 915L392 772H269L204 915H300ZM161 0V110H423V0H161ZM166 302V413H363V302H166ZM60 715H201V0H60V715ZM171 715H413V605H171V715Z"></glyph>
<glyph unicode="&#xcb;" horiz-adv-x="463" d="M161 0V110H423V0H161ZM166 302V413H363V302H166ZM60 715H201V0H60V715ZM171 715H413V605H171V715ZM139 765Q112 765 95 782T77 827Q77 853 94 872T139 891Q165 891 184 872T203 827Q203 800 184 783T139 765ZM321
765Q294 765 277 782T260 827Q260 853 277 872T321 891Q348 891 367 872T386 827Q386 800 367 783T321 765Z"></glyph>
<glyph unicode="&#xcc;" horiz-adv-x="281" d="M70 0V715H211V0H70ZM81 757L-11 900H112L177 757H81Z"></glyph>
<glyph unicode="&#xcd;" horiz-adv-x="281" d="M162 757H66L131 900H254L162 757ZM70 0V715H211V0H70Z"></glyph>
<glyph unicode="&#xce;" horiz-adv-x="281" d="M71 915H167L102 772H-21L71 915ZM209 915L301 772H178L113 915H209ZM70 0V715H211V0H70Z"></glyph>
<glyph unicode="&#xcf;" horiz-adv-x="281" d="M70 0V715H211V0H70ZM49 765Q22 765 5 782T-13 827Q-13 853 4 872T49 891Q75 891 94 872T113 827Q113 800 94 783T49 765ZM231 765Q204 765 187 782T170 827Q170 853 187 872T231 891Q258 891 277 872T296 827Q296
800 277 783T231 765Z"></glyph>
<glyph unicode="&#xd0;" horiz-adv-x="535" d="M339 201V513H480V201H339ZM179 0V110H258V0H179ZM179 605V715H258V605H179ZM179 605V715H258V605H179ZM480 513H339Q339 557 318 581T258 605V715Q322 715 372 689T451 617T480 513ZM480 203Q480 144 451 99T372
27T258 0V110Q296 110 317 134T339 203H480ZM60 0V715H201V0H60ZM231 316V401H509V316H231Z"></glyph>
<glyph unicode="&#xd1;" horiz-adv-x="603" d="M368 0L84 715H207L491 0H368ZM60 0V715H201V0H60ZM402 0V715H543V0H402ZM343 769Q316 769 300 778T272 799T250 820T221 830V905Q248 905 264 896T291 875T314 854T343 844V769ZM109 790Q109 844 138 874T221 905V830Q209
830 202 820T195 790H109ZM343 769V844Q355 844 362 855T369 884H455Q455 830 426 800T343 769Z"></glyph>
<glyph unicode="&#xd2;" horiz-adv-x="554" d="M358 187V529H499V187H358ZM55 187V529H196V187H55ZM499 528H358Q358 572 336 596T276 620V730Q340 730 390 704T470 632T499 528ZM55 528Q55 586 84 632T163 704T278 730V620Q240 620 218 596T196 528H55ZM499 188Q499
129 470 84T391 12T276 -15V95Q314 95 336 119T358 188H499ZM55 188H196Q196 144 218 120T278 95V-15Q214 -15 164 11T84 83T55 188ZM217 757L125 900H248L313 757H217Z"></glyph>
<glyph unicode="&#xd3;" horiz-adv-x="554" d="M298 757H202L267 900H390L298 757ZM358 187V529H499V187H358ZM55 187V529H196V187H55ZM499 528H358Q358 572 336 596T276 620V730Q340 730 390 704T470 632T499 528ZM55 528Q55 586 84 632T163 704T278 730V620Q240
620 218 596T196 528H55ZM499 188Q499 129 470 84T391 12T276 -15V95Q314 95 336 119T358 188H499ZM55 188H196Q196 144 218 120T278 95V-15Q214 -15 164 11T84 83T55 188Z"></glyph>
<glyph unicode="&#xd4;" horiz-adv-x="554" d="M207 915H303L238 772H115L207 915ZM345 915L437 772H314L249 915H345ZM358 187V529H499V187H358ZM55 187V529H196V187H55ZM499 528H358Q358 572 336 596T276 620V730Q340 730 390 704T470 632T499 528ZM55 528Q55
586 84 632T163 704T278 730V620Q240 620 218 596T196 528H55ZM499 188Q499 129 470 84T391 12T276 -15V95Q314 95 336 119T358 188H499ZM55 188H196Q196 144 218 120T278 95V-15Q214 -15 164 11T84 83T55 188Z"></glyph>
<glyph unicode="&#xd5;" horiz-adv-x="554" d="M358 187V529H499V187H358ZM55 187V529H196V187H55ZM499 528H358Q358 572 336 596T276 620V730Q340 730 390 704T470 632T499 528ZM55 528Q55 586 84 632T163 704T278 730V620Q240 620 218 596T196 528H55ZM499 188Q499
129 470 84T391 12T276 -15V95Q314 95 336 119T358 188H499ZM55 188H196Q196 144 218 120T278 95V-15Q214 -15 164 11T84 83T55 188ZM338 769Q311 769 295 778T267 799T245 820T216 830V905Q243 905 259 896T286 875T309 854T338 844V769ZM104 790Q104 844 133
874T216 905V830Q204 830 197 820T190 790H104ZM338 769V844Q350 844 357 855T364 884H450Q450 830 421 800T338 769Z"></glyph>
<glyph unicode="&#xd6;" horiz-adv-x="554" d="M358 187V529H499V187H358ZM55 187V529H196V187H55ZM499 528H358Q358 572 336 596T276 620V730Q340 730 390 704T470 632T499 528ZM55 528Q55 586 84 632T163 704T278 730V620Q240 620 218 596T196 528H55ZM499 188Q499
129 470 84T391 12T276 -15V95Q314 95 336 119T358 188H499ZM55 188H196Q196 144 218 120T278 95V-15Q214 -15 164 11T84 83T55 188ZM185 765Q158 765 141 782T123 827Q123 853 140 872T185 891Q211 891 230 872T249 827Q249 800 230 783T185 765ZM367 765Q340
765 323 782T306 827Q306 853 323 872T367 891Q394 891 413 872T432 827Q432 800 413 783T367 765Z"></glyph>
<glyph unicode="&#xd7;" horiz-adv-x="444" d="M322 141L30 433L122 525L414 233L322 141ZM109 144L30 222L332 525L411 446L109 144Z"></glyph>
<glyph unicode="&#xd8;" horiz-adv-x="554" d="M358 187V529H499V187H358ZM55 187V529H196V187H55ZM499 528H358Q358 572 336 596T276 620V730Q340 730 390 704T470 632T499 528ZM55 528Q55 586 84 632T163 704T278 730V620Q240 620 218 596T196 528H55ZM499 188Q499
129 470 84T391 12T276 -15V95Q314 95 336 119T358 188H499ZM55 188H196Q196 144 218 120T278 95V-15Q214 -15 164 11T84 83T55 188ZM113 -45L383 761H440L170 -45H113Z"></glyph>
<glyph unicode="&#xd9;" horiz-adv-x="563" d="M362 186V715H503V186H362ZM60 186V715H201V186H60ZM503 187Q503 128 474 83T395 11T281 -16V95Q319 95 340 119T362 187H503ZM60 187H201Q201 143 223 119T283 95V-16Q219 -16 169 10T89 82T60 187ZM222 757L130
900H253L318 757H222Z"></glyph>
<glyph unicode="&#xda;" horiz-adv-x="563" d="M303 757H207L272 900H395L303 757ZM362 186V715H503V186H362ZM60 186V715H201V186H60ZM503 187Q503 128 474 83T395 11T281 -16V95Q319 95 340 119T362 187H503ZM60 187H201Q201 143 223 119T283 95V-16Q219 -16
169 10T89 82T60 187Z"></glyph>
<glyph unicode="&#xdb;" horiz-adv-x="563" d="M212 915H308L243 772H120L212 915ZM350 915L442 772H319L254 915H350ZM362 186V715H503V186H362ZM60 186V715H201V186H60ZM503 187Q503 128 474 83T395 11T281 -16V95Q319 95 340 119T362 187H503ZM60 187H201Q201
143 223 119T283 95V-16Q219 -16 169 10T89 82T60 187Z"></glyph>
<glyph unicode="&#xdc;" horiz-adv-x="563" d="M362 186V715H503V186H362ZM60 186V715H201V186H60ZM503 187Q503 128 474 83T395 11T281 -16V95Q319 95 340 119T362 187H503ZM60 187H201Q201 143 223 119T283 95V-16Q219 -16 169 10T89 82T60 187ZM190 765Q163
765 146 782T128 827Q128 853 145 872T190 891Q216 891 235 872T254 827Q254 800 235 783T190 765ZM372 765Q345 765 328 782T311 827Q311 853 328 872T372 891Q399 891 418 872T437 827Q437 800 418 783T372 765Z"></glyph>
<glyph unicode="&#xdd;" horiz-adv-x="531" d="M287 772H191L256 915H379L287 772ZM203 253L376 715H501L329 253H203ZM203 0V253H329V0H203ZM203 253L30 715H179L329 253H203Z"></glyph>
<glyph unicode="&#xde;" horiz-adv-x="495" d="M176 473V583H243V473H176ZM176 132V242H243V132H176ZM324 334V381H465V334H324ZM465 381H324Q324 425 303 449T243 473V583Q307 583 357 557T436 485T465 381ZM465 334Q465 276 436 230T357 158T243 132V242Q281
242 302 266T324 334H465ZM60 0V715H201V0H60Z"></glyph>
<glyph unicode="&#xdf;" horiz-adv-x="542" d="M60 0V510H193V0H60ZM230 -11L247 96H288V-11H230ZM237 299V406H279V299H237ZM365 172V223H497V172H365ZM350 482V511H482V482H350ZM60 510Q60 564 87 605T162 670T272 693V586Q237 586 215 565T193 510H60ZM482
510H350Q350 543 328 564T271 586V693Q333 693 380 670T455 606T482 510ZM482 483Q482 429 455 388T381 323T271 299V406Q305 406 327 427T350 483H482ZM497 222H365Q365 256 343 277T286 299V406Q348 406 395 383T470 318T497 222ZM497 173Q497 119 470 78T396
13T286 -11V96Q320 96 342 117T365 173H497Z"></glyph>
<glyph unicode="&#xe0;" horiz-adv-x="516" d="M330 0V333H471V0H330ZM213 -15L235 90Q263 90 284 104T317 146T330 211L389 218Q389 151 365 98T301 15T213 -15ZM213 -15Q164 -15 126 6T67 63T45 146L171 153Q171 126 190 108T235 90L213 -15ZM45 146Q45 193
70 229T139 286T238 308L253 218Q215 218 193 201T171 153L45 146ZM253 218L238 308H366V218H253ZM330 211V326H389V218L330 211ZM471 325H330Q330 369 310 395T256 421V531Q318 531 366 504T443 431T471 325ZM182 339L58 362Q66 415 92 452T161 510T257 531V421Q228
421 208 400T182 339ZM197 560L105 703H228L293 560H197Z"></glyph>
<glyph unicode="&#xe1;" horiz-adv-x="516" d="M279 560H183L248 703H371L279 560ZM330 0V333H471V0H330ZM213 -15L235 90Q263 90 284 104T317 146T330 211L389 218Q389 151 365 98T301 15T213 -15ZM213 -15Q164 -15 126 6T67 63T45 146L171 153Q171 126 190 108T235
90L213 -15ZM45 146Q45 193 70 229T139 286T238 308L253 218Q215 218 193 201T171 153L45 146ZM253 218L238 308H366V218H253ZM330 211V326H389V218L330 211ZM471 325H330Q330 369 310 395T256 421V531Q318 531 366 504T443 431T471 325ZM182 339L58 362Q66 415
92 452T161 510T257 531V421Q228 421 208 400T182 339Z"></glyph>
<glyph unicode="&#xe2;" horiz-adv-x="516" d="M188 718H284L219 575H96L188 718ZM326 718L418 575H295L230 718H326ZM330 0V333H471V0H330ZM213 -15L235 90Q263 90 284 104T317 146T330 211L389 218Q389 151 365 98T301 15T213 -15ZM213 -15Q164 -15 126 6T67
63T45 146L171 153Q171 126 190 108T235 90L213 -15ZM45 146Q45 193 70 229T139 286T238 308L253 218Q215 218 193 201T171 153L45 146ZM253 218L238 308H366V218H253ZM330 211V326H389V218L330 211ZM471 325H330Q330 369 310 395T256 421V531Q318 531 366 504T443
431T471 325ZM182 339L58 362Q66 415 92 452T161 510T257 531V421Q228 421 208 400T182 339Z"></glyph>
<glyph unicode="&#xe3;" horiz-adv-x="516" d="M330 0V333H471V0H330ZM213 -15L235 90Q263 90 284 104T317 146T330 211L389 218Q389 151 365 98T301 15T213 -15ZM213 -15Q164 -15 126 6T67 63T45 146L171 153Q171 126 190 108T235 90L213 -15ZM45 146Q45 193
70 229T139 286T238 308L253 218Q215 218 193 201T171 153L45 146ZM253 218L238 308H366V218H253ZM330 211V326H389V218L330 211ZM471 325H330Q330 369 310 395T256 421V531Q318 531 366 504T443 431T471 325ZM182 339L58 362Q66 415 92 452T161 510T257 531V421Q228
421 208 400T182 339ZM318 572Q291 572 275 581T247 602T225 623T196 633V708Q223 708 239 699T266 678T289 657T318 647V572ZM84 593Q84 647 113 677T196 708V633Q184 633 177 623T170 593H84ZM318 572V647Q330 647 337 658T344 687H430Q430 633 401 603T318 572Z"></glyph>
<glyph unicode="&#xe4;" horiz-adv-x="516" d="M330 0V333H471V0H330ZM213 -15L235 90Q263 90 284 104T317 146T330 211L389 218Q389 151 365 98T301 15T213 -15ZM213 -15Q164 -15 126 6T67 63T45 146L171 153Q171 126 190 108T235 90L213 -15ZM45 146Q45 193
70 229T139 286T238 308L253 218Q215 218 193 201T171 153L45 146ZM253 218L238 308H366V218H253ZM330 211V326H389V218L330 211ZM471 325H330Q330 369 310 395T256 421V531Q318 531 366 504T443 431T471 325ZM182 339L58 362Q66 415 92 452T161 510T257 531V421Q228
421 208 400T182 339ZM165 568Q138 568 121 585T103 630Q103 656 120 675T165 694Q191 694 210 675T229 630Q229 603 210 586T165 568ZM347 568Q320 568 303 585T286 630Q286 656 303 675T347 694Q374 694 393 675T412 630Q412 603 393 586T347 568Z"></glyph>
<glyph unicode="&#xe5;" horiz-adv-x="516" d="M330 0V333H471V0H330ZM213 -15L235 90Q263 90 284 104T317 146T330 211L389 218Q389 151 365 98T301 15T213 -15ZM213 -15Q164 -15 126 6T67 63T45 146L171 153Q171 126 190 108T235 90L213 -15ZM45 146Q45 193
70 229T139 286T238 308L253 218Q215 218 193 201T171 153L45 146ZM253 218L238 308H366V218H253ZM330 211V326H389V218L330 211ZM471 325H330Q330 369 310 395T256 421V531Q318 531 366 504T443 431T471 325ZM182 339L58 362Q66 415 92 452T161 510T257 531V421Q228
421 208 400T182 339ZM291 674Q291 690 282 700T258 711V774Q305 774 337 746T369 674H291ZM258 574Q210 574 178 603T146 674H224Q224 659 233 648T258 637V574ZM258 574V637Q272 637 281 648T291 674H369Q369 632 337 603T258 574ZM146 674Q146 717 178 745T258
774V711Q243 711 234 701T224 674H146Z"></glyph>
<glyph unicode="&#xe6;" horiz-adv-x="812" d="M225 -15L248 90Q278 90 298 101T329 134T340 188L442 196Q442 136 413 88T334 13T225 -15ZM213 -15L235 90Q263 90 284 104T317 146T330 211L389 218Q389 151 365 98T301 15T213 -15ZM213 -15Q164 -15 126 6T67
63T45 146L171 153Q171 126 190 108T235 90L213 -15ZM45 146Q45 193 70 229T139 286T238 308L253 218Q215 218 193 201T171 153L45 146ZM253 218L238 308H366V218H253ZM330 211V326H389V218L330 211ZM471 325H330Q330 369 310 395T256 421V531Q318 531 366 504T443
431T471 325ZM182 339L58 362Q66 415 92 452T161 510T257 531V421Q228 421 208 400T182 339ZM424 221V303H777V221H424ZM562 -16V94H570V-16H562ZM351 208V307H492V208H351ZM636 303V325H777V303H636ZM777 325H636Q636 369 616 395T561 421V531Q623 531 671 504T748
431T777 325ZM644 176L769 153Q761 101 734 63T666 5T570 -16V94Q600 94 619 115T644 176ZM351 306Q351 371 378 421T454 501T562 531V421Q529 421 511 391T492 306H351ZM351 209H492Q492 155 510 125T562 94V-16Q502 -16 454 13T379 94T351 209Z"></glyph>
<glyph unicode="&#xe7;" horiz-adv-x="478" d="M45 208V307H186V208H45ZM45 306Q45 371 73 421T148 501T257 531V421Q223 421 205 391T186 306H45ZM330 339Q325 379 305 400T256 421V531Q309 531 351 511T420 453T455 362L330 339ZM45 209H186Q186 155 204 125T257
94V-16Q196 -16 149 13T73 94T45 209ZM330 176L455 153Q447 101 420 63T351 5T256 -16V94Q285 94 305 115T330 176ZM285 -180Q250 -180 224 -172T174 -151L200 -85Q230 -96 251 -97T282 -89T285 -56H411Q420 -119 384 -149T285 -180ZM285 -56Q279 -33 272 -17T256
15H385Q394 2 400 -14T411 -56H285Z"></glyph>
<glyph unicode="&#xe8;" horiz-adv-x="496" d="M109 221V303H461V221H109ZM246 -16V94H255V-16H246ZM35 208V307H176V208H35ZM320 303V325H461V303H320ZM461 325H320Q320 369 300 395T246 421V531Q308 531 356 504T433 431T461 325ZM329 176L454 153Q446 101 419
63T350 5T255 -16V94Q284 94 304 115T329 176ZM35 306Q35 371 63 421T138 501T247 531V421Q213 421 195 391T176 306H35ZM35 209H176Q176 155 194 125T247 94V-16Q186 -16 139 13T63 94T35 209ZM183 557L91 700H214L279 557H183Z"></glyph>
<glyph unicode="&#xe9;" horiz-adv-x="496" d="M264 557H168L233 700H356L264 557ZM109 221V303H461V221H109ZM246 -16V94H255V-16H246ZM35 208V307H176V208H35ZM320 303V325H461V303H320ZM461 325H320Q320 369 300 395T246 421V531Q308 531 356 504T433 431T461
325ZM329 176L454 153Q446 101 419 63T350 5T255 -16V94Q284 94 304 115T329 176ZM35 306Q35 371 63 421T138 501T247 531V421Q213 421 195 391T176 306H35ZM35 209H176Q176 155 194 125T247 94V-16Q186 -16 139 13T63 94T35 209Z"></glyph>
<glyph unicode="&#xea;" horiz-adv-x="496" d="M173 715H269L204 572H81L173 715ZM311 715L403 572H280L215 715H311ZM109 221V303H461V221H109ZM246 -16V94H255V-16H246ZM35 208V307H176V208H35ZM320 303V325H461V303H320ZM461 325H320Q320 369 300 395T246 421V531Q308
531 356 504T433 431T461 325ZM329 176L454 153Q446 101 419 63T350 5T255 -16V94Q284 94 304 115T329 176ZM35 306Q35 371 63 421T138 501T247 531V421Q213 421 195 391T176 306H35ZM35 209H176Q176 155 194 125T247 94V-16Q186 -16 139 13T63 94T35 209Z"></glyph>
<glyph unicode="&#xeb;" horiz-adv-x="496" d="M109 221V303H461V221H109ZM246 -16V94H255V-16H246ZM35 208V307H176V208H35ZM320 303V325H461V303H320ZM461 325H320Q320 369 300 395T246 421V531Q308 531 356 504T433 431T461 325ZM329 176L454 153Q446 101 419
63T350 5T255 -16V94Q284 94 304 115T329 176ZM35 306Q35 371 63 421T138 501T247 531V421Q213 421 195 391T176 306H35ZM35 209H176Q176 155 194 125T247 94V-16Q186 -16 139 13T63 94T35 209ZM151 565Q124 565 107 582T89 627Q89 653 106 672T151 691Q177 691
196 672T215 627Q215 600 196 583T151 565ZM333 565Q306 565 289 582T272 627Q272 653 289 672T333 691Q360 691 379 672T398 627Q398 600 379 583T333 565Z"></glyph>
<glyph unicode="&#xec;" horiz-adv-x="281" d="M70 0V515H211V0H70ZM337 557L245 700H368L433 557H337Z"></glyph>
<glyph unicode="&#xed;" horiz-adv-x="281" d="M162 557H66L131 700H254L162 557ZM70 0V515H211V0H70Z"></glyph>
<glyph unicode="&#xee;" horiz-adv-x="281" d="M71 715H167L102 572H-21L71 715ZM209 715L301 572H178L113 715H209ZM70 0V515H211V0H70Z"></glyph>
<glyph unicode="&#xef;" horiz-adv-x="281" d="M70 0V515H211V0H70ZM305 565Q278 565 261 582T243 627Q243 653 260 672T305 691Q331 691 350 672T369 627Q369 600 350 583T305 565ZM487 565Q460 565 443 582T426 627Q426 653 443 672T487 691Q514 691 533 672T552
627Q552 600 533 583T487 565Z"></glyph>
<glyph unicode="&#xf0;" horiz-adv-x="511" d="M348 310Q348 375 337 439T299 570T223 705L308 758Q362 686 397 610T449 457T466 310H348ZM232 559L191 625L401 745L442 680L232 559ZM325 209V306H466V209H325ZM35 209V306H176V209H35ZM245 420V530H255V420H245ZM245
-15V95H255V-15H245ZM35 305Q35 370 63 420T138 500T247 530V420Q213 420 195 390T176 305H35ZM466 305H325Q325 360 307 390T254 420V530Q315 530 362 501T438 421T466 305ZM35 210H176Q176 156 194 126T247 95V-15Q186 -15 139 14T63 95T35 210ZM466 210Q466
146 438 95T363 15T254 -15V95Q288 95 306 125T325 210H466Z"></glyph>
<glyph unicode="&#xf1;" horiz-adv-x="536" d="M60 0V515H201V0H60ZM350 0V333H491V0H350ZM350 332Q350 373 331 396T279 420L320 531Q369 531 407 505T468 434T491 332H350ZM157 325Q157 384 178 430T237 504T320 531L279 420Q244 420 223 394T201 325H157ZM348
569Q321 569 305 578T277 599T255 620T226 630V705Q253 705 269 696T296 675T319 654T348 644V569ZM114 590Q114 644 143 674T226 705V630Q214 630 207 620T200 590H114ZM348 569V644Q360 644 367 655T374 684H460Q460 630 431 600T348 569Z"></glyph>
<glyph unicode="&#xf2;" horiz-adv-x="501" d="M325 209V306H466V209H325ZM35 209V306H176V209H35ZM245 420V530H255V420H245ZM245 -15V95H255V-15H245ZM35 305Q35 370 63 420T138 500T247 530V420Q213 420 195 390T176 305H35ZM466 305H325Q325 360 307 390T254
420V530Q315 530 362 501T438 421T466 305ZM35 210H176Q176 156 194 126T247 95V-15Q186 -15 139 14T63 95T35 210ZM466 210Q466 146 438 95T363 15T254 -15V95Q288 95 306 125T325 210H466ZM190 557L98 700H221L286 557H190Z"></glyph>
<glyph unicode="&#xf3;" horiz-adv-x="501" d="M272 557H176L241 700H364L272 557ZM325 209V306H466V209H325ZM35 209V306H176V209H35ZM245 420V530H255V420H245ZM245 -15V95H255V-15H245ZM35 305Q35 370 63 420T138 500T247 530V420Q213 420 195 390T176 305H35ZM466
305H325Q325 360 307 390T254 420V530Q315 530 362 501T438 421T466 305ZM35 210H176Q176 156 194 126T247 95V-15Q186 -15 139 14T63 95T35 210ZM466 210Q466 146 438 95T363 15T254 -15V95Q288 95 306 125T325 210H466Z"></glyph>
<glyph unicode="&#xf4;" horiz-adv-x="501" d="M181 715H277L212 572H89L181 715ZM319 715L411 572H288L223 715H319ZM325 209V306H466V209H325ZM35 209V306H176V209H35ZM245 420V530H255V420H245ZM245 -15V95H255V-15H245ZM35 305Q35 370 63 420T138 500T247
530V420Q213 420 195 390T176 305H35ZM466 305H325Q325 360 307 390T254 420V530Q315 530 362 501T438 421T466 305ZM35 210H176Q176 156 194 126T247 95V-15Q186 -15 139 14T63 95T35 210ZM466 210Q466 146 438 95T363 15T254 -15V95Q288 95 306 125T325 210H466Z"></glyph>
<glyph unicode="&#xf5;" horiz-adv-x="501" d="M325 209V306H466V209H325ZM35 209V306H176V209H35ZM245 420V530H255V420H245ZM245 -15V95H255V-15H245ZM35 305Q35 370 63 420T138 500T247 530V420Q213 420 195 390T176 305H35ZM466 305H325Q325 360 307 390T254
420V530Q315 530 362 501T438 421T466 305ZM35 210H176Q176 156 194 126T247 95V-15Q186 -15 139 14T63 95T35 210ZM466 210Q466 146 438 95T363 15T254 -15V95Q288 95 306 125T325 210H466ZM312 569Q285 569 269 578T241 599T219 620T190 630V705Q217 705 233
696T260 675T283 654T312 644V569ZM78 590Q78 644 107 674T190 705V630Q178 630 171 620T164 590H78ZM312 569V644Q324 644 331 655T338 684H424Q424 630 395 600T312 569Z"></glyph>
<glyph unicode="&#xf6;" horiz-adv-x="501" d="M325 209V306H466V209H325ZM35 209V306H176V209H35ZM245 420V530H255V420H245ZM245 -15V95H255V-15H245ZM35 305Q35 370 63 420T138 500T247 530V420Q213 420 195 390T176 305H35ZM466 305H325Q325 360 307 390T254
420V530Q315 530 362 501T438 421T466 305ZM35 210H176Q176 156 194 126T247 95V-15Q186 -15 139 14T63 95T35 210ZM466 210Q466 146 438 95T363 15T254 -15V95Q288 95 306 125T325 210H466ZM158 565Q131 565 114 582T96 627Q96 653 113 672T158 691Q184 691 203
672T222 627Q222 600 203 583T158 565ZM340 565Q313 565 296 582T279 627Q279 653 296 672T340 691Q367 691 386 672T405 627Q405 600 386 583T340 565Z"></glyph>
<glyph unicode="&#xf7;" horiz-adv-x="488" d="M30 287V398H458V287H30ZM243 463Q209 463 187 485T164 542Q164 576 186 599T243 623Q277 623 300 600T324 542Q324 508 301 486T243 463ZM243 58Q209 58 187 80T164 137Q164 171 186 194T243 218Q277 218 300 195T324
137Q324 103 301 81T243 58Z"></glyph>
<glyph unicode="&#xf8;" horiz-adv-x="501" d="M105 -46L338 562H395L162 -46H105ZM325 209V306H466V209H325ZM35 209V306H176V209H35ZM245 420V530H255V420H245ZM245 -15V95H255V-15H245ZM35 305Q35 370 63 420T138 500T247 530V420Q213 420 195 390T176 305H35ZM466
305H325Q325 360 307 390T254 420V530Q315 530 362 501T438 421T466 305ZM35 210H176Q176 156 194 126T247 95V-15Q186 -15 139 14T63 95T35 210ZM466 210Q466 146 438 95T363 15T254 -15V95Q288 95 306 125T325 210H466Z"></glyph>
<glyph unicode="&#xf9;" horiz-adv-x="536" d="M476 515V0H335V515H476ZM186 515V182H45V515H186ZM186 183Q186 142 205 119T257 95L216 -16Q167 -16 129 10T68 81T45 183H186ZM379 191Q379 132 358 86T299 12T216 -16L257 95Q292 95 313 121T335 191H379ZM205
557L113 700H236L301 557H205Z"></glyph>
<glyph unicode="&#xfa;" horiz-adv-x="536" d="M476 515V0H335V515H476ZM186 515V182H45V515H186ZM186 183Q186 142 205 119T257 95L216 -16Q167 -16 129 10T68 81T45 183H186ZM379 191Q379 132 358 86T299 12T216 -16L257 95Q292 95 313 121T335 191H379ZM286
557H190L255 700H378L286 557Z"></glyph>
<glyph unicode="&#xfb;" horiz-adv-x="536" d="M476 515V0H335V515H476ZM186 515V182H45V515H186ZM186 183Q186 142 205 119T257 95L216 -16Q167 -16 129 10T68 81T45 183H186ZM379 191Q379 132 358 86T299 12T216 -16L257 95Q292 95 313 121T335 191H379ZM195
715H291L226 572H103L195 715ZM333 715L425 572H302L237 715H333Z"></glyph>
<glyph unicode="&#xfc;" horiz-adv-x="536" d="M476 515V0H335V515H476ZM186 515V182H45V515H186ZM186 183Q186 142 205 119T257 95L216 -16Q167 -16 129 10T68 81T45 183H186ZM379 191Q379 132 358 86T299 12T216 -16L257 95Q292 95 313 121T335 191H379ZM173
565Q146 565 129 582T111 627Q111 653 128 672T173 691Q199 691 218 672T237 627Q237 600 218 583T173 565ZM355 565Q328 565 311 582T293 627Q293 653 310 672T355 691Q381 691 400 672T419 627Q419 600 400 583T355 565Z"></glyph>
<glyph unicode="&#xfd;" horiz-adv-x="522" d="M283 557H187L252 700H375L283 557ZM73 -182L104 -71Q145 -82 169 -73T204 -30H324Q292 -134 231 -171T73 -182ZM205 -30L351 515H492L324 -30H205ZM211 -72L30 515H172L276 126L211 -72Z"></glyph>
<glyph unicode="&#xfe;" horiz-adv-x="536" d="M60 513V715H201V513H60ZM60 2H201V-200H60V2ZM201 515V0H60V515H201ZM491 332V183H350V332H491ZM350 183H491Q491 126 469 81T408 10T320 -16L279 95Q312 95 331 118T350 183ZM157 191H201Q201 147 222 121T279
95L320 -16Q274 -16 237 11T179 85T157 191ZM350 332Q350 373 331 396T279 420L320 531Q369 531 407 505T468 434T491 332H350ZM157 325Q157 384 178 430T237 504T320 531L279 420Q244 420 223 394T201 325H157Z"></glyph>
<glyph unicode="&#xff;" horiz-adv-x="522" d="M73 -182L104 -71Q145 -82 169 -73T204 -30H324Q292 -134 231 -171T73 -182ZM205 -30L351 515H492L324 -30H205ZM211 -72L30 515H172L276 126L211 -72ZM170 565Q143 565 126 582T108 627Q108 653 125 672T170 691Q196
691 215 672T234 627Q234 600 215 583T170 565ZM352 565Q325 565 308 582T291 627Q291 653 308 672T352 691Q379 691 398 672T417 627Q417 600 398 583T352 565Z"></glyph>
<glyph unicode="&#x2013;" horiz-adv-x="469" d="M50 277V388H419V277H50Z"></glyph>
<glyph unicode="&#x2014;" horiz-adv-x="654" d="M50 277V388H604V277H50Z"></glyph>
<glyph unicode="&#x2018;" horiz-adv-x="282" d="M141 612Q175 612 197 590T220 533Q220 500 198 476T141 452Q108 452 84 476T60 533Q60 567 84 589T141 612ZM222 707Q204 681 193 663T174 628T164 592T161 543L60 533Q60 572 72 606T104 675T150 747L222 707Z"></glyph>
<glyph unicode="&#x2019;" horiz-adv-x="282" d="M60 475Q77 501 89 519T108 554T118 591T121 640L222 650Q222 611 210 576T178 507T132 436L60 475ZM141 571Q106 571 84 593T62 650Q62 683 84 706T141 730Q175 730 198 707T222 650Q222 615 199 593T141 571Z"></glyph>
<glyph unicode="&#x201a;" horiz-adv-x="262" d="M50 -89Q67 -63 79 -45T98 -10T108 27T111 76L212 86Q212 47 200 12T168 -57T122 -128L50 -89ZM131 7Q96 7 74 29T52 86Q52 119 74 142T131 166Q165 166 188 143T212 86Q212 51 189 29T131 7Z"></glyph>
<glyph unicode="&#x201c;" horiz-adv-x="482" d="M141 610Q175 610 197 588T220 531Q220 498 198 474T141 450Q108 450 84 474T60 531Q60 565 84 587T141 610ZM222 705Q204 679 193 661T174 626T164 590T161 541L60 531Q60 570 72 604T104 673T150 745L222 705ZM341
610Q375 610 397 588T420 531Q420 498 398 474T341 450Q308 450 284 474T260 531Q260 565 284 587T341 610ZM422 705Q404 679 393 661T374 626T364 590T361 541L260 531Q260 570 272 604T304 673T350 745L422 705Z"></glyph>
<glyph unicode="&#x201d;" horiz-adv-x="482" d="M260 474Q277 500 289 518T308 553T318 590T321 639L422 649Q422 610 410 575T378 506T332 435L260 474ZM341 570Q306 570 284 592T262 649Q262 682 284 705T341 729Q375 729 398 706T422 649Q422 614 399 592T341
570ZM60 474Q77 500 89 518T108 553T118 590T121 639L222 649Q222 610 210 575T178 506T132 435L60 474ZM141 570Q106 570 84 592T62 649Q62 682 84 705T141 729Q175 729 198 706T222 649Q222 614 199 592T141 570Z"></glyph>
<glyph unicode="&#x201e;" horiz-adv-x="461" d="M249 -89Q266 -63 278 -45T297 -10T307 27T310 76L411 86Q411 47 399 12T367 -57T321 -128L249 -89ZM330 7Q295 7 273 29T251 86Q251 119 273 142T330 166Q364 166 387 143T411 86Q411 51 388 29T330 7ZM50 -89Q67
-63 79 -45T98 -10T108 27T111 76L212 86Q212 47 200 12T168 -57T122 -128L50 -89ZM131 7Q96 7 74 29T52 86Q52 119 74 142T131 166Q165 166 188 143T212 86Q212 51 189 29T131 7Z"></glyph>
<glyph unicode="&#x2022;" horiz-adv-x="352" d="M175 214Q120 214 85 249T50 339Q50 374 66 402T110 448T175 466Q210 466 239 449T285 403T302 339Q302 303 285 275T239 230T175 214Z"></glyph>
<glyph unicode="&#x2039;" horiz-adv-x="423" d="M150 219V360L403 551V416L150 219ZM150 167L20 263L150 360V167ZM403 -24L150 167V307L403 110V-24Z"></glyph>
<glyph unicode="&#x203a;" horiz-adv-x="423" d="M273 219L20 416V551L273 360V219ZM273 167V360L403 263L273 167ZM20 -24V110L273 307V167L20 -24Z"></glyph>
</font>
</defs>
</svg>
