<svg xmlns="http://www.w3.org/2000/svg" width="74mm" height="52mm" viewBox="0 0 74 52" version="1.1" id="svg8"><g id="layer1" transform="translate(0 -245)"><g id="g277" transform="translate(-26.994 208.203)"><path id="rect177" style="fill:#6c5353;stroke-width:.264583px" d="M30.201 54.319h31.538v9.889H30.201z"/><path id="rect179" style="fill:#6c5353;stroke-width:.264583px" d="M56.127 70.088H98.89v11.225H56.127z"/><g style="fill:#6c5353" id="g183"><path d="M41.694 68.198v12.314l15.2 6.14V75.45Z" style="fill:#353564;fill-rule:evenodd;stroke:none;stroke-linejoin:round" id="path185"/><path d="m56.893 75.45 17.684-22.706v14.683L56.893 86.651z" style="fill:#e9e9ff;fill-rule:evenodd;stroke:none;stroke-linejoin:round" id="path195"/><path d="m41.694 68.198 14.7-28.311 18.183 12.857L56.893 75.45Z" style="fill:#4d4d9f;fill-rule:evenodd;stroke:none;stroke-linejoin:round" id="path187"/><path d="m41.694 80.512 14.7-23.97 18.183 10.885-17.684 19.224Z" style="fill:#afafde;fill-rule:evenodd;stroke:none;stroke-linejoin:round" id="path193"/><path d="M56.394 39.887V56.54l18.183 10.886V52.744Z" style="fill:#d7d7ff;fill-rule:evenodd;stroke:none;stroke-linejoin:round" id="path191"/><path d="m41.694 68.198 14.7-28.311V56.54l-14.7 23.97Z" style="fill:#8686bf;fill-rule:evenodd;stroke:none;stroke-linejoin:round" id="path189"/></g><ellipse ry="4.009" rx="3.875" cy="76.235" cx="87.798" id="path144" style="fill:#a80;stroke-width:.264583px"/></g></g></svg>